<svg width="172" height="74" viewBox="0 0 172 74" fill="none" xmlns="http://www.w3.org/2000/svg">
<rect x="0.5" y="0.5" width="171" height="73" rx="16.5" fill="white" stroke="#FCFCFD"/>
<circle cx="46" cy="37" r="21" stroke="#FEE8D3" stroke-width="6" stroke-linecap="round" stroke-linejoin="round"/>
<path d="M67 36.8424C67 40.5171 66.0501 44.1284 64.2437 47.3208C62.4374 50.5131 59.837 53.1765 56.6985 55.0485C53.5599 56.9206 49.9916 57.9368 46.3448 57.9972C42.698 58.0575 39.0985 57.1598 35.9007 55.3926C32.7028 53.6254 30.017 51.0495 28.1076 47.9186C26.1982 44.7877 25.1311 41.2098 25.0113 37.5371C24.8916 33.8644 25.7233 30.2236 27.4246 26.9732C29.1259 23.7228 31.6382 20.9749 34.714 19" stroke="#FF4923" stroke-width="4" stroke-linecap="round" stroke-linejoin="round"/>
<path d="M111.276 30.17C111.659 30.17 112.009 30.1233 112.326 30.03C112.644 29.946 112.919 29.8247 113.152 29.666C113.386 29.5167 113.563 29.3347 113.684 29.12C113.815 28.9147 113.88 28.686 113.88 28.434C113.88 28.21 113.82 28.0233 113.698 27.874C113.577 27.7247 113.344 27.65 112.998 27.65H110.576V25.116C110.576 24.7613 110.628 24.4347 110.73 24.136C110.842 23.8373 111.001 23.5807 111.206 23.366C111.412 23.1513 111.659 22.9833 111.948 22.862C112.247 22.7407 112.578 22.68 112.942 22.68H114.552L114.622 23.912H112.9C112.583 23.912 112.308 24.0147 112.074 24.22C111.841 24.416 111.724 24.7147 111.724 25.116V26.432H113.208C113.563 26.432 113.857 26.4787 114.09 26.572C114.324 26.656 114.506 26.7773 114.636 26.936C114.776 27.0947 114.874 27.286 114.93 27.51C114.986 27.7247 115.014 27.9627 115.014 28.224C115.014 28.672 114.921 29.0873 114.734 29.47C114.548 29.8527 114.291 30.184 113.964 30.464C113.647 30.7533 113.269 30.9773 112.83 31.136C112.401 31.304 111.934 31.388 111.43 31.388H110.226C109.181 31.388 108.369 31.066 107.79 30.422C107.212 29.778 106.922 28.896 106.922 27.776V25.298H108.056V27.734C108.056 28.462 108.238 29.05 108.602 29.498C108.966 29.946 109.564 30.17 110.394 30.17H111.276ZM121.521 24.584C121.764 24.864 121.941 25.144 122.053 25.424C122.165 25.6947 122.221 25.9607 122.221 26.222C122.221 26.474 122.175 26.7073 122.081 26.922C121.988 27.1367 121.853 27.3233 121.675 27.482C121.507 27.6407 121.293 27.7667 121.031 27.86C120.77 27.9533 120.471 28 120.135 28H116.299L116.229 26.768H119.967C120.266 26.768 120.495 26.7027 120.653 26.572C120.812 26.432 120.891 26.2547 120.891 26.04C120.891 25.7973 120.784 25.5593 120.569 25.326L118.077 22.484L118.973 21.644L121.521 24.584ZM124.932 30.17C125.315 30.17 125.651 30.1093 125.94 29.988C126.23 29.876 126.468 29.722 126.654 29.526C126.85 29.33 127 29.1013 127.102 28.84C127.205 28.5787 127.266 28.2987 127.284 28H126.094C125.618 28 125.226 27.9487 124.918 27.846C124.61 27.7433 124.368 27.594 124.19 27.398C124.013 27.202 123.887 26.964 123.812 26.684C123.747 26.3947 123.714 26.0727 123.714 25.718C123.714 25.3633 123.766 25.0273 123.868 24.71C123.971 24.3833 124.12 24.0987 124.316 23.856C124.512 23.6133 124.755 23.422 125.044 23.282C125.343 23.1327 125.688 23.058 126.08 23.058C126.388 23.058 126.682 23.1093 126.962 23.212C127.252 23.3147 127.504 23.478 127.718 23.702C127.933 23.9167 128.101 24.2013 128.222 24.556C128.353 24.9107 128.418 25.34 128.418 25.844V27.776C128.418 28.252 128.339 28.7093 128.18 29.148C128.031 29.5867 127.807 29.9693 127.508 30.296C127.219 30.632 126.864 30.898 126.444 31.094C126.024 31.29 125.548 31.388 125.016 31.388H123.56L123.476 30.17H124.932ZM124.806 25.648C124.806 26.0493 124.9 26.3387 125.086 26.516C125.282 26.684 125.656 26.768 126.206 26.768H127.312V25.9C127.312 25.312 127.196 24.892 126.962 24.64C126.738 24.3787 126.421 24.248 126.01 24.248C125.628 24.248 125.329 24.374 125.114 24.626C124.909 24.8687 124.806 25.2093 124.806 25.648ZM128.559 30.17H128.797C129.226 30.17 129.59 30.1 129.889 29.96C130.197 29.8293 130.449 29.652 130.645 29.428C130.841 29.204 130.986 28.9473 131.079 28.658C131.172 28.378 131.219 28.084 131.219 27.776V23.954H132.367V27.776C132.367 28.2987 132.278 28.7793 132.101 29.218C131.933 29.666 131.695 30.0487 131.387 30.366C131.088 30.6927 130.734 30.9447 130.323 31.122C129.922 31.2993 129.483 31.388 129.007 31.388H128.629L128.559 30.17ZM135.159 30.17C135.542 30.17 135.878 30.1093 136.167 29.988C136.456 29.876 136.694 29.722 136.881 29.526C137.077 29.33 137.226 29.1013 137.329 28.84C137.432 28.5787 137.492 28.2987 137.511 28H136.321C135.845 28 135.453 27.9487 135.145 27.846C134.837 27.7433 134.594 27.594 134.417 27.398C134.24 27.202 134.114 26.964 134.039 26.684C133.974 26.3947 133.941 26.0727 133.941 25.718C133.941 25.3633 133.992 25.0273 134.095 24.71C134.198 24.3833 134.347 24.0987 134.543 23.856C134.739 23.6133 134.982 23.422 135.271 23.282C135.57 23.1327 135.915 23.058 136.307 23.058C136.615 23.058 136.909 23.1093 137.189 23.212C137.478 23.3147 137.73 23.478 137.945 23.702C138.16 23.9167 138.328 24.2013 138.449 24.556C138.58 24.9107 138.645 25.34 138.645 25.844V27.776C138.645 28.252 138.566 28.7093 138.407 29.148C138.258 29.5867 138.034 29.9693 137.735 30.296C137.446 30.632 137.091 30.898 136.671 31.094C136.251 31.29 135.775 31.388 135.243 31.388H133.787L133.703 30.17H135.159ZM135.033 25.648C135.033 26.0493 135.126 26.3387 135.313 26.516C135.509 26.684 135.882 26.768 136.433 26.768H137.539V25.9C137.539 25.312 137.422 24.892 137.189 24.64C136.965 24.3787 136.648 24.248 136.237 24.248C135.854 24.248 135.556 24.374 135.341 24.626C135.136 24.8687 135.033 25.2093 135.033 25.648ZM147.027 24.892C146.961 24.724 146.891 24.5793 146.817 24.458C146.751 24.3367 146.663 24.234 146.551 24.15C146.448 24.066 146.317 24.0053 146.159 23.968C146.009 23.9213 145.813 23.898 145.571 23.898H142.659L142.743 22.666H145.739C145.991 22.666 146.243 22.694 146.495 22.75C146.747 22.806 146.985 22.932 147.209 23.128C147.442 23.3147 147.652 23.59 147.839 23.954C148.035 24.3087 148.198 24.794 148.329 25.41L145.557 27.02C145.109 27.2813 144.735 27.5333 144.437 27.776C144.138 28.0187 143.895 28.2567 143.709 28.49C143.531 28.7327 143.405 28.9707 143.331 29.204C143.256 29.4467 143.219 29.694 143.219 29.946C143.219 30.646 143.415 31.192 143.807 31.584C144.199 31.976 144.833 32.172 145.711 32.172H148.287L148.217 33.39H145.669C145.025 33.39 144.474 33.3013 144.017 33.124C143.559 32.956 143.186 32.718 142.897 32.41C142.617 32.1113 142.407 31.7613 142.267 31.36C142.136 30.9587 142.071 30.5293 142.071 30.072C142.071 29.6707 142.117 29.2927 142.211 28.938C142.313 28.5927 142.477 28.2613 142.701 27.944C142.934 27.6173 143.233 27.3 143.597 26.992C143.97 26.684 144.423 26.376 144.955 26.068L147.027 24.892ZM145.697 21.14H144.325V19.936H145.697V21.14ZM151.508 25.788C151.508 26.096 151.606 26.3387 151.802 26.516C152.007 26.684 152.268 26.768 152.586 26.768H152.74C152.945 26.768 153.048 26.9687 153.048 27.37C153.048 27.79 152.945 28 152.74 28H152.586C152.38 28 152.175 27.9627 151.97 27.888C151.764 27.8133 151.592 27.678 151.452 27.482V27.776C151.452 28.2987 151.368 28.7793 151.2 29.218C151.032 29.666 150.798 30.0487 150.5 30.366C150.21 30.6927 149.865 30.9447 149.464 31.122C149.062 31.2993 148.624 31.388 148.148 31.388H147.784L147.686 30.17H147.938C148.367 30.17 148.731 30.1 149.03 29.96C149.338 29.8293 149.59 29.652 149.786 29.428C149.982 29.204 150.126 28.9473 150.22 28.658C150.313 28.378 150.36 28.084 150.36 27.776V23.954H151.508V25.788ZM154.008 26.768C154.344 26.768 154.606 26.6793 154.792 26.502C154.988 26.3247 155.086 26.0727 155.086 25.746V23.954H156.234V25.802C156.234 26.5113 156.043 27.0573 155.66 27.44C155.287 27.8133 154.764 28 154.092 28H152.734C152.613 28 152.534 27.9533 152.496 27.86C152.45 27.7573 152.426 27.608 152.426 27.412C152.426 27.188 152.45 27.0247 152.496 26.922C152.534 26.8193 152.613 26.768 152.734 26.768H154.008ZM155.842 22.232H154.47V21.028H155.842V22.232ZM88.7917 54.17C89.2303 54.17 89.599 54.1327 89.8977 54.058C90.2057 53.9833 90.453 53.8807 90.6397 53.75C90.8263 53.6193 90.957 53.4653 91.0317 53.288C91.1157 53.12 91.1577 52.9427 91.1577 52.756C91.1577 52.5507 91.1017 52.3733 90.9897 52.224C90.887 52.0747 90.7003 52 90.4297 52H88.2457L88.3157 50.768H93.2437C93.449 50.768 93.5517 50.9687 93.5517 51.37C93.5517 51.79 93.449 52 93.2437 52H91.9417C92.063 52.1027 92.1423 52.2287 92.1797 52.378C92.2263 52.5273 92.2497 52.7 92.2497 52.896C92.2497 53.148 92.1937 53.4187 92.0817 53.708C91.9697 53.9973 91.783 54.2633 91.5217 54.506C91.2697 54.758 90.9337 54.968 90.5137 55.136C90.0937 55.304 89.571 55.388 88.9457 55.388H87.5037C86.4583 55.388 85.6463 55.066 85.0677 54.422C84.489 53.778 84.1997 52.896 84.1997 51.776V49.298H85.3337V51.734C85.3337 52.462 85.5157 53.05 85.8797 53.498C86.2437 53.946 86.841 54.17 87.6717 54.17H88.7917ZM93.962 50.768C94.3167 50.768 94.6947 50.7493 95.096 50.712C95.5067 50.6747 95.9034 50.5767 96.286 50.418L94.354 47.898L94.956 46.75H98.582C99.0114 46.75 99.366 46.8433 99.646 47.03C99.9354 47.2073 100.108 47.4687 100.164 47.814C100.192 47.9447 100.206 48.0707 100.206 48.192C100.197 48.3133 100.169 48.444 100.122 48.584C100.075 48.724 99.9914 48.8873 99.87 49.074C99.758 49.2513 99.59 49.4567 99.366 49.69C99.1514 49.9233 98.8714 50.194 98.526 50.502C98.778 50.6327 99.0394 50.712 99.31 50.74C99.59 50.7587 99.926 50.768 100.318 50.768H101.312C101.517 50.768 101.62 50.9687 101.62 51.37C101.62 51.79 101.517 52 101.312 52H100.108C99.8094 52 99.534 51.9953 99.282 51.986C99.03 51.9673 98.792 51.9347 98.568 51.888C98.344 51.8413 98.1294 51.7667 97.924 51.664C97.728 51.5613 97.532 51.4167 97.336 51.23C97.084 51.3887 96.8274 51.5193 96.566 51.622C96.314 51.7247 96.0527 51.804 95.782 51.86C95.5207 51.916 95.2454 51.9533 94.956 51.972C94.6667 51.9907 94.3634 52 94.046 52H93.248C93.1267 52 93.0474 51.9533 93.01 51.86C92.9634 51.7573 92.94 51.608 92.94 51.412C92.94 51.188 92.9634 51.0247 93.01 50.922C93.0474 50.8193 93.1267 50.768 93.248 50.768H93.962ZM98.988 48.402C98.988 48.0753 98.7407 47.912 98.246 47.912H95.698L97.448 50.152C97.7467 49.9093 97.994 49.6993 98.19 49.522C98.386 49.3353 98.5447 49.1767 98.666 49.046C98.7874 48.906 98.8714 48.7847 98.918 48.682C98.9647 48.5793 98.988 48.486 98.988 48.402ZM102.336 50.768C103.064 50.768 103.428 50.4273 103.428 49.746V47.954H104.576V49.746C104.576 49.9327 104.604 50.0913 104.66 50.222C104.726 50.3527 104.81 50.46 104.912 50.544C105.015 50.6187 105.132 50.6747 105.262 50.712C105.402 50.7493 105.542 50.768 105.682 50.768H106.074C106.289 50.768 106.396 50.9687 106.396 51.37C106.396 51.79 106.289 52 106.074 52H105.64C105.304 52 104.987 51.9393 104.688 51.818C104.399 51.6967 104.156 51.4587 103.96 51.104C103.746 51.4587 103.498 51.6967 103.218 51.818C102.948 51.9393 102.654 52 102.336 52H101.314C101.193 52 101.114 51.9533 101.076 51.86C101.03 51.7573 101.006 51.608 101.006 51.412C101.006 51.188 101.03 51.0247 101.076 50.922C101.114 50.8193 101.193 50.768 101.314 50.768H102.336ZM105.234 54.772H104.002V53.596H105.234V54.772ZM103.33 54.772H102.084V53.596H103.33V54.772ZM107.094 50.768C107.822 50.768 108.186 50.4273 108.186 49.746V47.954H109.334V49.746C109.334 49.9327 109.362 50.0913 109.418 50.222C109.484 50.3527 109.568 50.46 109.67 50.544C109.773 50.6187 109.89 50.6747 110.02 50.712C110.16 50.7493 110.3 50.768 110.44 50.768H110.832C111.047 50.768 111.154 50.9687 111.154 51.37C111.154 51.79 111.047 52 110.832 52H110.398C110.062 52 109.745 51.9393 109.446 51.818C109.157 51.6967 108.914 51.4587 108.718 51.104C108.504 51.4587 108.256 51.6967 107.976 51.818C107.706 51.9393 107.412 52 107.094 52H106.072C105.951 52 105.872 51.9533 105.834 51.86C105.788 51.7573 105.764 51.608 105.764 51.412C105.764 51.188 105.788 51.0247 105.834 50.922C105.872 50.8193 105.951 50.768 106.072 50.768H107.094ZM109.096 54.8H107.724V53.596H109.096V54.8ZM112.118 43.32H113.266V47.408C113.266 47.6973 113.261 48.0007 113.252 48.318C113.252 48.626 113.243 48.9153 113.224 49.186C113.719 48.43 114.185 47.8607 114.624 47.478C115.072 47.0953 115.52 46.862 115.968 46.778C116.108 46.7593 116.243 46.7547 116.374 46.764C116.514 46.764 116.649 46.7733 116.78 46.792C117.377 46.8947 117.853 47.1887 118.208 47.674C118.563 48.1593 118.74 48.738 118.74 49.41C118.74 49.7273 118.689 50.04 118.586 50.348C118.493 50.656 118.343 50.936 118.138 51.188C117.933 51.4307 117.671 51.6267 117.354 51.776C117.037 51.9253 116.663 52 116.234 52H110.83C110.709 52 110.629 51.9533 110.592 51.86C110.545 51.7573 110.522 51.608 110.522 51.412C110.522 51.188 110.545 51.0247 110.592 50.922C110.629 50.8193 110.709 50.768 110.83 50.768H112.118V43.32ZM117.592 49.41C117.592 49.214 117.559 49.0273 117.494 48.85C117.429 48.6727 117.335 48.5187 117.214 48.388C117.093 48.2573 116.948 48.1547 116.78 48.08C116.621 47.996 116.439 47.954 116.234 47.954C116.019 47.954 115.805 48.0053 115.59 48.108C115.385 48.2107 115.161 48.374 114.918 48.598C114.685 48.822 114.433 49.116 114.162 49.48C113.891 49.8347 113.588 50.264 113.252 50.768H116.276C116.631 50.768 116.939 50.6607 117.2 50.446C117.461 50.222 117.592 49.8767 117.592 49.41ZM127.164 46.162V44.888L131.798 43.096L132.078 44.244L128.298 45.686L130.608 48.01C131.056 48.458 131.439 48.8407 131.756 49.158C132.083 49.466 132.363 49.7227 132.596 49.928C132.829 50.1333 133.03 50.292 133.198 50.404C133.375 50.516 133.534 50.6 133.674 50.656C133.814 50.712 133.954 50.7447 134.094 50.754C134.234 50.7633 134.388 50.768 134.556 50.768C134.677 50.768 134.757 50.8193 134.794 50.922C134.841 51.0153 134.864 51.1647 134.864 51.37C134.864 51.5847 134.841 51.7433 134.794 51.846C134.757 51.9487 134.677 52 134.556 52C134.285 52 134.038 51.9813 133.814 51.944C133.599 51.9067 133.385 51.832 133.17 51.72C132.955 51.608 132.722 51.4493 132.47 51.244C132.218 51.0387 131.919 50.768 131.574 50.432C131.574 50.712 131.523 50.95 131.42 51.146C131.327 51.342 131.196 51.5053 131.028 51.636C130.86 51.7573 130.659 51.8507 130.426 51.916C130.202 51.972 129.964 52 129.712 52H124.406C124.023 52 123.692 51.944 123.412 51.832C123.141 51.7107 122.917 51.552 122.74 51.356C122.572 51.16 122.446 50.9313 122.362 50.67C122.287 50.4087 122.25 50.1333 122.25 49.844V47.912H123.398V49.564C123.398 49.9373 123.487 50.2313 123.664 50.446C123.841 50.6607 124.177 50.768 124.672 50.768H129.586C129.931 50.768 130.169 50.698 130.3 50.558C130.431 50.418 130.496 50.2453 130.496 50.04C130.496 49.8907 130.468 49.7367 130.412 49.578C130.356 49.41 130.221 49.2187 130.006 49.004L127.164 46.162ZM135.573 50.768C136.301 50.768 136.665 50.4273 136.665 49.746V47.954H137.813V49.746C137.813 49.9327 137.841 50.0913 137.897 50.222C137.962 50.3527 138.046 50.46 138.149 50.544C138.251 50.6187 138.368 50.6747 138.499 50.712C138.639 50.7493 138.779 50.768 138.919 50.768H139.311C139.525 50.768 139.633 50.9687 139.633 51.37C139.633 51.79 139.525 52 139.311 52H138.877C138.541 52 138.223 51.9393 137.925 51.818C137.635 51.6967 137.393 51.4587 137.197 51.104C136.982 51.4587 136.735 51.6967 136.455 51.818C136.184 51.9393 135.89 52 135.573 52H134.551C134.429 52 134.35 51.9533 134.313 51.86C134.266 51.7573 134.243 51.608 134.243 51.412C134.243 51.188 134.266 51.0247 134.313 50.922C134.35 50.8193 134.429 50.768 134.551 50.768H135.573ZM138.471 54.772H137.239V53.596H138.471V54.772ZM136.567 54.772H135.321V53.596H136.567V54.772ZM141.157 50.768C141.427 50.768 141.647 50.7727 141.815 50.782C141.983 50.782 142.174 50.796 142.389 50.824C141.95 50.6653 141.605 50.5067 141.353 50.348C141.101 50.18 140.909 50.0073 140.779 49.83C140.657 49.6433 140.578 49.4427 140.541 49.228C140.503 49.0133 140.485 48.7707 140.485 48.5C140.485 48.248 140.531 47.9867 140.625 47.716C140.727 47.4453 140.877 47.2027 141.073 46.988C141.269 46.764 141.511 46.582 141.801 46.442C142.099 46.302 142.44 46.232 142.823 46.232C143.187 46.232 143.513 46.2787 143.803 46.372C144.101 46.4653 144.353 46.624 144.559 46.848C144.773 47.0627 144.937 47.3473 145.049 47.702C145.17 48.0473 145.231 48.472 145.231 48.976V49.648C145.231 50.376 145.011 50.95 144.573 51.37C144.143 51.79 143.462 52 142.529 52H139.309C139.187 52 139.108 51.9533 139.071 51.86C139.024 51.7573 139.001 51.608 139.001 51.412C139.001 51.188 139.024 51.0247 139.071 50.922C139.108 50.8193 139.187 50.768 139.309 50.768H141.157ZM142.767 47.478C142.571 47.478 142.398 47.5153 142.249 47.59C142.099 47.6553 141.969 47.744 141.857 47.856C141.754 47.968 141.675 48.0987 141.619 48.248C141.572 48.388 141.549 48.5327 141.549 48.682C141.549 48.8407 141.563 48.99 141.591 49.13C141.628 49.2607 141.717 49.396 141.857 49.536C142.006 49.676 142.23 49.8253 142.529 49.984C142.827 50.1333 143.238 50.306 143.761 50.502C143.873 50.3993 143.957 50.2593 144.013 50.082C144.078 49.9047 144.111 49.7133 144.111 49.508V49.088C144.111 48.5933 144.008 48.2013 143.803 47.912C143.607 47.6227 143.261 47.478 142.767 47.478ZM143.509 44.958H142.137V43.754H143.509V44.958ZM146.918 43.32H148.066V52H146.918V43.32ZM151.452 51.776C151.452 52.2987 151.368 52.7793 151.2 53.218C151.032 53.666 150.799 54.0487 150.5 54.366C150.211 54.6927 149.861 54.9447 149.45 55.122C149.049 55.2993 148.61 55.388 148.134 55.388H147.28L147.21 54.17H147.854C148.302 54.17 148.685 54.1 149.002 53.96C149.31 53.8293 149.562 53.652 149.758 53.428C149.963 53.204 150.113 52.9473 150.206 52.658C150.299 52.378 150.346 52.084 150.346 51.776V47.954H151.494V49.788C151.494 50.096 151.592 50.3387 151.788 50.516C151.993 50.684 152.259 50.768 152.586 50.768H152.74C152.945 50.768 153.048 50.9687 153.048 51.37C153.048 51.79 152.945 52 152.74 52H152.586C152.381 52 152.175 51.9627 151.97 51.888C151.765 51.8133 151.592 51.678 151.452 51.482V51.776ZM154.008 50.768C154.344 50.768 154.606 50.6793 154.792 50.502C154.988 50.3247 155.086 50.0727 155.086 49.746V47.954H156.234V49.802C156.234 50.5113 156.043 51.0573 155.66 51.44C155.287 51.8133 154.764 52 154.092 52H152.734C152.613 52 152.534 51.9533 152.496 51.86C152.45 51.7573 152.426 51.608 152.426 51.412C152.426 51.188 152.45 51.0247 152.496 50.922C152.534 50.8193 152.613 50.768 152.734 50.768H154.008ZM156.332 46.232H155.058V45.056H156.332V46.232ZM154.456 46.232H153.182V45.056H154.456V46.232Z" fill="#999BB3"/>
<path d="M41.1591 42.5052C41.1591 41.5435 41.0759 40.6507 40.9096 39.827C40.7472 39.0032 40.5322 38.2342 40.2643 37.52C39.9965 36.8017 39.6881 36.1281 39.3391 35.4991C38.9942 34.8701 38.6391 34.2655 38.2739 33.6852L39.8383 32.6809C40.1304 33.1638 40.3942 33.6507 40.6296 34.1417C40.8649 34.6287 41.078 35.1157 41.2687 35.6026C41.4594 36.0896 41.6299 36.5725 41.78 37.0513C41.9301 37.5261 42.0661 37.9907 42.1878 38.4452C42.2852 38.0922 42.3887 37.727 42.4983 37.3496C42.6078 36.9722 42.7214 36.5988 42.8391 36.2296C42.9568 35.8562 43.0765 35.493 43.1983 35.14C43.32 34.7829 43.4417 34.4501 43.5635 34.1417C43.6852 33.8293 43.8049 33.5452 43.9226 33.2896C44.0443 33.0339 44.162 32.8188 44.2757 32.6443L45.8339 33.6365C45.6797 33.88 45.5235 34.1539 45.3652 34.4583C45.211 34.7626 45.0568 35.0893 44.9026 35.4383C44.7525 35.7832 44.6023 36.1464 44.4522 36.5278C44.3061 36.9093 44.1641 37.2968 44.0261 37.6904C43.7096 38.6075 43.4641 39.4658 43.2896 40.2652C43.1191 41.0606 43.0299 41.8072 43.0217 42.5052H41.1591ZM52.3805 42.5722C52.2709 42.4017 52.1532 42.1948 52.0274 41.9513C51.9057 41.7078 51.7799 41.44 51.65 41.1478C51.5242 40.8516 51.3964 40.5371 51.2665 40.2043C51.1367 39.8716 51.0089 39.5307 50.8831 39.1817C50.7573 38.8287 50.6376 38.4757 50.5239 38.1226C50.4103 37.7655 50.3048 37.4165 50.2074 37.0757C50.0735 37.5058 49.9254 37.9481 49.7631 38.4026C49.6007 38.8571 49.4202 39.3177 49.2213 39.7843C49.0225 40.251 48.8034 40.7217 48.5639 41.1965C48.3245 41.6713 48.0628 42.142 47.7787 42.6087L46.2144 41.6104C46.5796 41.0301 46.9347 40.4235 47.2796 39.7904C47.6245 39.1533 47.9309 38.4736 48.1987 37.7513C48.4706 37.029 48.6877 36.2539 48.85 35.4261C49.0123 34.5983 49.0935 33.7014 49.0935 32.7357L51.0718 32.7417C51.0839 33.1841 51.1347 33.669 51.2239 34.1965C51.3173 34.7241 51.437 35.2658 51.5831 35.8217C51.7292 36.3736 51.8976 36.9296 52.0883 37.4896C52.279 38.0455 52.4779 38.5771 52.6848 39.0843C52.8918 39.5916 53.1028 40.0603 53.3178 40.4904C53.5329 40.9206 53.7379 41.2858 53.9326 41.5861L52.3805 42.5722Z" fill="#FF4B23"/>
</svg>
