<svg width="131" height="114" viewBox="0 0 131 114" fill="none" xmlns="http://www.w3.org/2000/svg">
<rect x="1" y="1" width="129" height="112" rx="16" fill="white" stroke="#FCFCFD"/>
<path d="M75.3614 28C75.1267 28 74.892 27.9573 74.6574 27.872C74.4227 27.7867 74.2254 27.632 74.0654 27.408V27.696C74.0654 28.272 73.9747 28.8107 73.7934 29.312C73.612 29.824 73.3507 30.2667 73.0094 30.64C72.668 31.024 72.2574 31.3227 71.7774 31.536C71.2974 31.76 70.7534 31.872 70.1454 31.872H69.1694C67.9747 31.872 67.0467 31.504 66.3854 30.768C65.724 30.032 65.3934 29.024 65.3934 27.744V24.912H66.6894V27.696C66.6894 28.528 66.8974 29.2 67.3134 29.712C67.7294 30.224 68.412 30.48 69.3614 30.48H70.0654C70.5454 30.48 70.956 30.4053 71.2974 30.256C71.6494 30.1067 71.9374 29.904 72.1614 29.648C72.3854 29.392 72.5507 29.0933 72.6574 28.752C72.764 28.4107 72.8174 28.0533 72.8174 27.68V18.08H74.1134V25.472C74.1134 25.824 74.2307 26.1013 74.4654 26.304C74.7 26.496 74.9987 26.592 75.3614 26.592H75.5374C75.7827 26.592 75.9054 26.8213 75.9054 27.28C75.9054 27.76 75.7827 28 75.5374 28H75.3614ZM76.9873 26.592C77.3713 26.592 77.6699 26.4907 77.8832 26.288C78.1073 26.0853 78.2193 25.7973 78.2193 25.424V23.376H79.5312V25.488C79.5312 26.2987 79.3126 26.9227 78.8753 27.36C78.4486 27.7867 77.8513 28 77.0833 28H75.5312C75.3926 28 75.3019 27.9467 75.2592 27.84C75.2059 27.7227 75.1792 27.552 75.1792 27.328C75.1792 27.072 75.2059 26.8853 75.2592 26.768C75.3019 26.6507 75.3926 26.592 75.5312 26.592H76.9873ZM79.1953 31.168H77.7873V29.824H79.1953V31.168ZM77.0193 31.168H75.5953V29.824H77.0193V31.168ZM84.3903 26.592C84.8169 26.592 85.1156 26.5013 85.2863 26.32C85.4569 26.1387 85.5423 25.9627 85.5423 25.792C85.5423 25.696 85.5209 25.568 85.4783 25.408C85.4463 25.248 85.3769 25.0027 85.2703 24.672C85.1636 24.3413 85.0089 23.8987 84.8063 23.344C84.6036 22.7787 84.3423 22.048 84.0223 21.152L85.2703 20.64L86.9503 25.392C87.0996 25.8293 87.2756 26.1387 87.4783 26.32C87.6809 26.5013 87.9796 26.592 88.3743 26.592H88.5823C88.8169 26.592 88.9343 26.8213 88.9343 27.28C88.9343 27.76 88.8169 28 88.5823 28H88.3743C88.0223 28 87.6809 27.936 87.3503 27.808C87.0303 27.68 86.7369 27.3973 86.4703 26.96C86.2463 27.3653 85.9636 27.6427 85.6223 27.792C85.2916 27.9307 84.9289 28 84.5343 28H81.0943L81.0143 26.592H84.3903ZM89.7461 26.592C90.5781 26.592 90.9941 26.2027 90.9941 25.424V23.376H92.3061V25.424C92.3061 25.6373 92.3381 25.8187 92.4021 25.968C92.4768 26.1173 92.5728 26.24 92.6901 26.336C92.8075 26.4213 92.9408 26.4853 93.0901 26.528C93.2501 26.5707 93.4101 26.592 93.5701 26.592H94.0181C94.2635 26.592 94.3861 26.8213 94.3861 27.28C94.3861 27.76 94.2635 28 94.0181 28H93.5221C93.1381 28 92.7755 27.9307 92.4341 27.792C92.1035 27.6533 91.8261 27.3813 91.6021 26.976C91.3568 27.3813 91.0741 27.6533 90.7541 27.792C90.4448 27.9307 90.1088 28 89.7461 28H88.5781C88.4395 28 88.3488 27.9467 88.3061 27.84C88.2528 27.7227 88.2261 27.552 88.2261 27.328C88.2261 27.072 88.2528 26.8853 88.3061 26.768C88.3488 26.6507 88.4395 26.592 88.5781 26.592H89.7461ZM92.0341 31.2H90.4661V29.824H92.0341V31.2ZM95.4716 26.592C95.8556 26.592 96.1543 26.4907 96.3676 26.288C96.5916 26.0853 96.7036 25.7973 96.7036 25.424V23.376H98.0156V25.488C98.0156 26.2987 97.797 26.9227 97.3596 27.36C96.933 27.7867 96.3356 28 95.5676 28H94.0156C93.877 28 93.7863 27.9467 93.7436 27.84C93.6903 27.7227 93.6636 27.552 93.6636 27.328C93.6636 27.072 93.6903 26.8853 93.7436 26.768C93.7863 26.6507 93.877 26.592 94.0156 26.592H95.4716ZM98.1276 21.408H96.6716V20.064H98.1276V21.408ZM95.9836 21.408H94.5276V20.064H95.9836V21.408ZM107.602 24.448C107.527 24.256 107.447 24.0907 107.362 23.952C107.287 23.8133 107.186 23.696 107.058 23.6C106.941 23.504 106.791 23.4347 106.61 23.392C106.439 23.3387 106.215 23.312 105.938 23.312H102.61L102.706 21.904H106.13C106.418 21.904 106.706 21.936 106.994 22C107.282 22.064 107.554 22.208 107.81 22.432C108.077 22.6453 108.317 22.96 108.53 23.376C108.754 23.7813 108.941 24.336 109.09 25.04L105.922 26.88C105.41 27.1787 104.983 27.4667 104.642 27.744C104.301 28.0213 104.023 28.2933 103.81 28.56C103.607 28.8373 103.463 29.1093 103.378 29.376C103.293 29.6533 103.25 29.936 103.25 30.224C103.25 31.024 103.474 31.648 103.922 32.096C104.37 32.544 105.095 32.768 106.098 32.768H109.042L108.962 34.16H106.05C105.314 34.16 104.685 34.0587 104.162 33.856C103.639 33.664 103.213 33.392 102.882 33.04C102.562 32.6987 102.322 32.2987 102.162 31.84C102.013 31.3813 101.938 30.8907 101.938 30.368C101.938 29.9093 101.991 29.4773 102.098 29.072C102.215 28.6773 102.402 28.2987 102.658 27.936C102.925 27.5627 103.266 27.2 103.682 26.848C104.109 26.496 104.626 26.144 105.234 25.792L107.602 24.448ZM106.082 20.16H104.514V18.784H106.082V20.16ZM112.723 25.472C112.723 25.824 112.835 26.1013 113.059 26.304C113.294 26.496 113.592 26.592 113.955 26.592H114.131C114.366 26.592 114.483 26.8213 114.483 27.28C114.483 27.76 114.366 28 114.131 28H113.955C113.72 28 113.486 27.9573 113.251 27.872C113.016 27.7867 112.819 27.632 112.659 27.408V27.744C112.659 28.3413 112.563 28.8907 112.371 29.392C112.179 29.904 111.912 30.3413 111.571 30.704C111.24 31.0773 110.846 31.3653 110.387 31.568C109.928 31.7707 109.427 31.872 108.883 31.872H108.467L108.355 30.48H108.643C109.134 30.48 109.55 30.4 109.891 30.24C110.243 30.0907 110.531 29.888 110.755 29.632C110.979 29.376 111.144 29.0827 111.251 28.752C111.358 28.432 111.411 28.096 111.411 27.744V23.376H112.723V25.472ZM115.581 26.592C115.965 26.592 116.264 26.4907 116.477 26.288C116.701 26.0853 116.813 25.7973 116.813 25.424V23.376H118.125V25.488C118.125 26.2987 117.906 26.9227 117.469 27.36C117.042 27.7867 116.445 28 115.677 28H114.125C113.986 28 113.896 27.9467 113.853 27.84C113.8 27.7227 113.773 27.552 113.773 27.328C113.773 27.072 113.8 26.8853 113.853 26.768C113.896 26.6507 113.986 26.592 114.125 26.592H115.581ZM117.677 21.408H116.109V20.032H117.677V21.408Z" fill="#999BB3"/>
<path d="M16.513 54.9565C16.5478 54.7536 16.6319 54.4899 16.7652 54.1652C16.8986 53.8406 17.0638 53.487 17.2609 53.1043C17.458 52.7159 17.6754 52.3217 17.913 51.9217C18.1565 51.5159 18.4 51.1333 18.6435 50.7739C18.8928 50.4087 19.1333 50.087 19.3652 49.8087C19.5971 49.5304 19.8029 49.3246 19.9826 49.1913C19.6232 49.1159 19.2899 48.9826 18.9826 48.7913C18.6754 48.6 18.4058 48.3652 18.1739 48.087C17.942 47.8029 17.7594 47.4841 17.6261 47.1304C17.4986 46.7768 17.4348 46.4029 17.4348 46.0087C17.4348 45.4116 17.5652 44.8609 17.8261 44.3565C18.0928 43.8522 18.4406 43.4174 18.8696 43.0522C19.3043 42.687 19.8 42.4029 20.3565 42.2C20.913 41.9913 21.4841 41.887 22.0696 41.887C22.5391 41.887 23.0116 41.9681 23.487 42.1304C23.9623 42.287 24.4609 42.513 24.9826 42.8087L23.7739 44.8087C23.5942 44.7275 23.4232 44.6667 23.2609 44.6261C23.1043 44.5797 22.9507 44.5478 22.8 44.5304C22.6551 44.513 22.513 44.5043 22.3739 44.5043C22.2348 44.4986 22.0986 44.4957 21.9652 44.4957C21.7739 44.4957 21.5536 44.5275 21.3043 44.5913C21.0551 44.6493 20.8203 44.7391 20.6 44.8609C20.3797 44.9826 20.1942 45.1362 20.0435 45.3217C19.8928 45.5072 19.8174 45.7246 19.8174 45.9739C19.8174 46.1594 19.8696 46.3101 19.9739 46.4261C20.0783 46.542 20.2058 46.6319 20.3565 46.6957C20.513 46.7594 20.6783 46.8 20.8522 46.8174C21.0261 46.8348 21.1826 46.8377 21.3217 46.8261C21.5826 46.8319 21.858 46.8145 22.1478 46.7739C22.4377 46.7275 22.7362 46.6696 23.0435 46.6C23.3507 46.5304 23.6609 46.4522 23.9739 46.3652C24.287 46.2725 24.5971 46.1826 24.9043 46.0957L25.8522 48.3913C25.0174 48.7101 24.2783 49.0899 23.6348 49.5304C22.9913 49.971 22.4261 50.4377 21.9391 50.9304C21.458 51.4174 21.0464 51.9101 20.7043 52.4087C20.3681 52.9072 20.087 53.3768 19.8609 53.8174C19.6348 54.2522 19.4522 54.6406 19.313 54.9826C19.1797 55.3188 19.0783 55.571 19.0087 55.7391L16.513 54.9565ZM33.2257 49.4696C32.8083 49.4696 32.3996 49.4319 31.9996 49.3565C31.5996 49.2754 31.217 49.1449 30.8518 48.9652C30.9213 49.5913 30.9764 50.1942 31.017 50.7739C31.0576 51.3536 31.0894 51.9188 31.1126 52.4696C31.1358 53.0145 31.1503 53.5478 31.1561 54.0696C31.1619 54.5855 31.1648 55.0986 31.1648 55.6087H28.4952C28.4952 54.4377 28.4721 53.2812 28.4257 52.1391C28.3793 50.9913 28.2808 49.8899 28.13 48.8348C27.9851 47.7797 27.7706 46.7884 27.4865 45.8609C27.2083 44.9275 26.8315 44.0899 26.3561 43.3478L28.6083 41.9304C28.7938 42.2435 28.9677 42.5362 29.13 42.8087C29.2923 43.0812 29.4344 43.3565 29.5561 43.6348C29.7648 43.3217 30.0112 43.0522 30.2952 42.8261C30.5793 42.5942 30.8837 42.4029 31.2083 42.2522C31.5387 42.1014 31.8837 41.9884 32.2431 41.913C32.6025 41.8377 32.9619 41.8 33.3213 41.8C33.5706 41.8 33.8199 41.8174 34.0692 41.8522C34.3242 41.887 34.5793 41.9478 34.8344 42.0348C35.0894 42.1217 35.3416 42.2377 35.5909 42.3826C35.846 42.5275 36.0952 42.7101 36.3387 42.9304L34.9474 45.1217C34.9474 45.1159 34.8952 45.0812 34.7909 45.0174C34.6923 44.9478 34.5503 44.8725 34.3648 44.7913C34.1851 44.7101 33.9706 44.6377 33.7213 44.5739C33.4721 44.5043 33.1996 44.4696 32.9039 44.4696C32.6547 44.4696 32.4025 44.5159 32.1474 44.6087C31.8923 44.7014 31.6634 44.8203 31.4605 44.9652C31.2576 45.1043 31.0952 45.2609 30.9735 45.4348C30.8576 45.6087 30.8141 45.7739 30.8431 45.9304V45.9217C30.8779 46.1072 30.9793 46.258 31.1474 46.3739C31.3213 46.4899 31.5242 46.5826 31.7561 46.6522C31.9938 46.7217 32.2402 46.771 32.4952 46.8C32.7503 46.8232 32.9822 46.8348 33.1909 46.8348C33.3938 46.8348 33.6141 46.8203 33.8518 46.7913C34.0894 46.7565 34.33 46.7072 34.5735 46.6435C34.8228 46.5797 35.0663 46.5014 35.3039 46.4087C35.5416 46.3101 35.7619 46.1971 35.9648 46.0696L37.0865 48.1565C36.4025 48.6551 35.7358 49 35.0865 49.1913C34.4431 49.3768 33.8228 49.4696 33.2257 49.4696ZM38.5023 53.4261C38.5023 52.9449 38.6646 52.5536 38.9893 52.2522C39.3139 51.9507 39.7226 51.8 40.2154 51.8C40.7139 51.8 41.1255 51.9507 41.4501 52.2522C41.7748 52.5536 41.9371 52.9449 41.9371 53.4261C41.9371 53.9014 41.7748 54.2899 41.4501 54.5913C41.1313 54.887 40.7197 55.0348 40.2154 55.0348C39.7168 55.0348 39.3052 54.887 38.9806 54.5913C38.6617 54.2899 38.5023 53.9014 38.5023 53.4261ZM55.1353 41.6783C55.2049 42.0493 55.2629 42.3681 55.3092 42.6348C55.3556 42.8957 55.3904 43.1275 55.4136 43.3304C55.4426 43.5275 55.4629 43.7072 55.4745 43.8696C55.4861 44.0319 55.4918 44.2 55.4918 44.3739C55.4918 44.8203 55.4339 45.2638 55.3179 45.7043C55.202 46.1449 55.0194 46.542 54.7701 46.8957C54.5266 47.2435 54.2136 47.5275 53.831 47.7478C53.4542 47.9681 53.0049 48.0783 52.4832 48.0783C52.3382 48.0783 52.1788 48.0667 52.0049 48.0435C51.8368 48.0203 51.6629 47.9797 51.4832 47.9217C51.3034 47.8638 51.1237 47.7855 50.944 47.687C50.7643 47.5826 50.5933 47.4522 50.431 47.2957C50.1353 47.6145 49.8107 47.8522 49.4571 48.0087C49.1092 48.1594 48.6918 48.2348 48.2049 48.2348C48.0947 48.2348 47.9875 48.2348 47.8832 48.2348C47.7846 48.229 47.6861 48.2174 47.5875 48.2C47.6513 48.7449 47.7034 49.3362 47.744 49.9739C47.7846 50.6116 47.8136 51.2609 47.831 51.9217C47.8542 52.5826 47.8687 53.2377 47.8745 53.887C47.8861 54.5304 47.8918 55.1304 47.8918 55.687H45.1962C45.202 55.571 45.2078 55.4174 45.2136 55.2261C45.2194 55.0406 45.2223 54.8464 45.2223 54.6435C45.2281 54.4406 45.231 54.2464 45.231 54.0609C45.2368 53.8696 45.2397 53.7159 45.2397 53.6C45.2397 53.0899 45.231 52.5507 45.2136 51.9826C45.202 51.4087 45.173 50.8232 45.1266 50.2261C45.0803 49.6232 45.0136 49.0145 44.9266 48.4C44.8455 47.7855 44.7353 47.1797 44.5962 46.5826C44.4629 45.9855 44.2947 45.4087 44.0918 44.8522C43.8889 44.2957 43.6484 43.771 43.3701 43.2783L45.744 41.8957C45.831 42.029 45.9121 42.1652 45.9875 42.3043C46.0629 42.4377 46.1411 42.5913 46.2223 42.7652C46.3092 42.9333 46.402 43.1275 46.5005 43.3478C46.5991 43.5623 46.7121 43.8145 46.8397 44.1043C46.9672 44.4 47.0745 44.6435 47.1614 44.8348C47.2542 45.0203 47.3469 45.1681 47.4397 45.2783C47.5324 45.3884 47.6368 45.4667 47.7527 45.513C47.8687 45.5536 48.0194 45.5739 48.2049 45.5739C48.3672 45.5739 48.4976 45.5333 48.5962 45.4522C48.7005 45.371 48.7817 45.2638 48.8397 45.1304C48.9034 44.9913 48.9469 44.8319 48.9701 44.6522C48.9933 44.4725 49.0049 44.287 49.0049 44.0957C49.0049 43.8812 48.9933 43.6522 48.9701 43.4087C48.9469 43.1652 48.9179 42.8638 48.8832 42.5043L51.3353 42.1565C51.3527 42.3188 51.373 42.513 51.3962 42.7391C51.4194 42.9594 51.4484 43.1913 51.4832 43.4348C51.5179 43.6725 51.5614 43.9101 51.6136 44.1478C51.6658 44.3855 51.7295 44.5971 51.8049 44.7826C51.8861 44.9681 51.9817 45.1188 52.0918 45.2348C52.202 45.3507 52.3324 45.4087 52.4832 45.4087C52.5875 45.4087 52.6716 45.3739 52.7353 45.3043C52.7991 45.229 52.8484 45.1391 52.8832 45.0348C52.9179 44.9246 52.9411 44.8116 52.9527 44.6957C52.9701 44.5739 52.9788 44.4638 52.9788 44.3652C52.9788 44.2841 52.9759 44.1971 52.9701 44.1043C52.9643 44.0116 52.9498 43.887 52.9266 43.7304C52.9034 43.5739 52.8716 43.3739 52.831 43.1304C52.7904 42.8812 52.7353 42.5623 52.6658 42.1739L55.1353 41.6783Z" fill="#535879"/>
<path d="M60.42 43.4C60.42 42.9467 60.5567 42.5867 60.83 42.32C61.1033 42.0467 61.4533 41.91 61.88 41.91C62.3067 41.91 62.6567 42.0467 62.93 42.32C63.2033 42.5867 63.34 42.9467 63.34 43.4C63.34 43.86 63.2033 44.2267 62.93 44.5C62.6567 44.7667 62.3067 44.9 61.88 44.9C61.4533 44.9 61.1033 44.7667 60.83 44.5C60.5567 44.2267 60.42 43.86 60.42 43.4ZM66.26 42.02L62.21 49H61.31L65.36 42.02H66.26ZM61.88 42.47C61.6533 42.47 61.4733 42.55 61.34 42.71C61.2133 42.8633 61.15 43.0933 61.15 43.4C61.15 43.7067 61.2133 43.94 61.34 44.1C61.4733 44.26 61.6533 44.34 61.88 44.34C62.1067 44.34 62.2867 44.26 62.42 44.1C62.5533 43.9333 62.62 43.7 62.62 43.4C62.62 43.0933 62.5533 42.8633 62.42 42.71C62.2867 42.55 62.1067 42.47 61.88 42.47ZM64.25 47.62C64.25 47.16 64.3867 46.7967 64.66 46.53C64.9333 46.2567 65.2833 46.12 65.71 46.12C66.1367 46.12 66.4833 46.2567 66.75 46.53C67.0233 46.7967 67.16 47.16 67.16 47.62C67.16 48.0733 67.0233 48.4367 66.75 48.71C66.4833 48.9833 66.1367 49.12 65.71 49.12C65.2833 49.12 64.9333 48.9867 64.66 48.72C64.3867 48.4467 64.25 48.08 64.25 47.62ZM65.7 46.69C65.4733 46.69 65.2933 46.77 65.16 46.93C65.0267 47.0833 64.96 47.3133 64.96 47.62C64.96 47.92 65.0267 48.15 65.16 48.31C65.2933 48.4633 65.4733 48.54 65.7 48.54C65.9267 48.54 66.1067 48.4633 66.24 48.31C66.3733 48.15 66.44 47.92 66.44 47.62C66.44 47.3133 66.3733 47.0833 66.24 46.93C66.1067 46.77 65.9267 46.69 65.7 46.69Z" fill="#535879"/>
<path d="M74.2696 49.187H76.2522V50.0391H74.2696V52.287H73.3652V50.0391H71.3826V49.187H73.3652V47.113H74.2696V49.187ZM88.385 46.5957C88.4314 46.8478 88.4647 47.0797 88.485 47.2913C88.5053 47.5 88.5198 47.6928 88.5285 47.8696C88.5314 47.9188 88.5329 47.9681 88.5329 48.0174C88.5329 48.1971 88.5126 48.3768 88.472 48.5565C88.4343 48.7362 88.3647 48.9014 88.2633 49.0522C88.1618 49.2029 88.0285 49.3217 87.8633 49.4087C87.701 49.4928 87.5053 49.5348 87.2763 49.5348C87.2039 49.5348 87.1271 49.5275 87.0459 49.513C86.9647 49.4957 86.8821 49.4681 86.7981 49.4304C86.714 49.3899 86.6314 49.3348 86.5503 49.2652C86.4691 49.1957 86.3923 49.1087 86.3198 49.0043C86.259 49.1203 86.1865 49.2174 86.1024 49.2957C86.0213 49.3739 85.9329 49.4362 85.8372 49.4826C85.7416 49.529 85.6401 49.5623 85.5329 49.5826C85.4256 49.6029 85.3155 49.613 85.2024 49.613C85.0923 49.613 84.9966 49.6072 84.9155 49.5957C84.8343 49.5812 84.7488 49.558 84.659 49.5261C84.7546 50.1174 84.8111 50.7101 84.8285 51.3043C84.8488 51.8986 84.859 52.4913 84.859 53.0826H83.9937C83.9995 52.9609 84.0024 52.8362 84.0024 52.7087C84.0053 52.5812 84.0068 52.4594 84.0068 52.3435C84.0068 51.5 83.9503 50.7014 83.8372 49.9478C83.7242 49.1942 83.5503 48.5159 83.3155 47.913C83.2488 47.7536 83.1865 47.6159 83.1285 47.5C83.0734 47.3841 83.0126 47.2739 82.9459 47.1696L83.7329 46.7043C83.7532 46.7391 83.7763 46.7826 83.8024 46.8348C83.8285 46.8841 83.8561 46.9377 83.885 46.9957C83.914 47.0536 83.943 47.113 83.972 47.1739C84.0039 47.2348 84.0343 47.2942 84.0633 47.3522L84.2676 47.7913C84.3459 47.971 84.414 48.1217 84.472 48.2435C84.53 48.3652 84.5908 48.4638 84.6546 48.5391C84.7213 48.6145 84.7966 48.6696 84.8807 48.7043C84.9647 48.7362 85.072 48.7522 85.2024 48.7522C85.3387 48.7522 85.4474 48.7087 85.5285 48.6217C85.6126 48.5319 85.6778 48.4246 85.7242 48.3C85.7705 48.1725 85.801 48.042 85.8155 47.9087C85.8329 47.7725 85.843 47.6565 85.8459 47.5609C85.8459 47.529 85.8445 47.4739 85.8416 47.3957C85.8387 47.3145 85.8343 47.2304 85.8285 47.1435C85.8256 47.0565 85.8213 46.9768 85.8155 46.9043C85.8097 46.829 85.8053 46.7826 85.8024 46.7652L86.6633 46.6609C86.6662 46.7507 86.672 46.8362 86.6807 46.9174C86.6923 46.9957 86.701 47.0725 86.7068 47.1478C86.7126 47.2087 86.7198 47.2884 86.7285 47.387C86.7401 47.4855 86.7546 47.5913 86.772 47.7043C86.7923 47.8174 86.8155 47.9319 86.8416 48.0478C86.8705 48.1609 86.9053 48.2638 86.9459 48.3565C86.9865 48.4493 87.0329 48.5246 87.085 48.5826C87.1401 48.6406 87.2039 48.6696 87.2763 48.6696C87.372 48.6696 87.4459 48.6406 87.4981 48.5826C87.5532 48.5217 87.5923 48.4493 87.6155 48.3652C87.6416 48.2812 87.6575 48.1942 87.6633 48.1043C87.6691 48.0116 87.672 47.9319 87.672 47.8652C87.672 47.7348 87.6662 47.5812 87.6546 47.4043C87.6459 47.2246 87.6184 47.0087 87.572 46.7565L88.385 46.5957ZM89.7709 52.4609C89.7709 52.2928 89.8187 52.158 89.9144 52.0565C90.0158 51.9493 90.1593 51.8957 90.3448 51.8957C90.5332 51.8957 90.6796 51.9493 90.7839 52.0565C90.8825 52.158 90.9318 52.2928 90.9318 52.4609C90.9318 52.6174 90.8825 52.7449 90.7839 52.8435C90.6767 52.9478 90.5303 53 90.3448 53C90.1593 53 90.0158 52.9478 89.9144 52.8435C89.8187 52.7478 89.7709 52.6203 89.7709 52.4609ZM96.0855 46.6435C96.0855 46.6493 96.0899 46.6783 96.0986 46.7304C96.1073 46.7797 96.116 46.8464 96.1247 46.9304C96.1334 47.0116 96.1406 47.1043 96.1464 47.2087C96.1493 47.2812 96.1507 47.3551 96.1507 47.4304V47.5435C96.1392 48.213 95.9812 48.7261 95.6768 49.0826V49.0783C95.3812 49.4348 94.9797 49.613 94.4725 49.613C94.3334 49.613 94.2073 49.6043 94.0942 49.587C93.9841 49.5667 93.8739 49.5348 93.7638 49.4913L93.7986 49.7304C93.8334 50.0029 93.8609 50.2841 93.8812 50.5739C93.9044 50.8609 93.9218 51.1493 93.9334 51.4391C93.9478 51.7261 93.9565 52.0101 93.9594 52.2913C93.9652 52.5696 93.9681 52.8348 93.9681 53.087H93.1029C93.1029 52.6261 93.0986 52.1681 93.0899 51.713C93.0812 51.2551 93.058 50.8116 93.0203 50.3826C92.9826 49.9507 92.9261 49.5391 92.8507 49.1478C92.7783 48.7536 92.6768 48.3913 92.5464 48.0609C92.4855 47.9043 92.4203 47.7551 92.3507 47.613C92.2812 47.471 92.2029 47.3246 92.116 47.1739L92.8421 46.713C92.8884 46.7884 92.9305 46.8652 92.9681 46.9435C93.0087 47.0188 93.0478 47.0986 93.0855 47.1826C93.1261 47.2638 93.1667 47.3507 93.2073 47.4435C93.2478 47.5362 93.2928 47.6362 93.3421 47.7435C93.4087 47.8971 93.4739 48.0362 93.5377 48.1609C93.6044 48.2826 93.6797 48.3884 93.7638 48.4783C93.8507 48.5681 93.9493 48.6377 94.0594 48.687C94.1725 48.7333 94.3102 48.7565 94.4725 48.7565C94.7131 48.7565 94.8942 48.6826 95.016 48.5348C95.071 48.471 95.116 48.3971 95.1507 48.313C95.1855 48.2261 95.2131 48.1348 95.2334 48.0391C95.2565 47.9435 95.2725 47.8449 95.2812 47.7435C95.2899 47.642 95.2942 47.5435 95.2942 47.4478C95.2942 47.3232 95.287 47.2029 95.2725 47.087C95.2609 46.971 95.2478 46.8754 95.2334 46.8L96.0855 46.6435Z" fill="#999BB3"/>
<path d="M33.8476 84.2982C25.5244 84.2982 19.7622 96 14 96V100H119V67C104.588 67 99.7927 85.3158 93.3903 85.3158C86.9878 85.3158 87.6281 77.6842 81.8659 77.6842C76.1037 77.6842 77.3842 83.2807 67.1403 83.2807C58.1768 83.2807 57.5366 93.4561 51.1342 93.4561C44.7317 93.4561 42.1707 84.2982 33.8476 84.2982Z" fill="url(#paint0_linear)"/>
<path d="M14 96C19.7622 96 25.5244 84.2982 33.8476 84.2982C42.1707 84.2982 44.7317 93.4561 51.1341 93.4561C57.5366 93.4561 58.1768 83.2807 67.1402 83.2807C77.3842 83.2807 76.1037 77.6842 81.8659 77.6842C87.6281 77.6842 86.9878 85.3158 93.3902 85.3158C99.7927 85.3158 104.588 67 119 67" stroke="#FF4B23" stroke-linecap="round" stroke-linejoin="round"/>
<defs>
<linearGradient id="paint0_linear" x1="63.7938" y1="73.5" x2="64.635" y2="97.0141" gradientUnits="userSpaceOnUse">
<stop stop-color="#FFEBD8"/>
<stop offset="1" stop-color="#FFF6D8" stop-opacity="0"/>
</linearGradient>
</defs>
</svg>
