<svg width="20" height="20" viewBox="0 0 20 20" fill="none" xmlns="http://www.w3.org/2000/svg">
<path d="M7 3H5C3.89543 3 3 3.89543 3 5V7C3 8.10457 3.89543 9 5 9H7C8.10457 9 9 8.10457 9 7V5C9 3.89543 8.10457 3 7 3Z" stroke="#B8B9CC" stroke-width="2" stroke-linecap="round" stroke-linejoin="round"/>
<path d="M16 3H14C12.8954 3 12 3.89543 12 5V7C12 8.10457 12.8954 9 14 9H16C17.1046 9 18 8.10457 18 7V5C18 3.89543 17.1046 3 16 3Z" stroke="#B8B9CC" stroke-width="2" stroke-linecap="round" stroke-linejoin="round"/>
<path d="M16 12H14C12.8954 12 12 12.8954 12 14V16C12 17.1046 12.8954 18 14 18H16C17.1046 18 18 17.1046 18 16V14C18 12.8954 17.1046 12 16 12Z" stroke="#B8B9CC" stroke-width="2" stroke-linecap="round" stroke-linejoin="round"/>
<path d="M7 12H5C3.89543 12 3 12.8954 3 14V16C3 17.1046 3.89543 18 5 18H7C8.10457 18 9 17.1046 9 16V14C9 12.8954 8.10457 12 7 12Z" stroke="#B8B9CC" stroke-width="2" stroke-linecap="round" stroke-linejoin="round"/>
</svg>
