<svg width="40" height="40" viewBox="0 0 40 40" fill="none" xmlns="http://www.w3.org/2000/svg">
<rect width="40" height="40" rx="16" fill="#FEE8D3"/>
<path d="M28 18.3636C28 24.0909 20.5 29 20.5 29C20.5 29 13 24.0909 13 18.3636C13 16.4107 13.7902 14.5377 15.1967 13.1568C16.6032 11.7758 18.5109 11 20.5 11C22.4891 11 24.3968 11.7758 25.8033 13.1568C27.2098 14.5377 28 16.4107 28 18.3636Z" stroke="#FF4B23" stroke-width="2" stroke-linecap="round" stroke-linejoin="round"/>
<path d="M20.5 21C21.8807 21 23 19.8807 23 18.5C23 17.1193 21.8807 16 20.5 16C19.1193 16 18 17.1193 18 18.5C18 19.8807 19.1193 21 20.5 21Z" stroke="#FF4B23" stroke-width="2" stroke-linecap="round" stroke-linejoin="round"/>
</svg>
