<svg width="47" height="58" viewBox="0 0 47 58" fill="none" xmlns="http://www.w3.org/2000/svg">
<g filter="url(#filter0_b)">
<mask id="path-1-inside-1" fill="white">
<path fill-rule="evenodd" clip-rule="evenodd" d="M8 15.5C8 24.1045 14.8955 31 23.5 31C32.1014 31 39 24.1045 39 15.5C39 6.89547 32.1014 0 23.5 0C14.8955 0 8 6.89547 8 15.5ZM47 47.9626C47 39.9938 36.1745 38 23.5 38C10.7566 38 0 40.0624 0 48.0374C0 56.0062 10.8255 58 23.5 58C36.2434 58 47 55.9376 47 47.9626Z"/>
</mask>
<path fill-rule="evenodd" clip-rule="evenodd" d="M8 15.5C8 24.1045 14.8955 31 23.5 31C32.1014 31 39 24.1045 39 15.5C39 6.89547 32.1014 0 23.5 0C14.8955 0 8 6.89547 8 15.5ZM47 47.9626C47 39.9938 36.1745 38 23.5 38C10.7566 38 0 40.0624 0 48.0374C0 56.0062 10.8255 58 23.5 58C36.2434 58 47 55.9376 47 47.9626Z" fill="#FF5555" fill-opacity="0.3"/>
<path d="M23.5 32C14.3432 32 7 24.6568 7 15.5H9C9 23.5522 15.4478 30 23.5 30V32ZM40 15.5C40 24.6569 32.6536 32 23.5 32V30C31.5493 30 38 23.5521 38 15.5L40 15.5ZM23.5 -1C32.6536 -1 40 6.34306 40 15.5L38 15.5C38 7.44789 31.5493 1 23.5 1V-1ZM7 15.5C7 6.34319 14.3432 -1 23.5 -1V1C15.4478 1 9 7.44776 9 15.5H7ZM23.5 37C29.8598 37 35.8752 37.4963 40.3319 39.0486C42.5666 39.827 44.4807 40.8948 45.8436 42.364C47.228 43.8563 48 45.718 48 47.9626H46C46 46.2228 45.4188 44.8469 44.3774 43.7242C43.3144 42.5783 41.7299 41.6535 39.674 40.9373C35.5493 39.5006 29.8148 39 23.5 39V37ZM-1 48.0374C-1 45.7935 -0.23394 43.9278 1.14332 42.4282C2.49979 40.9512 4.40688 39.8733 6.63819 39.0852C11.0876 37.5136 17.1042 37 23.5 37V39C17.1524 39 11.419 39.5176 7.30428 40.971C5.25351 41.6954 3.67498 42.6284 2.61636 43.781C1.57852 44.9111 1 46.2938 1 48.0374H-1ZM23.5 59C17.1402 59 11.1248 58.5037 6.66811 56.9514C4.43336 56.173 2.51928 55.1052 1.15639 53.636C-0.227974 52.1437 -1 50.282 -1 48.0374H1C1 49.7772 1.58115 51.1531 2.62265 52.2758C3.6856 53.4217 5.27005 54.3465 7.32598 55.0627C11.4507 56.4994 17.1852 57 23.5 57V59ZM48 47.9626C48 50.2065 47.2339 52.0722 45.8567 53.5718C44.5002 55.0488 42.5931 56.1267 40.3618 56.9148C35.9124 58.4864 29.8958 59 23.5 59V57C29.8476 57 35.581 56.4824 39.6957 55.029C41.7465 54.3046 43.325 53.3716 44.3836 52.219C45.4215 51.0889 46 49.7062 46 47.9626H48Z" fill="url(#paint0_linear)" mask="url(#path-1-inside-1)"/>
</g>
<g filter="url(#filter1_bd)">
<path d="M18.7198 22.7661C17.8129 22.0771 17.5966 20.7507 18.19 19.7452C18.5692 19.245 19.1098 18.8833 19.7053 18.7944C20.3009 18.7055 20.9048 18.8627 21.3941 19.2439L21.4642 19.2893C23.0451 20.3131 25.1191 20.202 26.6284 19.0066C27.5987 18.2113 28.9708 18.3541 29.7096 19.3071C30.4333 20.2842 30.2546 21.6937 29.3175 22.4766C26.2626 24.8744 22.1123 25.0646 18.989 22.9404L18.7198 22.7661Z" fill="url(#paint1_linear)"/>
</g>
<defs>
<filter id="filter0_b" x="-14" y="-14" width="75" height="86" filterUnits="userSpaceOnUse" color-interpolation-filters="sRGB">
<feFlood flood-opacity="0" result="BackgroundImageFix"/>
<feGaussianBlur in="BackgroundImage" stdDeviation="7"/>
<feComposite in2="SourceAlpha" operator="in" result="effect1_backgroundBlur"/>
<feBlend mode="normal" in="SourceGraphic" in2="effect1_backgroundBlur" result="shape"/>
</filter>
<filter id="filter1_bd" x="13.8577" y="14.4907" width="25.2969" height="18.9223" filterUnits="userSpaceOnUse" color-interpolation-filters="sRGB">
<feFlood flood-opacity="0" result="BackgroundImageFix"/>
<feGaussianBlur in="BackgroundImage" stdDeviation="2"/>
<feComposite in2="SourceAlpha" operator="in" result="effect1_backgroundBlur"/>
<feColorMatrix in="SourceAlpha" type="matrix" values="0 0 0 0 0 0 0 0 0 0 0 0 0 0 0 0 0 0 127 0"/>
<feOffset dx="3" dy="3"/>
<feGaussianBlur stdDeviation="3"/>
<feColorMatrix type="matrix" values="0 0 0 0 1 0 0 0 0 0.137255 0 0 0 0 0.137255 0 0 0 0.5 0"/>
<feBlend mode="normal" in2="effect1_backgroundBlur" result="effect2_dropShadow"/>
<feBlend mode="normal" in="SourceGraphic" in2="effect2_dropShadow" result="shape"/>
</filter>
<linearGradient id="paint0_linear" x1="29.523" y1="9.54629" x2="-1.86196" y2="55.3858" gradientUnits="userSpaceOnUse">
<stop stop-color="white" stop-opacity="0.25"/>
<stop offset="1" stop-color="white" stop-opacity="0"/>
</linearGradient>
<linearGradient id="paint1_linear" x1="35.2188" y1="16.7584" x2="20.3225" y2="3.77887" gradientUnits="userSpaceOnUse">
<stop stop-color="white"/>
<stop offset="1" stop-color="white" stop-opacity="0.2"/>
</linearGradient>
</defs>
</svg>
