<svg width="40" height="40" viewBox="0 0 40 40" fill="none" xmlns="http://www.w3.org/2000/svg">
<rect width="40" height="40" rx="16" fill="#FEE8D3"/>
<path d="M28.9995 24.2304V26.4885C29.0004 26.6981 28.9517 26.9056 28.8563 27.0977C28.7609 27.2898 28.6211 27.4622 28.4457 27.6039C28.2702 27.7456 28.0632 27.8535 27.8376 27.9207C27.6121 27.9878 27.3732 28.0128 27.1361 27.9939C24.5059 27.7422 21.9794 26.9508 19.7596 25.6831C17.6943 24.5274 15.9434 22.9855 14.631 21.1669C13.1865 19.2032 12.2875 16.9676 12.0069 14.641C11.9856 14.4328 12.0137 14.223 12.0894 14.025C12.1652 13.8269 12.2869 13.6449 12.4469 13.4905C12.6069 13.3362 12.8017 13.2129 13.0188 13.1284C13.2359 13.044 13.4706 13.0003 13.7079 13.0001H16.2722C16.687 12.9965 17.0891 13.1258 17.4037 13.364C17.7182 13.6022 17.9236 13.933 17.9817 14.2947C18.0899 15.0174 18.2906 15.7269 18.58 16.4098C18.695 16.6792 18.7199 16.972 18.6517 17.2535C18.5836 17.535 18.4252 17.7934 18.1954 17.998L17.1098 18.9539C18.3266 20.8384 20.0984 22.3986 22.2384 23.4702L23.3239 22.5142C23.5563 22.3118 23.8497 22.1724 24.1694 22.1123C24.489 22.0523 24.8215 22.0742 25.1274 22.1755C25.9029 22.4303 26.7087 22.6071 27.5293 22.7024C27.9445 22.754 28.3237 22.9381 28.5948 23.2199C28.8658 23.5016 29.0099 23.8612 28.9995 24.2304Z" stroke="#FF4B23" stroke-width="2" stroke-linecap="round" stroke-linejoin="round"/>
</svg>
