<svg width="24" height="20" viewBox="0 0 24 20" fill="none" xmlns="http://www.w3.org/2000/svg">
<path d="M22.9705 2.24994C23.0708 1.8462 22.9106 1.42257 22.5683 1.18616C22.226 0.94974 21.7731 0.949917 21.431 1.1866C20.8057 1.61928 20.1263 1.97096 19.4099 2.23326C18.8053 1.71316 18.0822 1.34042 17.2993 1.14829C16.2949 0.901781 15.2376 0.963659 14.2695 1.32608C13.3012 1.68858 12.4664 2.33525 11.8804 3.18196C11.3229 3.98757 11.0168 4.93647 11.0003 5.91154C9.90002 5.81846 8.8252 5.52071 7.83451 5.03161C6.55305 4.39897 5.4531 3.46633 4.63126 2.31849C4.42324 2.02795 4.07599 1.87049 3.72037 1.90544C3.36476 1.94039 3.05481 2.16244 2.90733 2.48792L3.81818 2.90065C2.90733 2.48792 2.90711 2.4884 2.90688 2.48891L2.90634 2.49009L2.90503 2.49302L2.90143 2.50108L2.89052 2.52598C2.88166 2.54643 2.86968 2.57453 2.85507 2.6099C2.82587 2.68061 2.78609 2.78054 2.73962 2.90659C2.64682 3.15837 2.52665 3.51629 2.41089 3.95534C2.18061 4.82868 1.96093 6.04862 2.0238 7.40533C2.0869 8.76698 2.43609 10.2856 3.36161 11.719C4.0241 12.745 4.96162 13.6957 6.24387 14.505C4.92711 15.0659 3.49043 15.3332 2.03898 15.2766C1.57487 15.2585 1.15938 15.5623 1.03595 16.0101C0.912528 16.4579 1.11366 16.9317 1.52151 17.1539C5.88573 19.532 10.7845 19.5558 14.6219 17.5524C18.4859 15.5352 21.1818 11.5085 21.1818 6.02152L21.1818 6.01815C21.1814 5.88778 21.1758 5.75756 21.165 5.62777C22.0364 4.66715 22.6581 3.50811 22.9705 2.24994Z" stroke="#212345" stroke-width="2" stroke-linecap="round" stroke-linejoin="round"/>
</svg>
