<svg width="22" height="22" viewBox="0 0 22 22" fill="none" xmlns="http://www.w3.org/2000/svg">
<path d="M1.64888 7.81367C1.24474 7.96522 0.983448 8.35896 1.00081 8.79022C1.01817 9.22149 1.31027 9.59295 1.72528 9.71152L8.02528 11.5115C8.21144 11.5647 8.40904 11.5627 8.59409 11.5058L12.4783 10.3106L10.9667 14.241C10.8834 14.4575 10.878 14.6962 10.9513 14.9162L12.7513 20.3162C12.8866 20.722 13.2649 20.9968 13.6925 21C14.1202 21.0032 14.5026 20.734 14.6439 20.3304L20.9439 2.33035C21.0721 1.964 20.9767 1.55654 20.6993 1.28512C20.4218 1.01371 20.0123 0.927384 19.6489 1.06367L1.64888 7.81367Z" stroke="#212345" stroke-width="2" stroke-linecap="round" stroke-linejoin="round"/>
</svg>
