<svg width="20" height="20" viewBox="0 0 20 20" fill="none" xmlns="http://www.w3.org/2000/svg">
<path d="M14.95 5.05H14.959M5.5 1H14.5C16.9853 1 19 3.01472 19 5.5V14.5C19 16.9853 16.9853 19 14.5 19H5.5C3.01472 19 1 16.9853 1 14.5V5.5C1 3.01472 3.01472 1 5.5 1ZM13.6 9.43305C13.711 10.1821 13.5831 10.947 13.2343 11.6192C12.8856 12.2913 12.3338 12.8363 11.6574 13.1768C10.9811 13.5172 10.2146 13.6357 9.46696 13.5154C8.71937 13.3951 8.02874 13.0421 7.49331 12.5067C6.95788 11.9713 6.60492 11.2806 6.48462 10.533C6.36432 9.78545 6.48281 9.01896 6.82325 8.34259C7.16368 7.66622 7.70872 7.11442 8.38084 6.76567C9.05296 6.41692 9.81793 6.28898 10.567 6.40005C11.331 6.51335 12.0383 6.86937 12.5845 7.41553C13.1306 7.96169 13.4867 8.66902 13.6 9.43305Z" stroke="#212345" stroke-width="2" stroke-linecap="round" stroke-linejoin="round"/>
</svg>
