<svg width="22" height="22" viewBox="0 0 22 22" fill="none" xmlns="http://www.w3.org/2000/svg">
<path d="M11.0045 5.36173C9.88906 5.36173 8.79867 5.6925 7.87121 6.3122C6.94376 6.93191 6.22089 7.81272 5.79403 8.84325C5.36717 9.87379 5.25549 11.0078 5.4731 12.1018C5.69071 13.1958 6.22785 14.2007 7.01658 14.9894C7.80532 15.7782 8.81023 16.3153 9.90424 16.5329C10.9982 16.7505 12.1322 16.6388 13.1627 16.212C14.1933 15.7851 15.0741 15.0622 15.6938 14.1348C16.3135 13.2073 16.6443 12.1169 16.6443 11.0015C16.6455 10.2605 16.5004 9.52663 16.2174 8.84185C15.9344 8.15707 15.519 7.53487 14.9951 7.01094C14.4711 6.487 13.8489 6.07162 13.1641 5.78862C12.4794 5.50561 11.7455 5.36055 11.0045 5.36173V5.36173ZM11.0045 14.663C10.2793 14.663 9.57046 14.448 8.9675 14.0451C8.36455 13.6422 7.8946 13.0696 7.6171 12.3996C7.33959 11.7296 7.26698 10.9924 7.40845 10.2812C7.54992 9.56997 7.89912 8.91666 8.41189 8.40389C8.92466 7.89112 9.57797 7.54192 10.2892 7.40045C11.0004 7.25898 11.7376 7.33159 12.4076 7.6091C13.0776 7.8866 13.6502 8.35655 14.0531 8.9595C14.456 9.56245 14.671 10.2713 14.671 10.9965C14.6692 11.9683 14.2823 12.8999 13.5951 13.5871C12.9079 14.2743 11.9763 14.6611 11.0045 14.663V14.663ZM18.1905 5.1257C18.1907 5.38573 18.1138 5.63999 17.9695 5.85633C17.8253 6.07268 17.6201 6.24141 17.38 6.34119C17.1399 6.44097 16.8755 6.46734 16.6204 6.41694C16.3653 6.36655 16.1309 6.24167 15.9467 6.05808C15.7626 5.87449 15.637 5.64043 15.5858 5.38548C15.5347 5.13053 15.5602 4.86614 15.6593 4.62571C15.7583 4.38528 15.9264 4.17961 16.1423 4.03469C16.3582 3.88978 16.6123 3.81211 16.8723 3.81152C17.0451 3.81112 17.2163 3.84487 17.3761 3.91083C17.5358 3.97678 17.681 4.07364 17.8032 4.19584C17.9254 4.31805 18.0222 4.46319 18.0882 4.62293C18.1541 4.78268 18.1879 4.95388 18.1875 5.1267L18.1905 5.1257ZM21.923 6.46188C21.9593 4.7515 21.3208 3.09558 20.1457 1.85225C18.8999 0.681127 17.2457 0.0433363 15.5361 0.0750102C13.7199 -0.0250034 8.27613 -0.0250034 6.45988 0.0750102C4.75139 0.0418223 3.09769 0.678246 1.85225 1.84825C0.678217 3.09386 0.0400358 4.75054 0.0750102 6.46188C-0.0250034 8.27813 -0.0250034 13.7219 0.0750102 15.5381C0.0387184 17.2485 0.677159 18.9044 1.85225 20.1477C3.09854 21.3181 4.75247 21.9558 6.46188 21.925C8.27813 22.025 13.7219 22.025 15.5381 21.925C17.2485 21.9613 18.9044 21.3228 20.1477 20.1477C21.3189 18.9019 21.9567 17.2477 21.925 15.5381C22.025 13.7219 22.025 8.28313 21.925 6.46688L21.923 6.46188ZM19.5767 17.4824C19.39 17.9557 19.108 18.3855 18.7483 18.7453C18.3885 19.105 17.9587 19.387 17.4854 19.5737C16.0372 20.1477 12.6017 20.0157 11.0015 20.0157C9.40128 20.0157 5.96081 20.1437 4.51762 19.5737C4.04434 19.387 3.61449 19.105 3.25474 18.7453C2.89498 18.3855 2.61302 17.9557 2.42633 17.4824C1.85225 16.0342 1.98427 12.5987 1.98427 10.9985C1.98427 9.39828 1.85625 5.95781 2.42633 4.51462C2.6129 4.04115 2.89482 3.61111 3.25457 3.25118C3.61433 2.89125 4.04424 2.60913 4.51762 2.42233C5.96581 1.84825 9.40428 1.98027 11.0045 1.98027C12.6047 1.98027 16.0452 1.85225 17.4884 2.42233C17.9617 2.60901 18.3915 2.89098 18.7513 3.25073C19.111 3.61049 19.393 4.04034 19.5797 4.51362C20.1537 5.96181 20.0217 9.39728 20.0217 10.9975C20.0217 12.5977 20.1517 16.0392 19.5767 17.4824Z" fill="#B8B9CC"/>
</svg>
