<svg width="24" height="23" viewBox="0 0 24 23" fill="none" xmlns="http://www.w3.org/2000/svg">
<path d="M16.5 8C18.2239 8 19.8772 8.68077 21.0962 9.89254C22.3152 11.1043 23 12.7478 23 14.4615V22H18.6667V14.4615C18.6667 13.8903 18.4384 13.3425 18.0321 12.9385C17.6257 12.5346 17.0746 12.3077 16.5 12.3077C15.9254 12.3077 15.3743 12.5346 14.9679 12.9385C14.5616 13.3425 14.3333 13.8903 14.3333 14.4615V22H10V14.4615C10 12.7478 10.6848 11.1043 11.9038 9.89254C13.1228 8.68077 14.7761 8 16.5 8V8Z" stroke="#B8B9CC" stroke-width="2" stroke-linecap="round" stroke-linejoin="round"/>
<path d="M1 9H5V22H1V9Z" stroke="#B8B9CC" stroke-width="2" stroke-linecap="round" stroke-linejoin="round"/>
<path d="M3 5C4.10457 5 5 4.10457 5 3C5 1.89543 4.10457 1 3 1C1.89543 1 1 1.89543 1 3C1 4.10457 1.89543 5 3 5Z" stroke="#B8B9CC" stroke-width="2" stroke-linecap="round" stroke-linejoin="round"/>
</svg>
