<svg width="24" height="20" viewBox="0 0 24 20" fill="none" xmlns="http://www.w3.org/2000/svg">
<path d="M22.9372 2.63919L21.9604 2.4251L21.96 2.42675L22.9372 2.63919ZM19.6165 17.9136L20.5907 18.1396L20.5937 18.1261L19.6165 17.9136ZM17.7841 18.7516L17.2008 19.5639C17.2343 19.5879 17.2692 19.6099 17.3054 19.6296L17.7841 18.7516ZM12.7251 15.1186L13.3084 14.3064C12.8805 13.9991 12.2875 14.0765 11.9528 14.4833L12.7251 15.1186ZM9.62944 12.867L8.98724 12.1005C8.79568 12.261 8.67115 12.4874 8.63818 12.7351L9.62944 12.867ZM19.6165 4.5L20.2587 5.26654C20.6794 4.91406 20.7374 4.28834 20.3886 3.86454C20.0399 3.44074 19.4147 3.37727 18.9878 3.72233L19.6165 4.5ZM9.26636 12.867L8.90788 13.8006C9.24116 13.9285 9.61739 13.8691 9.89503 13.6447L9.26636 12.867ZM1.79481 9.99788L2.1533 9.06435C2.13125 9.05588 2.10891 9.0482 2.08632 9.04132L1.79481 9.99788ZM2.02086 8.43112L1.66904 7.49504L1.66418 7.4969L2.02086 8.43112ZM21.5379 1.09584L21.194 0.156777L21.1861 0.159768L21.5379 1.09584ZM21.96 2.42675L18.6393 17.7012L20.5937 18.1261L23.9144 2.85162L21.96 2.42675ZM18.6424 17.6877C18.598 17.8789 18.5478 17.9793 18.5195 18.0225C18.4958 18.0588 18.5011 18.0355 18.5491 18.0141C18.5968 17.9928 18.6181 18.004 18.5773 17.9979C18.5286 17.9905 18.4257 17.9625 18.2628 17.8737L17.3054 19.6296C17.8868 19.9466 18.6363 20.1648 19.3632 19.8409C20.092 19.5161 20.4356 18.8081 20.5906 18.1396L18.6424 17.6877ZM18.3674 17.9394L13.3084 14.3064L12.1418 15.9309L17.2008 19.5639L18.3674 17.9394ZM10.1652 16.8225C10.0965 16.7984 10.055 16.7817 10.0304 16.7705C10.0055 16.7592 10.013 16.7604 10.0365 16.7768C10.0631 16.7954 10.1084 16.8322 10.1541 16.8916C10.2011 16.9526 10.2308 17.0146 10.248 17.0658C10.2635 17.1118 10.2655 17.1392 10.2647 17.131C10.2637 17.1219 10.2618 17.0959 10.2613 17.0388C10.2609 16.9815 10.2619 16.9143 10.2633 16.8202C10.2647 16.7299 10.2664 16.6218 10.2664 16.5H8.26636C8.26636 16.6407 8.2605 16.9459 8.26138 17.055C8.26261 17.2066 8.26841 17.4539 8.35254 17.7038C8.57925 18.3774 9.18053 18.5965 9.50249 18.7096L10.1652 16.8225ZM10.2664 16.5C10.2664 16.1158 10.3488 15.2688 10.4414 14.4574C10.4863 14.0649 10.5311 13.6997 10.5648 13.4325C10.5817 13.299 10.5957 13.1902 10.6055 13.1149C10.6104 13.0773 10.6142 13.0481 10.6168 13.0284C10.6181 13.0186 10.6191 13.0111 10.6197 13.0061C10.6201 13.0037 10.6203 13.0018 10.6205 13.0006C10.6206 13 10.6206 12.9996 10.6206 12.9993C10.6207 12.9992 10.6207 12.9991 10.6207 12.999C10.6207 12.999 10.6207 12.999 10.6207 12.999C10.6207 12.999 10.6207 12.999 9.62944 12.867C8.63818 12.7351 8.63818 12.7351 8.63817 12.7352C8.63817 12.7352 8.63816 12.7352 8.63815 12.7353C8.63814 12.7354 8.63812 12.7356 8.63809 12.7357C8.63804 12.7361 8.63797 12.7367 8.63787 12.7374C8.63768 12.7388 8.63741 12.7409 8.63705 12.7436C8.63633 12.749 8.63528 12.757 8.63391 12.7674C8.63119 12.788 8.62722 12.8183 8.62218 12.8571C8.61211 12.9345 8.59777 13.0459 8.58057 13.1822C8.5462 13.4547 8.50031 13.828 8.45435 14.2306C8.36545 15.0093 8.26636 15.9788 8.26636 16.5H10.2664ZM10.2716 13.6336L20.2587 5.26654L18.9743 3.73346L8.98724 12.1005L10.2716 13.6336ZM9.62485 11.9335L2.1533 9.06435L1.43633 10.9314L8.90788 13.8006L9.62485 11.9335ZM2.08632 9.04132C1.89697 8.98361 1.84579 8.93408 1.86122 8.94825C1.87318 8.95922 1.91372 8.99985 1.9489 9.0773C1.98647 9.16002 2.00734 9.2625 1.99764 9.37052C1.97867 9.58179 1.86512 9.65213 1.92351 9.60189C1.97516 9.55745 2.10972 9.4676 2.37754 9.36535L1.66418 7.4969C1.26636 7.64878 0.904196 7.84051 0.619089 8.08581C0.340725 8.32531 0.0503833 8.69357 0.00565735 9.19165C-0.0422102 9.72471 0.211796 10.1491 0.508968 10.4218C0.79177 10.6813 1.15004 10.8468 1.5033 10.9545L2.08632 9.04132ZM2.37267 9.3672L21.8897 2.03191L21.1861 0.159768L1.66905 7.49505L2.37267 9.3672ZM21.8817 2.03487C21.986 1.99669 22.0446 1.99916 22.0578 2.00077C22.065 2.00164 22.0341 1.99767 21.9999 1.96526C21.9658 1.9331 21.9774 1.91948 21.9895 1.97994C22.0029 2.04671 22.0122 2.18855 21.9604 2.4251L23.914 2.85327C24.1006 2.00206 24.005 1.10869 23.3739 0.512016C22.7378 -0.0895 21.8737 -0.0920546 21.1941 0.156811L21.8817 2.03487ZM11.9528 14.4833C11.5605 14.9602 11.048 15.6261 10.5305 16.1738C10.2718 16.4476 10.0568 16.6422 9.89928 16.7502C9.82058 16.8042 9.79422 16.8098 9.81449 16.8033C9.83459 16.7969 9.9749 16.7557 10.1652 16.8225L9.50249 18.7096C9.85932 18.8349 10.1922 18.7824 10.4247 18.7079C10.6573 18.6334 10.8631 18.5143 11.0301 18.3999C11.3638 18.1711 11.6941 17.8545 11.9842 17.5474C12.5646 16.9332 13.1646 16.1584 13.4973 15.7539L11.9528 14.4833ZM18.9878 3.72233L8.63769 12.0894L9.89503 13.6447L20.2452 5.27767L18.9878 3.72233Z" fill="#B8B9CC"/>
</svg>
