<svg width="16" height="16" viewBox="0 0 16 16" fill="none" xmlns="http://www.w3.org/2000/svg">
<path d="M10.5456 8C10.5456 9.40582 9.40594 10.5455 8.00012 10.5455C6.59431 10.5455 5.45467 9.40582 5.45467 8C5.45467 6.59418 6.59431 5.45455 8.00012 5.45455C9.40594 5.45455 10.5456 6.59418 10.5456 8Z" fill="#999BB3"/>
<path fill-rule="evenodd" clip-rule="evenodd" d="M15.5763 2.75685C15.8137 3.38554 15.9396 4.05067 15.9486 4.72248C15.9981 5.56744 15.9983 5.84378 16.0001 7.98263L16.0001 8.01242C16.0001 10.1794 15.9886 10.4499 15.9504 11.3033C15.937 11.9676 15.8118 12.6222 15.5781 13.2432C15.372 13.7733 15.0576 14.2548 14.6548 14.6569C14.252 15.059 13.7697 15.373 13.2387 15.5787C12.6171 15.8116 11.9603 15.9373 11.2964 15.9503C10.4479 16 10.1698 16 8.00012 16C5.83042 16 5.55943 15.9885 4.70381 15.9503C4.03866 15.9285 3.38212 15.7935 2.76245 15.5512C2.23119 15.3459 1.74866 15.0322 1.34569 14.6302C0.942722 14.2283 0.628179 13.7468 0.422157 13.2165C0.188483 12.5947 0.0632051 11.9401 0.0498777 11.2766C0.00012207 10.4287 0.00012207 10.1519 0.00012207 7.98581C0.00012207 5.81972 0.0116725 5.54917 0.0498777 4.69498C0.0624261 4.03247 0.188333 3.37699 0.422157 2.75685C0.627833 2.22646 0.942143 1.74478 1.34498 1.34262C1.74781 0.940454 2.23029 0.626668 2.76156 0.421333C3.38293 0.188463 4.03936 0.0624939 4.70292 0.048786C5.55143 0 5.82953 0 7.99923 0C10.1689 0 10.4399 0.0106443 11.2947 0.048786C11.9585 0.0623939 12.6153 0.188364 13.2369 0.421333C13.7681 0.626811 14.2505 0.940648 14.6533 1.34279C15.0561 1.74494 15.3705 2.22655 15.5763 2.75685ZM3.88639 7.98137C3.88639 10.2468 5.72469 12.082 7.9939 12.082C9.08328 12.082 10.128 11.65 10.8984 10.881C11.6687 10.112 12.1014 9.06894 12.1014 7.98137C12.1014 6.89381 11.6687 5.85078 10.8984 5.08176C10.128 4.31273 9.08328 3.8807 7.9939 3.8807C5.72469 3.8807 3.88639 5.71593 3.88639 7.98137ZM11.3071 3.72902C11.3071 4.25768 11.7345 4.68522 12.2649 4.68522C12.7935 4.68522 13.2218 4.25768 13.2218 3.72902C13.2218 3.6035 13.197 3.47922 13.1489 3.36326C13.1008 3.24731 13.0303 3.14194 12.9414 3.05319C12.8525 2.96444 12.747 2.89404 12.6308 2.84601C12.5147 2.79798 12.3902 2.77326 12.2645 2.77326C12.1387 2.77326 12.0142 2.79798 11.8981 2.84601C11.7819 2.89404 11.6764 2.96444 11.5875 3.05319C11.4986 3.14194 11.4281 3.24731 11.38 3.36326C11.3319 3.47922 11.3071 3.6035 11.3071 3.72902Z" fill="#999BB3"/>
</svg>
