<svg width="56" height="56" viewBox="0 0 56 56" fill="none" xmlns="http://www.w3.org/2000/svg">
<g filter="url(#filter0_b)">
<mask id="path-1-outside-1" maskUnits="userSpaceOnUse" x="-8.16031e-07" y="0" width="56" height="56" fill="black">
<rect fill="white" x="-8.16031e-07" width="56" height="56"/>
<path d="M40.624 1H15.4C6.208 1 1 6.208 1 15.4L0.999999 40.6C0.999999 49.792 6.208 55 15.4 55H40.624C49.816 55 55 49.792 55 40.6L55 15.4C55 6.208 49.816 1 40.624 1"/>
</mask>
<path d="M40.624 1H15.4C6.208 1 1 6.208 1 15.4L0.999999 40.6C0.999999 49.792 6.208 55 15.4 55H40.624C49.816 55 55 49.792 55 40.6L55 15.4C55 6.208 49.816 1 40.624 1" fill="#FFB5A5" fill-opacity="0.4"/>
<path d="M40.624 2C41.1763 2 41.624 1.55228 41.624 1C41.624 0.447715 41.1763 0 40.624 0L40.624 2ZM40.624 0C40.0717 0 39.624 0.447715 39.624 1C39.624 1.55228 40.0717 2 40.624 2L40.624 0ZM40.624 0H15.4L15.4 2H40.624L40.624 0ZM15.4 0C10.6181 0 6.73391 1.35787 4.04589 4.04589C1.35787 6.73391 -1.42703e-07 10.6181 -2.13652e-07 15.4H2C2 10.9899 3.24613 7.67409 5.46011 5.46011C7.67409 3.24613 10.9899 2 15.4 2L15.4 0ZM-2.13652e-07 15.4L-5.87543e-07 40.6H2L2 15.4H-2.13652e-07ZM-5.87543e-07 40.6C-6.58491e-07 45.3819 1.35787 49.2661 4.04589 51.9541C6.73391 54.6421 10.6181 56 15.4 56L15.4 54C10.9899 54 7.67409 52.7539 5.46011 50.5399C3.24613 48.3259 2 45.0101 2 40.6H-5.87543e-07ZM15.4 56H40.624L40.624 54H15.4L15.4 56ZM40.624 56C45.406 56 49.2847 54.6421 51.967 51.9532C54.6488 49.2648 56 45.3807 56 40.6H54C54 45.0113 52.7592 48.3272 50.551 50.5408C48.3433 52.7539 45.034 54 40.624 54L40.624 56ZM56 40.6L56 15.4H54L54 40.6H56ZM56 15.4C56 10.6193 54.6488 6.73521 51.967 4.04676C49.2847 1.35794 45.406 0 40.624 0L40.624 2C45.034 2 48.3433 3.24606 50.551 5.45924C52.7592 7.67279 54 10.9887 54 15.4H56Z" fill="url(#paint0_linear)" mask="url(#path-1-outside-1)"/>
</g>
<g filter="url(#filter1_d)">
<path fill-rule="evenodd" clip-rule="evenodd" d="M28 37C32.9706 37 37 32.9706 37 28C37 23.0294 32.9706 19 28 19C23.0294 19 19 23.0294 19 28C19 32.9706 23.0294 37 28 37ZM28 42C35.732 42 42 35.732 42 28C42 20.268 35.732 14 28 14C20.268 14 14 20.268 14 28C14 35.732 20.268 42 28 42Z" fill="url(#paint1_linear)"/>
</g>
<g filter="url(#filter2_d)">
<circle cx="45" cy="14" r="3" fill="url(#paint2_linear)"/>
</g>
<defs>
<filter id="filter0_b" x="-12" y="-12" width="80" height="80" filterUnits="userSpaceOnUse" color-interpolation-filters="sRGB">
<feFlood flood-opacity="0" result="BackgroundImageFix"/>
<feGaussianBlur in="BackgroundImage" stdDeviation="6"/>
<feComposite in2="SourceAlpha" operator="in" result="effect1_backgroundBlur"/>
<feBlend mode="normal" in="SourceGraphic" in2="effect1_backgroundBlur" result="shape"/>
</filter>
<filter id="filter1_d" x="10" y="10" width="42" height="42" filterUnits="userSpaceOnUse" color-interpolation-filters="sRGB">
<feFlood flood-opacity="0" result="BackgroundImageFix"/>
<feColorMatrix in="SourceAlpha" type="matrix" values="0 0 0 0 0 0 0 0 0 0 0 0 0 0 0 0 0 0 127 0"/>
<feOffset dx="3" dy="3"/>
<feGaussianBlur stdDeviation="3.5"/>
<feColorMatrix type="matrix" values="0 0 0 0 1 0 0 0 0 0.454902 0 0 0 0 0.333333 0 0 0 0.5 0"/>
<feBlend mode="normal" in2="BackgroundImageFix" result="effect1_dropShadow"/>
<feBlend mode="normal" in="SourceGraphic" in2="effect1_dropShadow" result="shape"/>
</filter>
<filter id="filter2_d" x="40" y="9" width="14" height="14" filterUnits="userSpaceOnUse" color-interpolation-filters="sRGB">
<feFlood flood-opacity="0" result="BackgroundImageFix"/>
<feColorMatrix in="SourceAlpha" type="matrix" values="0 0 0 0 0 0 0 0 0 0 0 0 0 0 0 0 0 0 127 0"/>
<feOffset dx="2" dy="2"/>
<feGaussianBlur stdDeviation="2"/>
<feColorMatrix type="matrix" values="0 0 0 0 1 0 0 0 0 0.350069 0 0 0 0 0.204167 0 0 0 0.4 0"/>
<feBlend mode="normal" in2="BackgroundImageFix" result="effect1_dropShadow"/>
<feBlend mode="normal" in="SourceGraphic" in2="effect1_dropShadow" result="shape"/>
</filter>
<linearGradient id="paint0_linear" x1="9.59592" y1="7.29107" x2="44.0422" y2="49.9536" gradientUnits="userSpaceOnUse">
<stop stop-color="white" stop-opacity="0.25"/>
<stop offset="1" stop-color="white" stop-opacity="0"/>
</linearGradient>
<linearGradient id="paint1_linear" x1="42" y1="16" x2="0.5" y2="52.5" gradientUnits="userSpaceOnUse">
<stop stop-color="white"/>
<stop offset="1" stop-color="white" stop-opacity="0.2"/>
</linearGradient>
<linearGradient id="paint2_linear" x1="47.1611" y1="11.6872" x2="40.3298" y2="18.5585" gradientUnits="userSpaceOnUse">
<stop stop-color="white"/>
<stop offset="1" stop-color="white" stop-opacity="0.21"/>
</linearGradient>
</defs>
</svg>
