<svg width="16" height="16" viewBox="0 0 16 16" fill="none" xmlns="http://www.w3.org/2000/svg">
<path fill-rule="evenodd" clip-rule="evenodd" d="M0.000122268 1.33673C0.000122268 0.982207 0.140956 0.642205 0.391641 0.39152C0.642326 0.140835 0.982327 1.78205e-06 1.33685 1.78205e-06H14.6619C14.8376 -0.000285165 15.0117 0.0340839 15.174 0.101141C15.3364 0.168198 15.484 0.266627 15.6083 0.390792C15.7326 0.514956 15.8312 0.662419 15.8984 0.824736C15.9657 0.987054 16.0002 1.16104 16.0001 1.33673V14.6618C16.0003 14.8375 15.9659 15.0116 15.8987 15.174C15.8316 15.3364 15.7331 15.4839 15.6089 15.6082C15.4846 15.7325 15.3371 15.8311 15.1748 15.8983C15.0124 15.9655 14.8384 16.0001 14.6627 16H1.33685C1.16125 16 0.987365 15.9654 0.825138 15.8982C0.662911 15.831 0.515519 15.7324 0.391383 15.6082C0.267247 15.484 0.1688 15.3366 0.101666 15.1743C0.0345317 15.012 2.67281e-05 14.8381 0.000122268 14.6625V1.33673ZM6.33321 6.10037H8.49976V7.18836C8.81249 6.56291 9.61248 6 10.8147 6C13.1194 6 13.6656 7.24582 13.6656 9.53164V13.7658H11.3332V10.0524C11.3332 8.75055 11.0205 8.016 10.2263 8.016C9.12449 8.016 8.6663 8.808 8.6663 10.0524V13.7658H6.33321V6.10037ZM2.33321 13.6662H4.6663V6H2.33321V13.6655V13.6662ZM5.00012 3.49964C5.00452 3.6994 4.96897 3.89803 4.89557 4.08387C4.82216 4.2697 4.71238 4.43901 4.57265 4.58184C4.43293 4.72468 4.26608 4.83816 4.08191 4.91564C3.89773 4.99312 3.69993 5.03303 3.50012 5.03303C3.30031 5.03303 3.10251 4.99312 2.91834 4.91564C2.73416 4.83816 2.56731 4.72468 2.42759 4.58184C2.28787 4.43901 2.17808 4.2697 2.10468 4.08387C2.03127 3.89803 1.99572 3.6994 2.00012 3.49964C2.00876 3.10753 2.17058 2.7344 2.45095 2.46014C2.73131 2.18588 3.10792 2.03231 3.50012 2.03231C3.89232 2.03231 4.26893 2.18588 4.5493 2.46014C4.82966 2.7344 4.99149 3.10753 5.00012 3.49964Z" fill="#999BB3"/>
</svg>
