<svg width="85" height="32" viewBox="0 0 85 32" fill="none" xmlns="http://www.w3.org/2000/svg">
<path d="M1.21151e-07 29.3358C-0.00010541 28.9858 0.068734 28.6392 0.203147 28.3158C0.337559 27.9924 0.535113 27.6986 0.783566 27.4511C1.03202 27.2036 1.32642 27.0073 1.65106 26.8734C1.9757 26.7396 2.32405 26.6707 2.67542 26.6708C3.38582 26.6708 4.06729 26.3897 4.56962 25.8893C5.07195 25.3889 5.35397 24.7103 5.35397 24.0026V8.66945C5.35355 8.31921 5.42207 7.97232 5.55633 7.64862C5.6906 7.32492 5.88828 7.03075 6.13675 6.78294C6.38523 6.53514 6.68023 6.33855 7.00503 6.20442C7.32983 6.07029 7.67778 6.00125 8.02939 6.00125C8.38118 6.00115 8.72951 6.07009 9.05454 6.20414C9.37956 6.33819 9.67484 6.53473 9.9236 6.78252C10.1723 7.0303 10.3694 7.32448 10.504 7.64825C10.6386 7.97202 10.7081 8.31903 10.7079 8.66945V18.6702C10.7076 19.0203 10.7768 19.367 10.9111 19.6904C11.0454 20.0139 11.2422 20.3078 11.4907 20.5553C11.7392 20.8029 12.0343 20.9992 12.359 21.133C12.6837 21.2668 13.0319 21.3355 13.3834 21.3352C13.735 21.3356 14.0835 21.267 14.4085 21.1333C14.7335 20.9995 15.0287 20.8033 15.2776 20.5558C15.5264 20.3083 15.724 20.0144 15.8588 19.6909C15.9935 19.3673 16.0626 19.0205 16.0627 18.6702V8.0014C16.0626 7.65098 16.1321 7.30397 16.2666 6.9802C16.4012 6.65643 16.5983 6.36225 16.8471 6.11447C17.0958 5.86668 17.3911 5.67015 17.7161 5.53609C18.0411 5.40204 18.3895 5.33309 18.7413 5.3332C19.4512 5.33384 20.1314 5.61526 20.6331 6.1156C21.1348 6.61593 21.4169 7.29424 21.4167 8.0014V18.6686C21.4163 19.0187 21.4855 19.3654 21.6198 19.6889C21.7541 20.0125 21.9509 20.3064 22.1995 20.554C22.448 20.8015 22.7429 20.9978 23.0677 21.1316C23.3925 21.2654 23.7406 21.334 24.0921 21.3336C24.4437 21.334 24.7915 21.2654 25.1165 21.1317C25.4414 20.9979 25.7367 20.8017 25.9855 20.5542C26.2343 20.3067 26.4321 20.0127 26.5667 19.6892C26.7014 19.3657 26.7706 19.0188 26.7706 18.6686V8.0014C26.7706 7.65094 26.8399 7.30391 26.9746 6.98014C27.1092 6.65637 27.307 6.36219 27.5558 6.11442C27.8046 5.86664 28.0998 5.67012 28.4248 5.53607C28.7499 5.40203 29.0982 5.33309 29.45 5.3332C30.1599 5.33384 30.8402 5.61526 31.3418 6.1156C31.8435 6.61593 32.1256 7.29424 32.1254 8.0014V18.6686C32.1254 20.7905 31.2794 22.8255 29.7731 24.3259C28.2669 25.8263 26.2238 26.6692 24.0937 26.6692C22.1169 26.6692 20.2103 25.9388 18.7428 24.6194C17.2727 25.9391 15.3639 26.6694 13.3849 26.6692C12.3692 26.669 11.3625 26.4759 10.4193 26.1004C9.95808 27.7941 8.95028 29.2896 7.55094 30.3558C6.15159 31.4221 4.43879 31.9999 2.67699 32C2.32555 32.0003 1.9774 31.9316 1.65263 31.7979C1.32785 31.6641 1.03296 31.4679 0.78435 31.2205C0.535738 30.9731 0.338491 30.6793 0.203931 30.3559C0.0693707 30.0325 -2.1466e-08 29.6859 1.21151e-07 29.3358ZM64.9214 26.6708C63.1464 26.6687 61.4446 25.9653 60.1894 24.7151C58.9343 23.4648 58.2283 21.7697 58.2262 20.0015V6.6653C58.2292 4.89799 58.9359 3.20401 60.191 1.95493C61.4462 0.705857 63.1472 0.00367069 64.9214 0.00240203H78.3087C80.0825 0.00388411 81.7831 0.706265 83.0376 1.95541C84.292 3.20456 84.9979 4.89842 85 6.6653V20.0007C84.9987 21.7684 84.2936 23.4634 83.0391 24.7138C81.7847 25.9641 80.0833 26.6677 78.3087 26.67L64.9214 26.6708ZM74.6254 20.6704C74.6263 21.2894 74.8735 21.8828 75.3133 22.3202C75.753 22.7576 76.3492 23.0033 76.9706 23.0033C77.5913 23.0027 78.1862 22.7566 78.6248 22.3191C79.0634 21.8816 79.3098 21.2886 79.3095 20.6704C79.3098 20.0521 79.0634 19.4591 78.6248 19.0216C78.1862 18.5841 77.5913 18.338 76.9706 18.3374C76.3494 18.3374 75.7537 18.5828 75.3141 19.0199C74.8744 19.457 74.6267 20.05 74.6254 20.6688V20.6704ZM63.9175 20.6704C63.9183 21.2894 64.1656 21.8828 64.6053 22.3202C65.0451 22.7576 65.6412 23.0033 66.2627 23.0033C66.883 23.0018 67.4778 22.7554 67.9161 22.3181C68.3543 21.8808 68.6004 21.2883 68.6008 20.6704C68.6004 20.0524 68.3543 19.4599 67.9161 19.0226C67.4778 18.5853 66.883 18.3389 66.2627 18.3374C65.6415 18.3374 65.0458 18.5828 64.6061 19.0199C64.1664 19.457 63.9187 20.05 63.9175 20.6688V20.6704ZM74.6254 13.3362C74.6263 13.9552 74.8735 14.5486 75.3133 14.9861C75.753 15.4235 76.3492 15.6692 76.9706 15.6692C77.5913 15.6685 78.1862 15.4224 78.6248 14.985C79.0634 14.5475 79.3098 13.9545 79.3095 13.3362C79.3098 12.7179 79.0634 12.1249 78.6248 11.6874C78.1862 11.25 77.5913 11.0039 76.9706 11.0032C76.3494 11.0032 75.7537 11.2487 75.3141 11.6858C74.8744 12.1229 74.6267 12.7158 74.6254 13.3346V13.3362ZM63.9175 13.3362C63.9183 13.9552 64.1656 14.5486 64.6053 14.9861C65.0451 15.4235 65.6412 15.6692 66.2627 15.6692C66.883 15.6677 67.4778 15.4213 67.9161 14.984C68.3543 14.5467 68.6004 13.9541 68.6008 13.3362C68.6004 12.7183 68.3543 12.1257 67.9161 11.6884C67.4778 11.2511 66.883 11.0047 66.2627 11.0032C65.6415 11.0032 65.0458 11.2487 64.6061 11.6858C64.1664 12.1229 63.9187 12.7158 63.9175 13.3346V13.3362ZM74.6254 6.00205C74.6263 6.62109 74.8735 7.21448 75.3133 7.65191C75.753 8.08933 76.3492 8.33503 76.9706 8.33503C77.5913 8.33439 78.1862 8.08829 78.6248 7.65082C79.0634 7.21335 79.3098 6.62031 79.3095 6.00205C79.3098 5.3838 79.0634 4.79076 78.6248 4.35329C78.1862 3.91581 77.5913 3.66971 76.9706 3.66908C76.3493 3.66908 75.7538 3.91466 75.3141 4.35191C74.8744 4.78916 74.6265 5.38315 74.6254 6.00205ZM63.9175 6.00205C63.9183 6.62109 64.1656 7.21448 64.6053 7.65191C65.0451 8.08933 65.6412 8.33503 66.2627 8.33503C66.883 8.33355 67.4778 8.08715 67.9161 7.64983C68.3543 7.21252 68.6004 6.61997 68.6008 6.00205C68.6004 5.38413 68.3543 4.79158 67.9161 4.35427C67.4778 3.91696 66.883 3.67056 66.2627 3.66908C65.6414 3.66908 65.0458 3.91466 64.6061 4.35191C64.1664 4.78916 63.9185 5.38315 63.9175 6.00205ZM36.8119 18.6694V2.6682C36.8117 1.9609 37.0936 1.28248 37.5955 0.782114C38.0973 0.281753 38.778 0.000424383 39.4881 1.19955e-07C40.1985 1.19956e-07 40.88 0.281113 41.3823 0.781498C41.8846 1.28188 42.1667 1.96055 42.1667 2.6682V18.6694C42.1667 19.0196 42.2359 19.3665 42.3706 19.69C42.5052 20.0135 42.703 20.3075 42.9518 20.555C43.2006 20.8025 43.4951 20.9987 43.8201 21.1325C44.145 21.2662 44.4936 21.3348 44.8452 21.3344C45.1966 21.3345 45.5449 21.2656 45.8696 21.1318C46.1942 20.9979 46.4886 20.8016 46.7371 20.5541C46.9855 20.3066 47.1831 20.0128 47.3175 19.6894C47.4519 19.366 47.5207 19.0194 47.5206 18.6694V16.0012C47.5206 15.6512 47.5901 15.3047 47.7246 14.9813C47.859 14.658 48.0558 14.3642 48.3042 14.1168C48.5526 13.8693 48.8479 13.673 49.1725 13.5391C49.4971 13.4051 49.8447 13.3362 50.196 13.3362C50.9061 13.3358 51.587 13.6163 52.0895 14.1161C52.5919 14.6158 52.8747 15.2939 52.8754 16.0012V18.6694C52.8754 20.7913 52.0294 22.8263 50.5231 24.3267C49.0169 25.8271 46.9738 26.67 44.8436 26.67C43.7888 26.67 42.7443 26.463 41.7698 26.0609C40.7953 25.6588 39.91 25.0694 39.1642 24.3264C38.4183 23.5834 37.8265 22.7013 37.4229 21.7305C37.0193 20.7598 36.8118 19.7201 36.8119 18.6694ZM47.5206 9.3343C47.5203 8.98424 47.5894 8.63755 47.7238 8.31408C47.8581 7.9906 48.0549 7.69669 48.3034 7.44916C48.5519 7.20163 48.8469 7.00534 49.1717 6.87152C49.4964 6.7377 49.8446 6.66899 50.196 6.6693C50.5477 6.66888 50.8962 6.7375 51.2212 6.87123C51.5462 7.00496 51.8414 7.20118 52.0902 7.44868C52.3391 7.69618 52.5367 7.99011 52.6715 8.31365C52.8062 8.6372 52.8753 8.98402 52.8754 9.3343C52.8754 9.68476 52.8061 10.0318 52.6715 10.3556C52.5368 10.6793 52.3391 10.9735 52.0902 11.2213C51.8414 11.4691 51.5463 11.6656 51.2212 11.7996C50.8961 11.9337 50.5479 12.0026 50.196 12.0025C49.8445 12.0024 49.4964 11.9333 49.1717 11.7991C48.8469 11.665 48.5519 11.4684 48.3034 11.2206C48.055 10.9728 47.8581 10.6787 47.7238 10.355C47.5895 10.0314 47.5203 9.68452 47.5206 9.3343ZM47.5206 2.6682C47.5203 2.31799 47.5895 1.97115 47.7238 1.64749C47.8581 1.32384 48.055 1.02971 48.3034 0.781928C48.5519 0.534142 48.8469 0.337548 49.1717 0.203381C49.4964 0.0692154 49.8445 0.000105084 50.196 1.19955e-07C50.5479 -0.000104966 50.8961 0.0688353 51.2212 0.202878C51.5463 0.33692 51.8414 0.533441 52.0902 0.781217C52.3391 1.02899 52.5368 1.32317 52.6715 1.64694C52.8061 1.97071 52.8754 2.31774 52.8754 2.6682C52.8753 3.01848 52.8062 3.36531 52.6715 3.68885C52.5367 4.0124 52.3391 4.30632 52.0902 4.55382C51.8414 4.80132 51.5462 4.99754 51.2212 5.13127C50.8962 5.26501 50.5477 5.33362 50.196 5.3332C49.8446 5.33352 49.4964 5.2648 49.1717 5.13098C48.8469 4.99717 48.5519 4.80088 48.3034 4.55334C48.0549 4.30581 47.8581 4.0119 47.7238 3.68843C47.5894 3.36495 47.5203 3.01826 47.5206 2.6682Z" fill="#FF4B23"/>
</svg>
