<svg width="15" height="17" viewBox="0 0 15 17" fill="none" xmlns="http://www.w3.org/2000/svg">
<path d="M14.9976 8.77632C14.9976 9.28179 14.8385 9.7892 14.5203 10.1955C14.4606 10.2752 14.1822 10.6038 13.9635 10.8176L13.8442 10.9343C12.1737 12.7054 8.01745 15.3688 5.90949 16.2223C5.90949 16.2417 4.65665 16.7491 4.06006 16.7666H3.98051C3.06574 16.7666 2.21063 16.2631 1.77313 15.4466C1.53449 14.9975 1.31574 13.6949 1.29585 13.6774C1.11688 12.509 0.997559 10.7204 0.997559 8.75688C0.997559 6.69807 1.11688 4.82979 1.33563 3.68276C1.33563 3.66332 1.55438 2.6135 1.69358 2.26356C1.91233 1.76004 2.31006 1.33039 2.80722 1.05822C3.20494 0.865751 3.62256 0.766602 4.06006 0.766602C4.51744 0.787987 5.37256 1.07766 5.71063 1.21375C7.9379 2.06915 12.1936 4.86867 13.8243 6.57948C14.1027 6.85166 14.401 7.1841 14.4805 7.25992C14.8186 7.68762 14.9976 8.21253 14.9976 8.77632Z" fill="white"/>
</svg>
