<svg width="63" height="63" viewBox="0 0 63 63" fill="none" xmlns="http://www.w3.org/2000/svg">
<g filter="url(#filter0_b)">
<g filter="url(#filter1_b)">
<mask id="path-1-outside-1" maskUnits="userSpaceOnUse" x="-1.78914" y="-1.22158" width="66.0607" height="66.1564" fill="black">
<rect fill="white" x="-1.78914" y="-1.22158" width="66.0607" height="66.1564"/>
<path fill-rule="evenodd" clip-rule="evenodd" d="M55.3256 21.2621C52.1963 9.52175 40.1454 2.5536 28.4092 5.69832C22.7732 7.20846 17.9651 10.8964 15.0424 15.9509C12.1198 21.0053 11.3221 27.0122 12.8249 32.6502C15.9542 44.3906 28.0051 51.3587 39.7413 48.214C51.4776 45.0693 58.4549 33.0025 55.3256 21.2621ZM17.6381 49.8538L12.703 56.705L12.5934 56.7343C11.6651 58.3837 12.2301 60.5031 13.8552 61.4683C15.4803 62.4335 17.5503 61.8788 18.4786 60.2295L22.0948 52.7461C22.4553 52.1083 22.5506 51.3475 22.3599 50.6319C22.1691 49.9162 21.7079 49.3045 21.0782 48.932C19.8674 48.2272 18.3368 48.6373 17.6381 49.8538Z"/>
</mask>
<path fill-rule="evenodd" clip-rule="evenodd" d="M55.3256 21.2621C52.1963 9.52175 40.1454 2.5536 28.4092 5.69832C22.7732 7.20846 17.9651 10.8964 15.0424 15.9509C12.1198 21.0053 11.3221 27.0122 12.8249 32.6502C15.9542 44.3906 28.0051 51.3587 39.7413 48.214C51.4776 45.0693 58.4549 33.0025 55.3256 21.2621ZM17.6381 49.8538L12.703 56.705L12.5934 56.7343C11.6651 58.3837 12.2301 60.5031 13.8552 61.4683C15.4803 62.4335 17.5503 61.8788 18.4786 60.2295L22.0948 52.7461C22.4553 52.1083 22.5506 51.3475 22.3599 50.6319C22.1691 49.9162 21.7079 49.3045 21.0782 48.932C19.8674 48.2272 18.3368 48.6373 17.6381 49.8538Z" fill="#9F66FF" fill-opacity="0.35"/>
<path d="M55.3256 21.2621L56.2915 21.0032L56.2915 21.0032L55.3256 21.2621ZM15.0424 15.9509L15.9075 16.4511L15.9075 16.4511L15.0424 15.9509ZM12.8249 32.6502L11.859 32.9091L11.859 32.9091L12.8249 32.6502ZM12.703 56.705L13.5136 57.2893C13.3787 57.4766 13.1832 57.6116 12.9604 57.6713L12.703 56.705ZM17.6381 49.8538L18.5046 50.3515C18.4875 50.3813 18.4688 50.4102 18.4488 50.4381L17.6381 49.8538ZM12.5934 56.7343L11.7226 56.2442C11.8547 56.0094 12.0759 55.8377 12.336 55.768L12.5934 56.7343ZM18.4786 60.2295L19.3784 60.6641C19.3693 60.6829 19.3596 60.7014 19.3494 60.7196L18.4786 60.2295ZM22.0948 52.7461L21.195 52.3115C21.2043 52.2922 21.2143 52.2732 21.2248 52.2545L22.0948 52.7461ZM22.3599 50.6319L23.3258 50.3729L23.3258 50.3729L22.3599 50.6319ZM21.0782 48.932L21.5817 48.0671L21.5877 48.0707L21.0782 48.932ZM28.1517 4.73202C40.4214 1.44437 53.02 8.7292 56.2915 21.0032L54.3597 21.5211C51.3727 10.3143 39.8694 3.66282 28.6666 6.66462L28.1517 4.73202ZM14.1774 15.4507C17.2329 10.1664 22.2596 6.31081 28.1517 4.73202L28.6666 6.66462C23.2868 8.10612 18.6973 11.6264 15.9075 16.4511L14.1774 15.4507ZM11.859 32.9091C10.2879 27.0149 11.1219 20.7349 14.1774 15.4507L15.9075 16.4511C13.1178 21.2757 12.3563 27.0096 13.7908 32.3912L11.859 32.9091ZM39.9987 49.1803C27.7291 52.4679 15.1305 45.1831 11.859 32.9091L13.7908 32.3912C16.7778 43.598 28.2811 50.2495 39.4839 47.2477L39.9987 49.1803ZM56.2915 21.0032C59.563 33.2773 52.2685 45.8926 39.9987 49.1803L39.4839 47.2477C50.6866 44.2459 57.3468 32.7278 54.3597 21.5211L56.2915 21.0032ZM11.8923 56.1207L16.8274 49.2695L18.4488 50.4381L13.5136 57.2893L11.8923 56.1207ZM12.336 55.768L12.4456 55.7387L12.9604 57.6713L12.8508 57.7006L12.336 55.768ZM13.3442 62.3287C11.2525 61.0865 10.5276 58.3674 11.7226 56.2442L13.4643 57.2244C12.8027 58.3999 13.2077 59.9198 14.3662 60.6079L13.3442 62.3287ZM19.3494 60.7196C18.1455 62.8586 15.4516 63.5803 13.3442 62.3287L14.3662 60.6079C15.5091 61.2866 16.9551 60.899 17.6077 59.7394L19.3494 60.7196ZM22.9947 53.1807L19.3784 60.6641L17.5787 59.7949L21.195 52.3115L22.9947 53.1807ZM23.3258 50.3729C23.5831 51.3382 23.4558 52.3688 22.9648 53.2377L21.2248 52.2545C21.4547 51.8478 21.5182 51.3568 21.394 50.8908L23.3258 50.3729ZM21.5877 48.0707C22.4455 48.5781 23.0685 49.4076 23.3258 50.3729L21.394 50.8908C21.2698 50.4248 20.9704 50.031 20.5687 49.7934L21.5877 48.0707ZM16.7716 49.3561C17.7468 47.6583 19.892 47.0836 21.5817 48.0672L20.5748 49.7969C19.8427 49.3708 18.9269 49.6163 18.5046 50.3515L16.7716 49.3561Z" fill="url(#paint0_linear)" mask="url(#path-1-outside-1)"/>
</g>
</g>
<defs>
<filter id="filter0_b" x="-0.917236" y="-8.05713" width="69.9906" height="83.0003" filterUnits="userSpaceOnUse" color-interpolation-filters="sRGB">
<feFlood flood-opacity="0" result="BackgroundImageFix"/>
<feGaussianBlur in="BackgroundImage" stdDeviation="6"/>
<feComposite in2="SourceAlpha" operator="in" result="effect1_backgroundBlur"/>
<feBlend mode="normal" in="SourceGraphic" in2="effect1_backgroundBlur" result="shape"/>
</filter>
<filter id="filter1_b" x="-4.91724" y="-12.0571" width="77.9906" height="91.0003" filterUnits="userSpaceOnUse" color-interpolation-filters="sRGB">
<feFlood flood-opacity="0" result="BackgroundImageFix"/>
<feGaussianBlur in="BackgroundImage" stdDeviation="8"/>
<feComposite in2="SourceAlpha" operator="in" result="effect1_backgroundBlur"/>
<feBlend mode="normal" in="SourceGraphic" in2="effect1_backgroundBlur" result="shape"/>
</filter>
<linearGradient id="paint0_linear" x1="43.3473" y1="7.84684" x2="12.7295" y2="59.3423" gradientUnits="userSpaceOnUse">
<stop stop-color="white" stop-opacity="0.25"/>
<stop offset="1" stop-color="white" stop-opacity="0"/>
</linearGradient>
</defs>
</svg>
