<svg width="49" height="49" viewBox="0 0 49 49" fill="none" xmlns="http://www.w3.org/2000/svg">
<path fill-rule="evenodd" clip-rule="evenodd" d="M9.92511 21.0151C11.9876 13.2772 19.9302 8.6845 27.6655 10.7572C31.3801 11.7525 34.5491 14.1832 36.4754 17.5145C38.4017 20.8459 38.9274 24.805 37.937 28.5209C35.8745 36.2589 27.9318 40.8515 20.1966 38.7789C12.4613 36.7062 7.86263 28.7531 9.92511 21.0151ZM34.3405 40.2373L37.6306 44.8047L37.7037 44.8243C38.3225 45.9239 37.9459 47.3368 36.8625 47.9803C35.779 48.6237 34.3991 48.254 33.7802 47.1544L31.3694 42.1655C31.1291 41.7403 31.0655 41.2331 31.1927 40.756C31.3198 40.2789 31.6273 39.8711 32.0471 39.6228C32.8544 39.1529 33.8747 39.4263 34.3405 40.2373Z" fill="url(#paint0_linear)"/>
<g filter="url(#filter0_f)">
<path d="M26.3871 17.0748C22.1193 15.9313 17.7377 18.4653 16.6003 22.7347C15.4629 27.004 18.0006 31.3921 22.2683 32.5356C26.5361 33.6792 30.9178 31.1452 32.0551 26.8758C32.6013 24.8255 32.311 22.6411 31.248 20.8031C30.185 18.9651 28.4365 17.624 26.3871 17.0748Z" fill="#8D41C9" fill-opacity="0.5"/>
</g>
<defs>
<filter id="filter0_f" x="0.328613" y="0.800354" width="47.9962" height="48.0097" filterUnits="userSpaceOnUse" color-interpolation-filters="sRGB">
<feFlood flood-opacity="0" result="BackgroundImageFix"/>
<feBlend mode="normal" in="SourceGraphic" in2="BackgroundImageFix" result="shape"/>
<feGaussianBlur stdDeviation="8" result="effect1_foregroundBlur"/>
</filter>
<linearGradient id="paint0_linear" x1="39.7566" y1="15.0493" x2="10.9258" y2="36.6494" gradientUnits="userSpaceOnUse">
<stop stop-color="#BC94FF"/>
<stop offset="1" stop-color="#9F66FF"/>
</linearGradient>
</defs>
</svg>
