<svg width="60" height="57" viewBox="0 0 60 57" fill="none" xmlns="http://www.w3.org/2000/svg">
<g filter="url(#filter0_b)">
<path d="M47.1587 35.2135C46.4077 35.94 46.0627 36.9908 46.2337 38.0212L48.8115 52.2624C49.029 53.4694 48.5186 54.6909 47.5067 55.3885C46.515 56.1121 45.1957 56.1989 44.1141 55.62L31.2717 48.9336C30.8251 48.6963 30.3293 48.5689 29.8219 48.5545H29.0361C28.7635 48.595 28.4967 48.6818 28.2532 48.815L15.4079 55.5332C14.7728 55.8516 14.0537 55.9645 13.3491 55.8516C11.6326 55.5274 10.4872 53.8949 10.7685 52.1726L13.3491 37.9315C13.5202 36.8923 13.1751 35.8358 12.4241 35.0977L1.95362 24.9668C1.07793 24.1187 0.773469 22.8451 1.17362 21.696C1.56217 20.5497 2.55384 19.7132 3.75138 19.5251L18.1625 17.4381C19.2586 17.3252 20.2212 16.6595 20.7142 15.6753L27.0643 2.67884C27.2151 2.38938 27.4094 2.12308 27.6443 1.89731L27.9052 1.69469C28.0415 1.54417 28.1981 1.41971 28.3721 1.3184L28.6881 1.20262L29.1811 1H30.4018C31.4921 1.11289 32.4518 1.76416 32.9535 2.73673L39.3877 15.6753C39.8517 16.6219 40.7534 17.2789 41.7944 17.4381L56.2055 19.5251C57.4234 19.6988 58.4411 20.5382 58.8442 21.696C59.224 22.8567 58.8964 24.1303 58.0033 24.9668L47.1587 35.2135Z" fill="#FFD89E" fill-opacity="0.4"/>
<path d="M49.3035 52.1733L49.3036 52.1737C49.5556 53.5725 48.9652 54.9872 47.7959 55.7964C46.6492 56.6299 45.1275 56.7285 43.8805 56.0621C43.8797 56.0617 43.8789 56.0613 43.8782 56.0609L31.0408 49.3771L31.037 49.3752C30.6628 49.1762 30.2451 49.0677 29.8144 49.0545H29.0752C28.8702 49.0887 28.6723 49.1557 28.493 49.2537L28.4849 49.2581L28.4849 49.258L15.6396 55.9763L15.632 55.9802L15.632 55.9802C14.904 56.3452 14.0789 56.4749 13.27 56.3453L13.2563 56.3431L13.2563 56.3429C11.2737 55.9685 9.94992 54.0826 10.275 52.092L10.2764 52.0835L10.2765 52.0835L12.8564 37.8465C12.9995 36.9697 12.7082 36.0788 12.0749 35.4556C12.0745 35.4552 12.0741 35.4547 12.0737 35.4543L1.60594 25.3262L1.60576 25.326C0.591346 24.3435 0.237314 22.8668 0.700755 21.5335C1.14941 20.2123 2.29302 19.2481 3.67378 19.0311L3.67971 19.0302L3.67972 19.0302L18.0908 16.9433C18.0976 16.9423 18.1044 16.9414 18.1113 16.9407C19.0364 16.8455 19.8493 16.2838 20.266 15.4536C20.2664 15.4528 20.2668 15.4521 20.2671 15.4514L26.6151 2.45933L26.6207 2.44776L26.6209 2.44784C26.7947 2.11413 27.0207 1.80314 27.2978 1.53685C27.3104 1.52466 27.3237 1.51315 27.3376 1.50237L27.566 1.32505C27.7311 1.14961 27.9177 1.0044 28.1205 0.886319C28.1458 0.871534 28.1725 0.859016 28.2001 0.84891L28.507 0.736468L28.991 0.537544C29.0513 0.512754 29.1159 0.5 29.1811 0.5H30.4018C30.419 0.5 30.4362 0.500887 30.4533 0.502659C31.7101 0.632791 32.8183 1.3839 33.3978 2.50753L33.4012 2.51407L33.4012 2.51409L39.8354 15.4527L39.8367 15.4553C40.2277 16.2529 40.9884 16.8084 41.8682 16.9436C41.8688 16.9437 41.8694 16.9438 41.87 16.9439L56.2761 19.0301L49.3035 52.1733ZM49.3035 52.1733L46.727 37.9393C46.7268 37.9382 46.7266 37.937 46.7264 37.9359C46.5836 37.069 46.874 36.1859 47.5043 35.5748C47.505 35.5742 47.5057 35.5735 47.5064 35.5729L58.3451 25.3317C58.3454 25.3315 58.3456 25.3313 58.3459 25.331C59.3797 24.3621 59.7597 22.8861 59.3194 21.5405L59.3195 21.5404M49.3035 52.1733L59.3195 21.5404M59.3195 21.5404L59.3164 21.5316M59.3195 21.5404L59.3164 21.5316M59.3164 21.5316C58.852 20.1975 57.6798 19.2307 56.2772 19.0302L59.3164 21.5316Z" stroke="url(#paint0_linear)" stroke-linecap="round" stroke-linejoin="round"/>
</g>
<defs>
<filter id="filter0_b" x="-16" y="-16" width="92.0001" height="89" filterUnits="userSpaceOnUse" color-interpolation-filters="sRGB">
<feFlood flood-opacity="0" result="BackgroundImageFix"/>
<feGaussianBlur in="BackgroundImage" stdDeviation="8"/>
<feComposite in2="SourceAlpha" operator="in" result="effect1_backgroundBlur"/>
<feBlend mode="normal" in="SourceGraphic" in2="effect1_backgroundBlur" result="shape"/>
</filter>
<linearGradient id="paint0_linear" x1="4.91891" y1="24.1614" x2="57.7783" y2="56.2725" gradientUnits="userSpaceOnUse">
<stop stop-color="white" stop-opacity="0.25"/>
<stop offset="1" stop-color="white" stop-opacity="0"/>
</linearGradient>
</defs>
</svg>
