<svg width="47" height="45" viewBox="0 0 47 45" fill="none" xmlns="http://www.w3.org/2000/svg">
<path d="M37.824 26.4543C37.2806 27.072 37.0803 27.9141 37.2864 28.7048L40.3032 39.6174C40.558 40.5423 40.2389 41.5289 39.4874 42.1421C38.7537 42.7742 37.7173 42.9331 36.8229 42.557L26.2161 38.2374C25.847 38.0834 25.4465 38.0185 25.0445 38.0423L24.4237 38.0967C24.2111 38.1471 24.0063 38.2331 23.8231 38.3537L14.1365 44.4736C13.6567 44.7655 13.0963 44.9031 12.5319 44.8639C11.1533 44.7301 10.136 43.5379 10.2397 42.1772L11.2986 30.908C11.3622 30.0869 11.0169 29.288 10.3727 28.7651L1.40289 21.599C0.652653 20.9991 0.324451 20.0283 0.561516 19.1057C0.789617 18.1862 1.51555 17.4661 2.44876 17.2368L13.6911 14.6154C14.5494 14.4517 15.2641 13.8667 15.5859 13.0662L19.7086 2.50579C19.8078 2.26995 19.943 2.04913 20.113 1.85706L20.3052 1.68123C20.4026 1.55459 20.5177 1.44683 20.6482 1.35591L20.8899 1.2439L21.2654 1.05203L22.2299 0.967644C23.0991 0.980196 23.9022 1.42105 24.3655 2.1438L30.3396 11.7754C30.7713 12.4805 31.529 12.9298 32.3624 12.9819L43.892 13.611C44.8662 13.6621 45.7281 14.2455 46.1262 15.1193C46.5062 15.997 46.335 17.0115 45.6869 17.7247L37.824 26.4543Z" fill="url(#paint0_linear)"/>
<defs>
<linearGradient id="paint0_linear" x1="1.44086" y1="-1.17681" x2="26.3444" y2="57.4637" gradientUnits="userSpaceOnUse">
<stop stop-color="#FFD89E" stop-opacity="0.5"/>
<stop offset="0.9999" stop-color="#FFC120"/>
</linearGradient>
</defs>
</svg>
