<svg width="40" height="40" viewBox="0 0 40 40" fill="none" xmlns="http://www.w3.org/2000/svg">
<path d="M5.69409 5.98147C7.47911 4.0665 10.0175 3 13.0017 3H19.3555C20.1839 3 20.8555 3.67157 20.8555 4.5C20.8555 5.32843 20.1839 6 19.3555 6H13.0017C10.7605 6 9.04806 6.78312 7.88857 8.02702C6.71818 9.28262 6 11.1292 6 13.4363V27.5637C6 29.8727 6.71545 31.719 7.88349 32.9737C9.04025 34.2163 10.7519 35 13.0017 35H27.9966C30.2474 35 31.9595 34.2162 33.1164 32.9736C34.2846 31.7189 35 29.8727 35 27.5637V20.7192C35 19.8908 35.6716 19.2192 36.5 19.2192C37.3284 19.2192 38 19.8908 38 20.7192V27.5637C38 30.4918 37.0849 33.1137 35.312 35.0179C33.5278 36.9342 30.9882 38 27.9966 38H13.0017C10.0108 38 7.47162 36.9341 5.68769 35.0178C3.91505 33.1136 3 30.4918 3 27.5637V13.4363C3 10.5064 3.91997 7.88475 5.69409 5.98147Z" fill="#FF4B23"/>
<path fill-rule="evenodd" clip-rule="evenodd" d="M34.8643 16.1243L36.3723 14.6099C38.5431 12.4315 38.5421 8.89935 36.3723 6.72024L34.2965 4.63553C32.1228 2.45482 28.5973 2.45482 26.4236 4.63553L24.9684 6.09696C24.7755 6.16991 24.5946 6.28404 24.4393 6.43934C24.2824 6.59625 24.1675 6.77928 24.0947 6.97443L13.6801 17.4338C12.7367 18.3813 12.1942 19.6551 12.1607 20.9895L12.0005 27.4629C11.9905 27.867 12.144 28.2581 12.4263 28.5475C12.7086 28.8368 13.0957 29 13.5 29H19.8876C21.2702 29 22.5936 28.4479 23.568 27.4692L34.1302 16.8617C34.2861 16.7895 34.4321 16.6892 34.5607 16.5607C34.6908 16.4305 34.792 16.2824 34.8643 16.1243ZM32.1718 6.75344C31.1704 5.74885 29.5497 5.74885 28.5483 6.75344L27.7133 7.59201L33.4322 13.3109L34.2464 12.4931C35.2501 11.4862 35.2515 9.84641 34.2464 8.837L32.1718 6.75344ZM31.3154 15.4367L25.5966 9.71788L15.806 19.5505C15.4059 19.9524 15.1742 20.4941 15.1598 21.0638L15.0376 26H19.8876C20.4694 26 21.0286 25.7678 21.4422 25.3525L31.3154 15.4367Z" fill="#FF4B23"/>
</svg>
