<svg width="40" height="40" viewBox="0 0 40 40" fill="none" xmlns="http://www.w3.org/2000/svg">
<path fill-rule="evenodd" clip-rule="evenodd" d="M35.9964 15.8646C34.9688 9.1742 29.5968 4.19687 23.1921 4.00093C22.8876 3.9883 22.5908 4.10429 22.3672 4.32332C22.1436 4.54235 22.0115 4.84646 22 5.16862V5.16862V5.27761L22.7212 16.6898C22.7685 17.458 23.3928 18.042 24.1193 17.9976L34.9367 17.2347C35.2415 17.2109 35.5247 17.0595 35.7236 16.814C35.9225 16.5685 36.0207 16.2492 35.9964 15.9269V15.8646Z" stroke="#FF4B23" stroke-width="3" stroke-linecap="round" stroke-linejoin="round"/>
<path d="M14.9765 11.0388C15.6712 10.8765 16.3822 11.2354 16.6705 11.8939C16.746 12.0488 16.7914 12.2169 16.8042 12.389C16.9528 14.5195 17.2649 19.1854 17.4432 21.7059C17.4737 22.1599 17.6821 22.583 18.0223 22.8814C18.3626 23.1799 18.8066 23.3292 19.2562 23.2962V23.2962L28.4248 22.7261C28.8342 22.7012 29.2354 22.8483 29.5337 23.1324C29.832 23.4165 30.0007 23.8124 30 24.2264V24.2264C29.6284 29.8162 25.6506 34.4893 20.2327 35.7006C14.8149 36.9119 9.25483 34.3713 6.5805 29.4624C5.78216 28.0496 5.27659 26.4877 5.09449 24.8715C5.01665 24.3755 4.98679 23.8731 5.00533 23.3712C5.0211 17.4017 9.17359 12.2582 14.9616 11.0388" stroke="#FF4B23" stroke-width="3" stroke-linecap="round" stroke-linejoin="round"/>
</svg>
