<svg width="193" height="79" viewBox="0 0 193 79" fill="none" xmlns="http://www.w3.org/2000/svg">
<rect x="1" y="1" width="191" height="77" rx="16" fill="white" stroke="#FCFCFD"/>
<path d="M122.187 26.592C122.614 26.592 122.912 26.5013 123.083 26.32C123.254 26.1387 123.339 25.9627 123.339 25.792C123.339 25.696 123.318 25.568 123.275 25.408C123.243 25.248 123.174 25.0027 123.067 24.672C122.96 24.3413 122.806 23.8987 122.603 23.344C122.4 22.7787 122.139 22.048 121.819 21.152L123.067 20.64L124.747 25.392C124.896 25.8293 125.072 26.1387 125.275 26.32C125.478 26.5013 125.776 26.592 126.171 26.592H126.379C126.614 26.592 126.731 26.8213 126.731 27.28C126.731 27.76 126.614 28 126.379 28H126.171C125.819 28 125.478 27.936 125.147 27.808C124.827 27.68 124.534 27.3973 124.267 26.96C124.043 27.3653 123.76 27.6427 123.419 27.792C123.088 27.9307 122.726 28 122.331 28H118.891L118.811 26.592H122.187ZM127.831 26.592C128.215 26.592 128.514 26.4907 128.727 26.288C128.951 26.0853 129.063 25.7973 129.063 25.424V23.376H130.375V25.488C130.375 26.2987 130.156 26.9227 129.719 27.36C129.292 27.7867 128.695 28 127.927 28H126.375C126.236 28 126.146 27.9467 126.103 27.84C126.05 27.7227 126.023 27.552 126.023 27.328C126.023 27.072 126.05 26.8853 126.103 26.768C126.146 26.6507 126.236 26.592 126.375 26.592H127.831ZM130.039 31.168H128.631V29.824H130.039V31.168ZM127.863 31.168H126.439V29.824H127.863V31.168ZM137.906 24.096C138.183 24.416 138.386 24.736 138.514 25.056C138.642 25.3653 138.706 25.6693 138.706 25.968C138.706 26.256 138.653 26.5227 138.546 26.768C138.439 27.0133 138.285 27.2267 138.082 27.408C137.89 27.5893 137.645 27.7333 137.346 27.84C137.047 27.9467 136.706 28 136.322 28H131.938L131.858 26.592H136.13C136.471 26.592 136.733 26.5173 136.914 26.368C137.095 26.208 137.186 26.0053 137.186 25.76C137.186 25.4827 137.063 25.2107 136.818 24.944L133.97 21.696L134.994 20.736L137.906 24.096ZM142.332 27.744C142.332 28.3413 142.231 28.8907 142.028 29.392C141.836 29.904 141.57 30.3413 141.228 30.704C140.887 31.0773 140.482 31.3653 140.012 31.568C139.543 31.7707 139.036 31.872 138.492 31.872H137.516L137.436 30.48H138.172C138.684 30.48 139.122 30.4 139.484 30.24C139.836 30.0907 140.124 29.888 140.348 29.632C140.583 29.376 140.754 29.0827 140.86 28.752C140.967 28.432 141.02 28.096 141.02 27.744V23.376H142.332V27.744ZM142.38 21.408H140.812V20.032H142.38V21.408ZM146.467 28C146.179 28 145.901 27.9627 145.635 27.888C145.368 27.8027 145.133 27.664 144.931 27.472C144.739 27.28 144.584 27.0293 144.467 26.72C144.349 26.4 144.291 26.0053 144.291 25.536V18.08H145.603V25.248C145.603 25.6533 145.688 25.9787 145.859 26.224C146.04 26.4693 146.323 26.592 146.707 26.592H147.027C147.261 26.592 147.379 26.8213 147.379 27.28C147.379 27.76 147.261 28 147.027 28H146.467ZM148.487 26.592C148.871 26.592 149.17 26.4907 149.383 26.288C149.607 26.0853 149.719 25.7973 149.719 25.424V23.376H151.031V25.488C151.031 26.2987 150.813 26.9227 150.375 27.36C149.949 27.7867 149.351 28 148.583 28H147.031C146.893 28 146.802 27.9467 146.759 27.84C146.706 27.7227 146.679 27.552 146.679 27.328C146.679 27.072 146.706 26.8853 146.759 26.768C146.802 26.6507 146.893 26.592 147.031 26.592H148.487ZM149.223 31.2H147.655V29.824H149.223V31.2ZM153.887 30.48H154.159C154.649 30.48 155.065 30.4 155.407 30.24C155.759 30.0907 156.047 29.888 156.271 29.632C156.495 29.376 156.66 29.0827 156.767 28.752C156.873 28.432 156.927 28.096 156.927 27.744V23.376H158.239V27.744C158.239 28.3413 158.137 28.8907 157.935 29.392C157.743 29.904 157.471 30.3413 157.119 30.704C156.777 31.0773 156.372 31.3653 155.903 31.568C155.444 31.7707 154.943 31.872 154.399 31.872H153.967L153.887 30.48ZM162.357 28C162.069 28 161.792 27.9627 161.525 27.888C161.259 27.8027 161.024 27.664 160.821 27.472C160.629 27.28 160.475 27.0293 160.357 26.72C160.24 26.4 160.181 26.0053 160.181 25.536V18.08H161.493V25.248C161.493 25.6533 161.579 25.9787 161.749 26.224C161.931 26.4693 162.213 26.592 162.597 26.592H162.917C163.152 26.592 163.269 26.8213 163.269 27.28C163.269 27.76 163.152 28 162.917 28H162.357ZM163.13 26.592C163.941 26.592 164.346 26.2507 164.346 25.568V25.072C164.346 24.1653 164.581 23.4507 165.05 22.928C165.53 22.3947 166.191 22.128 167.034 22.128C167.471 22.128 167.855 22.2027 168.186 22.352C168.517 22.4907 168.794 22.688 169.018 22.944C169.242 23.2 169.407 23.5093 169.514 23.872C169.631 24.224 169.69 24.6133 169.69 25.04C169.69 25.9787 169.45 26.7093 168.97 27.232C168.49 27.744 167.829 28 166.986 28C166.559 28 166.149 27.92 165.754 27.76C165.37 27.5893 165.071 27.3067 164.858 26.912C164.762 27.136 164.645 27.3227 164.506 27.472C164.367 27.6107 164.223 27.7227 164.074 27.808C163.925 27.8827 163.765 27.936 163.594 27.968C163.434 27.9893 163.279 28 163.13 28H162.922C162.783 28 162.693 27.9467 162.65 27.84C162.597 27.7227 162.57 27.552 162.57 27.328C162.57 27.072 162.597 26.8853 162.65 26.768C162.693 26.6507 162.783 26.592 162.922 26.592H163.13ZM168.41 25.136C168.41 24.6667 168.303 24.2827 168.09 23.984C167.887 23.6853 167.525 23.536 167.002 23.536C166.522 23.536 166.165 23.68 165.93 23.968C165.706 24.256 165.594 24.6613 165.594 25.184C165.594 25.6533 165.722 26.0053 165.978 26.24C166.245 26.4747 166.581 26.592 166.986 26.592C167.466 26.592 167.823 26.4693 168.058 26.224C168.293 25.968 168.41 25.6053 168.41 25.136ZM171.619 20.368H172.931V28H171.619V20.368ZM171.443 18.656C171.23 18.656 171.064 18.6773 170.947 18.72C170.83 18.7627 170.728 18.8907 170.643 19.104L170.307 19.84L169.459 19.44L169.907 18.432C170.003 18.2293 170.099 18.064 170.195 17.936C170.28 17.808 170.382 17.7067 170.499 17.632C170.606 17.5573 170.728 17.5093 170.867 17.488C171.016 17.456 171.192 17.44 171.395 17.44H174.467L174.419 18.656H171.443Z" fill="#999BB3"/>
<path d="M140.552 51.0522C140.569 51.6493 140.624 52.2609 140.717 52.887C140.81 53.513 140.929 54.113 141.074 54.687C141.224 55.2609 141.395 55.7855 141.587 56.2609C141.778 56.7362 141.981 57.1159 142.195 57.4L140.169 58.9739C139.932 58.7188 139.723 58.4174 139.543 58.0696C139.363 57.7275 139.21 57.3594 139.082 56.9652C138.955 56.5652 138.848 56.1507 138.761 55.7217C138.674 55.2928 138.601 54.8667 138.543 54.4435C138.491 54.0145 138.45 53.6 138.421 53.2C138.392 52.7942 138.369 52.4203 138.352 52.0783C138.149 52.1014 137.92 52.1188 137.665 52.1304C137.416 52.1362 137.192 52.1391 136.995 52.1391C136.503 52.1391 136.036 52.087 135.595 51.9826C135.161 51.8783 134.775 51.6986 134.439 51.4435C134.108 51.1826 133.839 50.8377 133.63 50.4087C133.421 49.9797 133.3 49.4406 133.265 48.7913C133.265 48.4609 133.305 48.1246 133.387 47.7826C133.468 47.4348 133.584 47.1014 133.734 46.7826C133.885 46.458 134.065 46.1565 134.274 45.8783C134.488 45.5942 134.723 45.3507 134.978 45.1478C135.239 44.9391 135.517 44.7768 135.813 44.6609C136.114 44.5449 136.43 44.4928 136.761 44.5043C136.987 44.5159 137.23 44.5594 137.491 44.6348C137.758 44.7043 138.021 44.829 138.282 45.0087C138.549 45.1826 138.81 45.4261 139.065 45.7391C139.32 46.0522 139.552 46.4522 139.761 46.9391C139.882 47.2348 139.99 47.5652 140.082 47.9304C140.181 48.2957 140.262 48.6638 140.326 49.0348C140.39 49.4058 140.439 49.7681 140.474 50.1217C140.514 50.4754 140.54 50.7855 140.552 51.0522ZM136.839 49.4348C136.926 49.4348 137.024 49.4348 137.134 49.4348C137.25 49.429 137.369 49.4232 137.491 49.4174C137.613 49.4116 137.729 49.4058 137.839 49.4C137.955 49.3884 138.053 49.3768 138.134 49.3652C138.105 49.1623 138.05 48.9362 137.969 48.687C137.894 48.4377 137.792 48.2 137.665 47.9739C137.543 47.7478 137.392 47.5536 137.213 47.3913C137.039 47.2232 136.842 47.1246 136.621 47.0957C136.488 47.0783 136.349 47.1246 136.204 47.2348C136.065 47.3449 135.937 47.487 135.821 47.6609C135.705 47.829 135.607 48.0116 135.526 48.2087C135.45 48.4058 135.413 48.5855 135.413 48.7478C135.413 48.887 135.456 49.0029 135.543 49.0957C135.63 49.1826 135.743 49.2522 135.882 49.3043C136.021 49.3565 136.175 49.3913 136.343 49.4087C136.511 49.4261 136.677 49.4348 136.839 49.4348ZM144.372 48.1478L143.042 47.3739C143.604 46.4986 143.894 45.5913 143.911 44.6522V43H146.155V44.513C146.155 45.0986 145.993 45.7333 145.668 46.4174C145.343 47.1014 144.911 47.6783 144.372 48.1478ZM154.058 52.4696C153.64 52.4696 153.232 52.4319 152.832 52.3565C152.432 52.2754 152.049 52.1449 151.684 51.9652C151.753 52.5913 151.808 53.1942 151.849 53.7739C151.89 54.3536 151.921 54.9188 151.945 55.4696C151.968 56.0145 151.982 56.5478 151.988 57.0696C151.994 57.5855 151.997 58.0986 151.997 58.6087H149.327C149.327 57.4377 149.304 56.2812 149.258 55.1391C149.211 53.9913 149.113 52.8899 148.962 51.8348C148.817 50.7797 148.603 49.7884 148.319 48.8609C148.04 47.9275 147.664 47.0899 147.188 46.3478L149.44 44.9304C149.626 45.2435 149.8 45.5362 149.962 45.8087C150.124 46.0812 150.266 46.3565 150.388 46.6348C150.597 46.3217 150.843 46.0522 151.127 45.8261C151.411 45.5942 151.716 45.4029 152.04 45.2522C152.371 45.1014 152.716 44.9884 153.075 44.913C153.435 44.8377 153.794 44.8 154.153 44.8C154.403 44.8 154.652 44.8174 154.901 44.8522C155.156 44.887 155.411 44.9478 155.666 45.0348C155.921 45.1217 156.174 45.2377 156.423 45.3826C156.678 45.5275 156.927 45.7101 157.171 45.9304L155.779 48.1217C155.779 48.1159 155.727 48.0812 155.623 48.0174C155.524 47.9478 155.382 47.8725 155.197 47.7913C155.017 47.7101 154.803 47.6377 154.553 47.5739C154.304 47.5043 154.032 47.4696 153.736 47.4696C153.487 47.4696 153.235 47.5159 152.979 47.6087C152.724 47.7014 152.495 47.8203 152.292 47.9652C152.09 48.1043 151.927 48.2609 151.806 48.4348C151.69 48.6087 151.646 48.7739 151.675 48.9304V48.9217C151.71 49.1072 151.811 49.258 151.979 49.3739C152.153 49.4899 152.356 49.5826 152.588 49.6522C152.826 49.7217 153.072 49.771 153.327 49.8C153.582 49.8232 153.814 49.8348 154.023 49.8348C154.226 49.8348 154.446 49.8203 154.684 49.7913C154.921 49.7565 155.162 49.7072 155.406 49.6435C155.655 49.5797 155.898 49.5014 156.136 49.4087C156.374 49.3101 156.594 49.1971 156.797 49.0696L157.919 51.1565C157.235 51.6551 156.568 52 155.919 52.1913C155.275 52.3768 154.655 52.4696 154.058 52.4696ZM158.517 57.9565C158.552 57.7536 158.636 57.4899 158.769 57.1652C158.902 56.8406 159.068 56.487 159.265 56.1043C159.462 55.7159 159.679 55.3217 159.917 54.9217C160.16 54.5159 160.404 54.1333 160.647 53.7739C160.897 53.4087 161.137 53.087 161.369 52.8087C161.601 52.5304 161.807 52.3246 161.987 52.1913C161.627 52.1159 161.294 51.9826 160.987 51.7913C160.679 51.6 160.41 51.3652 160.178 51.087C159.946 50.8029 159.763 50.4841 159.63 50.1304C159.502 49.7768 159.439 49.4029 159.439 49.0087C159.439 48.4116 159.569 47.8609 159.83 47.3565C160.097 46.8522 160.444 46.4174 160.873 46.0522C161.308 45.687 161.804 45.4029 162.36 45.2C162.917 44.9913 163.488 44.887 164.073 44.887C164.543 44.887 165.016 44.9681 165.491 45.1304C165.966 45.287 166.465 45.513 166.987 45.8087L165.778 47.8087C165.598 47.7275 165.427 47.6667 165.265 47.6261C165.108 47.5797 164.955 47.5478 164.804 47.5304C164.659 47.513 164.517 47.5043 164.378 47.5043C164.239 47.4986 164.102 47.4957 163.969 47.4957C163.778 47.4957 163.558 47.5275 163.308 47.5913C163.059 47.6493 162.824 47.7391 162.604 47.8609C162.384 47.9826 162.198 48.1362 162.047 48.3217C161.897 48.5072 161.821 48.7246 161.821 48.9739C161.821 49.1594 161.873 49.3101 161.978 49.4261C162.082 49.542 162.21 49.6319 162.36 49.6957C162.517 49.7594 162.682 49.8 162.856 49.8174C163.03 49.8348 163.187 49.8377 163.326 49.8261C163.587 49.8319 163.862 49.8145 164.152 49.7739C164.442 49.7275 164.74 49.6696 165.047 49.6C165.355 49.5304 165.665 49.4522 165.978 49.3652C166.291 49.2725 166.601 49.1826 166.908 49.0957L167.856 51.3913C167.021 51.7101 166.282 52.0899 165.639 52.5304C164.995 52.971 164.43 53.4377 163.943 53.9304C163.462 54.4174 163.05 54.9101 162.708 55.4087C162.372 55.9072 162.091 56.3768 161.865 56.8174C161.639 57.2522 161.456 57.6406 161.317 57.9826C161.184 58.3188 161.082 58.571 161.013 58.7391L158.517 57.9565ZM170.508 58.5043C170.508 57.7391 170.502 56.9652 170.49 56.1826C170.485 55.3942 170.461 54.6174 170.421 53.8522C170.386 53.0812 170.334 52.3246 170.264 51.5826C170.195 50.8406 170.096 50.1304 169.969 49.4522C169.847 48.7681 169.693 48.1246 169.508 47.5217C169.322 46.9188 169.096 46.3681 168.83 45.8696L171.047 44.487C171.348 44.9565 171.601 45.4493 171.803 45.9652C172.006 46.4812 172.175 47.0174 172.308 47.5739C172.447 48.1246 172.56 48.6928 172.647 49.2783C172.74 49.858 172.827 50.4493 172.908 51.0522C172.966 51.5159 173.012 52.0174 173.047 52.5565C173.082 53.0957 173.108 53.6435 173.125 54.2C173.148 54.7565 173.163 55.3072 173.169 55.8522C173.175 56.3971 173.177 56.9072 173.177 57.3826V58.5043H170.508Z" fill="#535879"/>
<path d="M36.5 41.9245C31.5001 41.9245 27 58.5455 20.0001 58.5455C19.9999 61.0283 20.0001 64 20.0001 64H106.5V19C97 19 99.5001 42.7736 93.0001 42.7736C86.5001 42.7736 87.0001 24.9434 83.0001 24.9434C79.0001 24.9434 77.5001 46.5943 71.5001 46.5943C62.5001 46.5943 63.8659 34.283 58.5001 34.283C53.1342 34.283 52.5 50.4151 47 50.4151C41.5 50.4151 41.5 41.9245 36.5 41.9245Z" fill="url(#paint0_linear)"/>
<path d="M20 58.5455C28 57.2075 30.5 41.9245 36.5 41.9245C42.5 41.9245 41 50.4151 47 50.4151C53 50.4151 52.6341 34.7075 58 34.7075C63.3659 34.7075 62.9878 46.5943 70.5 46.5943C79.0854 46.5943 78.1707 24.9434 83 24.9434C87.8293 24.9434 86 43.1981 93 43.1981C100 43.1981 95.9216 19 108 19" stroke="#FF4B23" stroke-linecap="round" stroke-linejoin="round"/>
<defs>
<linearGradient id="paint0_linear" x1="61.7317" y1="27.8636" x2="63.5942" y2="59.8609" gradientUnits="userSpaceOnUse">
<stop stop-color="#FFEBD8"/>
<stop offset="1" stop-color="#FFF6D8" stop-opacity="0"/>
</linearGradient>
</defs>
</svg>
