<svg width="72" height="72" viewBox="0 0 72 72" fill="none" xmlns="http://www.w3.org/2000/svg">
<mask id="path-1-outside-1" maskUnits="userSpaceOnUse" x="13.6926" y="6.19476" width="60.0347" height="60.5277" fill="black">
<rect fill="white" x="13.6926" y="6.19476" width="60.0347" height="60.5277"/>
<path fill-rule="evenodd" clip-rule="evenodd" d="M45.1467 12.1513C33.9106 9.5022 22.9025 16.3943 20.5595 27.5453C19.4343 32.9002 20.4987 38.5411 23.5185 43.2272C26.5383 47.9132 31.2662 51.2605 36.662 52.5326C47.8981 55.1817 58.9062 48.2896 61.2492 37.1386C63.5922 25.9876 56.3829 14.8004 45.1467 12.1513ZM53.1527 55.848L56.7279 63.0017L56.706 63.1061C57.6762 64.6116 59.6636 65.0802 61.145 64.1527C62.6263 63.2252 63.0408 61.2529 62.0706 59.7474L57.4178 53.4133C57.0433 52.8299 56.4555 52.413 55.7845 52.2548C55.1134 52.0966 54.4142 52.2101 53.8414 52.5701C52.7495 53.2675 52.443 54.7259 53.1527 55.848Z"/>
</mask>
<path fill-rule="evenodd" clip-rule="evenodd" d="M45.1467 12.1513C33.9106 9.5022 22.9025 16.3943 20.5595 27.5453C19.4343 32.9002 20.4987 38.5411 23.5185 43.2272C26.5383 47.9132 31.2662 51.2605 36.662 52.5326C47.8981 55.1817 58.9062 48.2896 61.2492 37.1386C63.5922 25.9876 56.3829 14.8004 45.1467 12.1513ZM53.1527 55.848L56.7279 63.0017L56.706 63.1061C57.6762 64.6116 59.6636 65.0802 61.145 64.1527C62.6263 63.2252 63.0408 61.2529 62.0706 59.7474L57.4178 53.4133C57.0433 52.8299 56.4555 52.413 55.7845 52.2548C55.1134 52.0966 54.4142 52.2101 53.8414 52.5701C52.7495 53.2675 52.443 54.7259 53.1527 55.848Z" fill="#FFF3D3"/>
<path d="M20.5595 27.5453L21.5336 27.7712L20.5595 27.5453ZM45.1467 12.1513L45.356 11.1734L45.1467 12.1513ZM23.5185 43.2272L22.6868 43.7634L22.6868 43.7634L23.5185 43.2272ZM36.662 52.5326L36.8712 51.5547L36.8712 51.5547L36.662 52.5326ZM61.2492 37.1386L62.2234 37.3645L61.2492 37.1386ZM56.7279 63.0017L57.6153 62.563C57.7184 62.7695 57.7491 63.004 57.7021 63.2277L56.7279 63.0017ZM53.1527 55.848L53.9891 55.3191C54.0076 55.3483 54.0246 55.3784 54.04 55.4093L53.1527 55.848ZM56.706 63.1061L55.8743 63.6424C55.7283 63.4158 55.677 63.1414 55.7318 62.8802L56.706 63.1061ZM61.145 64.1527L60.6085 63.2965L60.6086 63.2965L61.145 64.1527ZM62.0706 59.7474L62.8666 59.1592C62.879 59.1761 62.8909 59.1934 62.9023 59.2111L62.0706 59.7474ZM57.4178 53.4133L56.6219 54.0015C56.6091 53.9841 56.5968 53.9663 56.5852 53.9481L57.4178 53.4133ZM55.7845 52.2548L55.9937 51.2769L55.9937 51.277L55.7845 52.2548ZM53.8414 52.5701L53.2977 51.7185L53.3036 51.7148L53.8414 52.5701ZM19.5853 27.3194C22.0447 15.6144 33.5929 8.40009 45.356 11.1734L44.9375 13.1292C34.2282 10.6043 23.7602 17.1742 21.5336 27.7712L19.5853 27.3194ZM22.6868 43.7634C19.5224 38.853 18.4048 32.9379 19.5853 27.3194L21.5336 27.7712C20.4639 32.8625 21.4751 38.2293 24.3502 42.6909L22.6868 43.7634ZM36.4527 53.5105C30.8029 52.1785 25.8509 48.6734 22.6868 43.7634L24.3502 42.6909C27.2257 47.1529 31.7294 50.3425 36.8712 51.5547L36.4527 53.5105ZM62.2234 37.3645C59.764 49.0695 48.2158 56.2838 36.4527 53.5105L36.8712 51.5547C47.5804 54.0796 58.0485 47.5097 60.2751 36.9127L62.2234 37.3645ZM45.356 11.1734C57.1164 13.9462 64.6822 25.6625 62.2234 37.3645L60.2751 36.9127C62.5023 26.3128 55.6494 15.6547 44.9375 13.1292L45.356 11.1734ZM55.8406 63.4404L52.2654 56.2867L54.04 55.4093L57.6153 62.563L55.8406 63.4404ZM55.7318 62.8802L55.7538 62.7758L57.7021 63.2277L57.6802 63.332L55.7318 62.8802ZM61.6814 65.0089C59.7381 66.2255 57.1421 65.6097 55.8743 63.6424L57.5377 62.5698C58.2103 63.6135 59.589 63.9348 60.6085 63.2965L61.6814 65.0089ZM62.9023 59.2111C64.1756 61.187 63.6332 63.7868 61.6814 65.0089L60.6086 63.2965C61.6195 62.6635 61.9059 61.3188 61.2389 60.2837L62.9023 59.2111ZM58.2138 52.8251L62.8666 59.1592L61.2746 60.3356L56.6219 54.0015L58.2138 52.8251ZM55.9937 51.277C56.9193 51.4952 57.7316 52.0704 58.2505 52.8785L56.5852 53.9481C56.3549 53.5894 55.9917 53.3309 55.5752 53.2327L55.9937 51.277ZM53.3036 51.7148C54.0998 51.2143 55.0679 51.0587 55.9937 51.2769L55.5752 53.2327C55.1589 53.1346 54.7287 53.2058 54.3793 53.4254L53.3036 51.7148ZM52.3162 56.3769C51.3111 54.7875 51.7437 52.711 53.2977 51.7185L54.3852 53.4217C53.7553 53.824 53.5749 54.6642 53.9891 55.3191L52.3162 56.3769Z" fill="#FFF6DD" mask="url(#path-1-outside-1)"/>
<mask id="mask0" style="mask-type:alpha" maskUnits="userSpaceOnUse" x="19" y="10" width="44" height="45">
<path d="M20.0964 27.4565C22.5106 16.0165 33.7866 8.93943 45.2738 11.6365C56.7609 14.3335 64.1264 25.7873 61.7122 37.2273C59.298 48.6673 48.0221 55.7444 36.5349 53.0474C31.0179 51.7521 26.186 48.3293 23.1027 43.5306C20.0192 38.7316 18.9373 32.9496 20.0964 27.4565Z" fill="#FFEFC7" stroke="url(#paint0_linear)" stroke-linecap="round" stroke-linejoin="round"/>
</mask>
<g mask="url(#mask0)">
<g filter="url(#filter0_f)">
<path d="M42.3082 31.9539C40.0882 23.4861 31.4139 18.5812 22.9337 20.9986C14.4535 23.4159 9.37866 32.2401 11.5987 40.7079C13.8188 49.1758 22.4931 54.0806 30.9733 51.6633C35.0456 50.5024 38.5276 47.7738 40.6534 44.0775C42.7791 40.3813 43.3744 36.0203 42.3082 31.9539Z" fill="#FBC762"/>
</g>
</g>
<defs>
<filter id="filter0_f" x="1.07739" y="10.382" width="51.7484" height="51.898" filterUnits="userSpaceOnUse" color-interpolation-filters="sRGB">
<feFlood flood-opacity="0" result="BackgroundImageFix"/>
<feBlend mode="normal" in="SourceGraphic" in2="BackgroundImageFix" result="shape"/>
<feGaussianBlur stdDeviation="5" result="effect1_foregroundBlur"/>
</filter>
<linearGradient id="paint0_linear" x1="28.2261" y1="14.9025" x2="54.7178" y2="48.3712" gradientUnits="userSpaceOnUse">
<stop stop-color="white" stop-opacity="0.25"/>
<stop offset="1" stop-color="white" stop-opacity="0"/>
</linearGradient>
</defs>
</svg>
