<svg width="72" height="72" viewBox="0 0 72 72" fill="none" xmlns="http://www.w3.org/2000/svg">
<g filter="url(#filter0_b)">
<path d="M49.7455 19.6465H32.5283C26.2831 19.6465 22.647 23.3797 22.647 29.7765V51.4417C22.647 57.9434 26.2831 61.5927 32.5283 61.5927H49.7455C56.0913 61.5927 59.6247 57.9434 59.6247 51.4417V29.7765C59.6247 23.3797 56.0913 19.6465 49.7455 19.6465Z" fill="#D8C0FF"/>
<path d="M49.7455 19.1465H32.5283C29.3055 19.1465 26.6932 20.1119 24.8877 21.9636C23.0839 23.8136 22.147 26.485 22.147 29.7765V51.4417C22.147 54.7837 23.0829 57.4618 24.8885 59.3052C26.6955 61.15 29.3086 62.0927 32.5283 62.0927H49.7455C53.0136 62.0927 55.628 61.151 57.4233 59.3038C59.2166 57.4587 60.1247 54.78 60.1247 51.4417V29.7765C60.1247 26.4887 59.2156 23.8166 57.4241 21.965C55.6303 20.1109 53.0167 19.1465 49.7455 19.1465Z" stroke="url(#paint0_linear)" stroke-linecap="round" stroke-linejoin="round"/>
</g>
<mask id="mask0" style="mask-type:alpha" maskUnits="userSpaceOnUse" x="21" y="18" width="40" height="45">
<path d="M49.7455 19.1465H32.5283C29.3055 19.1465 26.6932 20.1119 24.8877 21.9636C23.0839 23.8136 22.147 26.485 22.147 29.7765V51.4417C22.147 54.7837 23.0829 57.4618 24.8885 59.3052C26.6955 61.15 29.3086 62.0927 32.5283 62.0927H49.7455C53.0136 62.0927 55.628 61.151 57.4233 59.3038C59.2166 57.4587 60.1247 54.78 60.1247 51.4417V29.7765C60.1247 26.4887 59.2156 23.8166 57.4241 21.965C55.6303 20.1109 53.0167 19.1465 49.7455 19.1465Z" fill="#CEB1FF" stroke="url(#paint1_linear)" stroke-linecap="round" stroke-linejoin="round"/>
</mask>
<g mask="url(#mask0)">
<g filter="url(#filter1_f)">
<path d="M40.1344 10.4073H22.8928C16.6389 10.4073 12.959 14.1353 12.8928 20.523L12.6688 42.1576C12.6015 48.6501 16.2051 52.2942 22.459 52.2942H39.7007C46.0554 52.2942 49.6316 48.6501 49.6988 42.1576L49.9229 20.523C49.989 14.1353 46.4892 10.4073 40.1344 10.4073Z" fill="url(#paint2_linear)"/>
</g>
<g filter="url(#filter2_bd)">
<mask id="path-5-inside-1" fill="white">
<path fill-rule="evenodd" clip-rule="evenodd" d="M33.0838 29.3999V29.4209C32.1984 29.4209 31.4814 30.1549 31.4814 31.0568C31.4814 31.9586 32.1984 32.6927 33.0838 32.6927H39.2242C40.1096 32.6927 40.8286 31.9586 40.8286 31.0337C40.8286 30.134 40.1096 29.3999 39.2242 29.3999H33.0838ZM49.1887 42.1728H33.0828C32.1974 42.1728 31.4804 41.4388 31.4804 40.5369C31.4804 39.6351 32.1974 38.8989 33.0828 38.8989H49.1887C50.072 38.8989 50.791 39.6351 50.791 40.5369C50.791 41.4388 50.072 42.1728 49.1887 42.1728ZM49.1888 51.7575H33.083C32.4667 51.8414 31.8709 51.5268 31.5422 51.0025C31.2135 50.4572 31.2135 49.765 31.5422 49.2407C31.8709 48.6954 32.4667 48.4018 33.083 48.4647H49.1888C50.0085 48.5486 50.6269 49.2617 50.6269 50.1216C50.6269 50.9584 50.0085 51.6736 49.1888 51.7575Z"/>
</mask>
<path fill-rule="evenodd" clip-rule="evenodd" d="M33.0838 29.3999V29.4209C32.1984 29.4209 31.4814 30.1549 31.4814 31.0568C31.4814 31.9586 32.1984 32.6927 33.0838 32.6927H39.2242C40.1096 32.6927 40.8286 31.9586 40.8286 31.0337C40.8286 30.134 40.1096 29.3999 39.2242 29.3999H33.0838ZM49.1887 42.1728H33.0828C32.1974 42.1728 31.4804 41.4388 31.4804 40.5369C31.4804 39.6351 32.1974 38.8989 33.0828 38.8989H49.1887C50.072 38.8989 50.791 39.6351 50.791 40.5369C50.791 41.4388 50.072 42.1728 49.1887 42.1728ZM49.1888 51.7575H33.083C32.4667 51.8414 31.8709 51.5268 31.5422 51.0025C31.2135 50.4572 31.2135 49.765 31.5422 49.2407C31.8709 48.6954 32.4667 48.4018 33.083 48.4647H49.1888C50.0085 48.5486 50.6269 49.2617 50.6269 50.1216C50.6269 50.9584 50.0085 51.6736 49.1888 51.7575Z" fill="url(#paint3_linear)"/>
<path d="M33.0838 29.4209V29.8209H33.4838V29.4209H33.0838ZM33.0838 29.3999V28.9999H32.6838V29.3999H33.0838ZM33.083 51.7575V51.3575H33.0559L33.029 51.3611L33.083 51.7575ZM49.1888 51.7575V52.1575H49.2093L49.2296 52.1554L49.1888 51.7575ZM31.5422 51.0025L31.1996 51.209L31.2033 51.2149L31.5422 51.0025ZM31.5422 49.2407L31.8812 49.4532L31.8848 49.4472L31.5422 49.2407ZM33.083 48.4647L33.0423 48.8626L33.0626 48.8647H33.083V48.4647ZM49.1888 48.4647L49.2296 48.0668L49.2093 48.0647H49.1888V48.4647ZM33.4838 29.4209V29.3999H32.6838V29.4209H33.4838ZM31.8814 31.0568C31.8814 30.3677 32.4274 29.8209 33.0838 29.8209V29.0209C31.9694 29.0209 31.0814 29.9422 31.0814 31.0568H31.8814ZM33.0838 32.2927C32.4274 32.2927 31.8814 31.7459 31.8814 31.0568H31.0814C31.0814 32.1713 31.9694 33.0927 33.0838 33.0927V32.2927ZM39.2242 32.2927H33.0838V33.0927H39.2242V32.2927ZM40.4286 31.0337C40.4286 31.7489 39.8776 32.2927 39.2242 32.2927V33.0927C40.3415 33.0927 41.2286 32.1683 41.2286 31.0337H40.4286ZM39.2242 29.7999C39.8816 29.7999 40.4286 30.3477 40.4286 31.0337H41.2286C41.2286 29.9202 40.3376 28.9999 39.2242 28.9999V29.7999ZM33.0838 29.7999H39.2242V28.9999H33.0838V29.7999ZM33.0828 42.5728H49.1887V41.7728H33.0828V42.5728ZM31.0804 40.5369C31.0804 41.6515 31.9684 42.5728 33.0828 42.5728V41.7728C32.4264 41.7728 31.8804 41.2261 31.8804 40.5369H31.0804ZM33.0828 38.4989C31.9677 38.4989 31.0804 39.423 31.0804 40.5369H31.8804C31.8804 39.8471 32.4271 39.2989 33.0828 39.2989V38.4989ZM49.1887 38.4989H33.0828V39.2989H49.1887V38.4989ZM51.191 40.5369C51.191 39.4227 50.3014 38.4989 49.1887 38.4989V39.2989C49.8427 39.2989 50.391 39.8475 50.391 40.5369H51.191ZM49.1887 42.5728C50.3007 42.5728 51.191 41.6518 51.191 40.5369H50.391C50.391 41.2257 49.8433 41.7728 49.1887 41.7728V42.5728ZM33.083 52.1575H49.1888V51.3575H33.083V52.1575ZM31.2033 51.2149C31.6064 51.8579 32.3487 52.2611 33.1369 52.1538L33.029 51.3611C32.5847 51.4216 32.1354 51.1957 31.8811 50.79L31.2033 51.2149ZM31.2033 49.0283C30.7916 49.685 30.796 50.5392 31.1997 51.209L31.8848 50.796C31.6311 50.3751 31.6355 49.8451 31.8811 49.4532L31.2033 49.0283ZM33.1236 48.0668C32.3527 47.9881 31.608 48.3568 31.1997 49.0342L31.8848 49.4472C32.1339 49.034 32.5806 48.8155 33.0423 48.8626L33.1236 48.0668ZM49.1888 48.0647H33.083V48.8647H49.1888V48.0647ZM51.0269 50.1216C51.0269 49.0709 50.2673 48.173 49.2296 48.0668L49.1481 48.8626C49.7498 48.9242 50.2269 49.4525 50.2269 50.1216H51.0269ZM49.2296 52.1554C50.2645 52.0495 51.0269 51.1521 51.0269 50.1216H50.2269C50.2269 50.7647 49.7525 51.2977 49.1481 51.3596L49.2296 52.1554Z" fill="url(#paint4_linear)" mask="url(#path-5-inside-1)"/>
</g>
</g>
<defs>
<filter id="filter0_b" x="-2.35303" y="-5.35352" width="86.9778" height="91.9462" filterUnits="userSpaceOnUse" color-interpolation-filters="sRGB">
<feFlood flood-opacity="0" result="BackgroundImageFix"/>
<feGaussianBlur in="BackgroundImage" stdDeviation="12"/>
<feComposite in2="SourceAlpha" operator="in" result="effect1_backgroundBlur"/>
<feBlend mode="normal" in="SourceGraphic" in2="effect1_backgroundBlur" result="shape"/>
</filter>
<filter id="filter1_f" x="2.66785" y="0.407349" width="57.256" height="61.8869" filterUnits="userSpaceOnUse" color-interpolation-filters="sRGB">
<feFlood flood-opacity="0" result="BackgroundImageFix"/>
<feBlend mode="normal" in="SourceGraphic" in2="BackgroundImageFix" result="shape"/>
<feGaussianBlur stdDeviation="5" result="effect1_foregroundBlur"/>
</filter>
<filter id="filter2_bd" x="16.2957" y="14.3999" width="49.4953" height="52.3711" filterUnits="userSpaceOnUse" color-interpolation-filters="sRGB">
<feFlood flood-opacity="0" result="BackgroundImageFix"/>
<feGaussianBlur in="BackgroundImage" stdDeviation="7.5"/>
<feComposite in2="SourceAlpha" operator="in" result="effect1_backgroundBlur"/>
<feColorMatrix in="SourceAlpha" type="matrix" values="0 0 0 0 0 0 0 0 0 0 0 0 0 0 0 0 0 0 127 0" result="hardAlpha"/>
<feOffset dx="5" dy="5"/>
<feGaussianBlur stdDeviation="5"/>
<feColorMatrix type="matrix" values="0 0 0 0 0.577356 0 0 0 0 0.359375 0 0 0 0 0.9375 0 0 0 0.5 0"/>
<feBlend mode="normal" in2="effect1_backgroundBlur" result="effect2_dropShadow"/>
<feBlend mode="normal" in="SourceGraphic" in2="effect2_dropShadow" result="shape"/>
</filter>
<linearGradient id="paint0_linear" x1="28.5332" y1="24.5333" x2="61.6305" y2="59.0257" gradientUnits="userSpaceOnUse">
<stop stop-color="white" stop-opacity="0.25"/>
<stop offset="1" stop-color="white" stop-opacity="0"/>
</linearGradient>
<linearGradient id="paint1_linear" x1="28.5332" y1="24.5333" x2="61.6305" y2="59.0257" gradientUnits="userSpaceOnUse">
<stop stop-color="white" stop-opacity="0.25"/>
<stop offset="1" stop-color="white" stop-opacity="0"/>
</linearGradient>
<linearGradient id="paint2_linear" x1="31.5126" y1="10.4073" x2="31.5126" y2="52.2942" gradientUnits="userSpaceOnUse">
<stop stop-color="#BC94FF"/>
<stop offset="1" stop-color="#9F66FF"/>
</linearGradient>
<linearGradient id="paint3_linear" x1="49.4088" y1="33.4397" x2="27.6873" y2="34.0568" gradientUnits="userSpaceOnUse">
<stop stop-color="white"/>
<stop offset="1" stop-color="white" stop-opacity="0.2"/>
</linearGradient>
<linearGradient id="paint4_linear" x1="34.3991" y1="32.0062" x2="48.9547" y2="47.7164" gradientUnits="userSpaceOnUse">
<stop stop-color="white" stop-opacity="0.25"/>
<stop offset="1" stop-color="white" stop-opacity="0"/>
</linearGradient>
</defs>
</svg>
