<svg width="73" height="72" viewBox="0 0 73 72" fill="none" xmlns="http://www.w3.org/2000/svg">
<g filter="url(#filter0_b)">
<mask id="path-1-outside-1" maskUnits="userSpaceOnUse" x="16.5" y="17" width="47" height="47" fill="black">
<rect fill="white" x="16.5" y="17" width="47" height="47"/>
<path d="M50.52 18H29.5C21.84 18 17.5 22.34 17.5 30L17.5 51C17.5 58.66 21.84 63 29.5 63H50.52C58.18 63 62.5 58.66 62.5 51L62.5 30C62.5 22.34 58.18 18 50.52 18Z"/>
</mask>
<path d="M50.52 18H29.5C21.84 18 17.5 22.34 17.5 30L17.5 51C17.5 58.66 21.84 63 29.5 63H50.52C58.18 63 62.5 58.66 62.5 51L62.5 30C62.5 22.34 58.18 18 50.52 18Z" fill="#FFE1DB"/>
<path d="M50.52 19C51.0723 19 51.52 18.5523 51.52 18C51.52 17.4477 51.0723 17 50.52 17L50.52 19ZM50.52 17C49.9677 17 49.52 17.4477 49.52 18C49.52 18.5523 49.9677 19 50.52 19L50.52 17ZM50.52 17H29.5L29.5 19H50.52L50.52 17ZM29.5 17C25.4841 17 22.1999 18.1409 19.9204 20.4204C17.6409 22.6999 16.5 25.9841 16.5 30H18.5C18.5 26.3559 19.5291 23.6401 21.3346 21.8346C23.1401 20.0291 25.8559 19 29.5 19L29.5 17ZM16.5 30L16.5 51H18.5L18.5 30H16.5ZM16.5 51C16.5 55.0159 17.6409 58.3001 19.9204 60.5796C22.1999 62.8591 25.4841 64 29.5 64L29.5 62C25.8559 62 23.1401 60.9709 21.3346 59.1654C19.5291 57.3599 18.5 54.6441 18.5 51H16.5ZM29.5 64H50.52L50.52 62H29.5L29.5 64ZM50.52 64C54.536 64 57.8157 62.8591 60.0905 60.5787C62.3648 58.2988 63.5 55.0147 63.5 51H61.5C61.5 54.6453 60.4752 57.3612 58.6745 59.1663C56.8743 60.9709 54.164 62 50.52 62L50.52 64ZM63.5 51L63.5 30H61.5L61.5 51H63.5ZM63.5 30C63.5 25.9853 62.3648 22.7012 60.0905 20.4213C57.8157 18.1409 54.536 17 50.52 17L50.52 19C54.164 19 56.8743 20.0291 58.6745 21.8337C60.4752 23.6388 61.5 26.3547 61.5 30H63.5Z" fill="url(#paint0_linear)" mask="url(#path-1-outside-1)"/>
</g>
<mask id="mask0" style="mask-type:alpha" maskUnits="userSpaceOnUse" x="16" y="17" width="48" height="47">
<mask id="path-3-outside-2" maskUnits="userSpaceOnUse" x="16.5" y="17" width="47" height="47" fill="black">
<rect fill="white" x="16.5" y="17" width="47" height="47"/>
<path d="M50.52 18H29.5C21.84 18 17.5 22.34 17.5 30L17.5 51C17.5 58.66 21.84 63 29.5 63H50.52C58.18 63 62.5 58.66 62.5 51L62.5 30C62.5 22.34 58.18 18 50.52 18"/>
</mask>
<path d="M50.52 18H29.5C21.84 18 17.5 22.34 17.5 30L17.5 51C17.5 58.66 21.84 63 29.5 63H50.52C58.18 63 62.5 58.66 62.5 51L62.5 30C62.5 22.34 58.18 18 50.52 18" fill="#FFE1DB"/>
<path d="M50.52 19C51.0723 19 51.52 18.5523 51.52 18C51.52 17.4477 51.0723 17 50.52 17L50.52 19ZM50.52 17C49.9677 17 49.52 17.4477 49.52 18C49.52 18.5523 49.9677 19 50.52 19L50.52 17ZM50.52 17H29.5L29.5 19H50.52L50.52 17ZM29.5 17C25.4841 17 22.1999 18.1409 19.9204 20.4204C17.6409 22.6999 16.5 25.9841 16.5 30H18.5C18.5 26.3559 19.5291 23.6401 21.3346 21.8346C23.1401 20.0291 25.8559 19 29.5 19L29.5 17ZM16.5 30L16.5 51H18.5L18.5 30H16.5ZM16.5 51C16.5 55.0159 17.6409 58.3001 19.9204 60.5796C22.1999 62.8591 25.4841 64 29.5 64L29.5 62C25.8559 62 23.1401 60.9709 21.3346 59.1654C19.5291 57.3599 18.5 54.6441 18.5 51H16.5ZM29.5 64H50.52L50.52 62H29.5L29.5 64ZM50.52 64C54.536 64 57.8157 62.8591 60.0905 60.5787C62.3648 58.2988 63.5 55.0147 63.5 51H61.5C61.5 54.6453 60.4752 57.3612 58.6745 59.1663C56.8743 60.9709 54.164 62 50.52 62L50.52 64ZM63.5 51L63.5 30H61.5L61.5 51H63.5ZM63.5 30C63.5 25.9853 62.3648 22.7012 60.0905 20.4213C57.8157 18.1409 54.536 17 50.52 17L50.52 19C54.164 19 56.8743 20.0291 58.6745 21.8337C60.4752 23.6388 61.5 26.3547 61.5 30H63.5Z" fill="url(#paint1_linear)" mask="url(#path-3-outside-2)"/>
</mask>
<g mask="url(#mask0)">
<g filter="url(#filter1_f)">
<path d="M38.8511 9H20.1667C13.3578 9 9.5 12.8578 9.5 19.6667L9.5 38.3333C9.5 45.1422 13.3578 49 20.1667 49H38.8511C45.66 49 49.5 45.1422 49.5 38.3333L49.5 19.6667C49.5 12.8578 45.66 9 38.8511 9Z" fill="url(#paint2_linear)" fill-opacity="0.6"/>
</g>
</g>
<g filter="url(#filter2_d)">
<path fill-rule="evenodd" clip-rule="evenodd" d="M50.7154 31.7351C51.733 32.7432 51.7649 34.4107 50.7869 35.4596L38.9142 48.1913C38.4101 48.7319 37.7064 49.0254 36.9794 48.9983C36.2524 48.9712 35.5711 48.626 35.1062 48.0493L29.09 40.5858C28.188 39.4669 28.3369 37.8061 29.4224 36.8764C30.508 35.9467 32.1192 36.1001 33.0212 37.219L37.2104 42.416L47.102 31.8087C48.0801 30.7599 49.6979 30.7269 50.7154 31.7351Z" fill="url(#paint3_linear)"/>
</g>
<defs>
<filter id="filter0_b" x="0.5" y="1" width="79" height="79" filterUnits="userSpaceOnUse" color-interpolation-filters="sRGB">
<feFlood flood-opacity="0" result="BackgroundImageFix"/>
<feGaussianBlur in="BackgroundImage" stdDeviation="8"/>
<feComposite in2="SourceAlpha" operator="in" result="effect1_backgroundBlur"/>
<feBlend mode="normal" in="SourceGraphic" in2="effect1_backgroundBlur" result="shape"/>
</filter>
<filter id="filter1_f" x="-2.5" y="-3" width="64" height="64" filterUnits="userSpaceOnUse" color-interpolation-filters="sRGB">
<feFlood flood-opacity="0" result="BackgroundImageFix"/>
<feBlend mode="normal" in="SourceGraphic" in2="BackgroundImageFix" result="shape"/>
<feGaussianBlur stdDeviation="6" result="effect1_foregroundBlur"/>
</filter>
<filter id="filter2_d" x="25.5" y="28" width="35" height="30" filterUnits="userSpaceOnUse" color-interpolation-filters="sRGB">
<feFlood flood-opacity="0" result="BackgroundImageFix"/>
<feColorMatrix in="SourceAlpha" type="matrix" values="0 0 0 0 0 0 0 0 0 0 0 0 0 0 0 0 0 0 127 0" result="hardAlpha"/>
<feOffset dx="3" dy="3"/>
<feGaussianBlur stdDeviation="3"/>
<feColorMatrix type="matrix" values="0 0 0 0 0.870588 0 0 0 0 0.180392 0 0 0 0 0.137255 0 0 0 0.24 0"/>
<feBlend mode="normal" in2="BackgroundImageFix" result="effect1_dropShadow"/>
<feBlend mode="normal" in="SourceGraphic" in2="effect1_dropShadow" result="shape"/>
</filter>
<linearGradient id="paint0_linear" x1="24.6633" y1="23.2426" x2="53.3685" y2="58.7947" gradientUnits="userSpaceOnUse">
<stop stop-color="white" stop-opacity="0.25"/>
<stop offset="1" stop-color="white" stop-opacity="0"/>
</linearGradient>
<linearGradient id="paint1_linear" x1="24.6633" y1="23.2426" x2="53.3685" y2="58.7947" gradientUnits="userSpaceOnUse">
<stop stop-color="white" stop-opacity="0.25"/>
<stop offset="1" stop-color="white" stop-opacity="0"/>
</linearGradient>
<linearGradient id="paint2_linear" x1="15.7963" y1="9" x2="31.472" y2="54.6784" gradientUnits="userSpaceOnUse">
<stop stop-color="#FF9797"/>
<stop offset="1" stop-color="#E92C2C"/>
</linearGradient>
<linearGradient id="paint3_linear" x1="40.8519" y1="25.7317" x2="29.1236" y2="74.7459" gradientUnits="userSpaceOnUse">
<stop stop-color="white"/>
<stop offset="1" stop-color="white" stop-opacity="0"/>
</linearGradient>
</defs>
</svg>
