<svg width="72" height="72" viewBox="0 0 72 72" fill="none" xmlns="http://www.w3.org/2000/svg">
<path d="M51.1952 20.5135H33.112C29.4524 20.5135 26.3595 21.825 24.1834 24.139C22.0098 26.4503 20.7861 29.7238 20.7861 33.5896V50.9455C20.7861 54.8011 22.01 58.0692 24.1836 60.3777C26.3596 62.6888 29.4525 64.0003 33.112 64.0003H51.1952C54.8548 64.0003 57.9427 62.6888 60.1136 60.3773C62.2819 58.0686 63.5003 54.8005 63.5003 50.9455V33.5896C63.5003 29.7244 62.2821 26.451 60.1138 24.1395C57.9429 21.8251 54.8549 20.5135 51.1952 20.5135Z" fill="#BDEFFF" stroke="url(#paint0_linear)" stroke-linecap="round" stroke-linejoin="round"/>
<mask id="mask0" style="mask-type:alpha" maskUnits="userSpaceOnUse" x="20" y="20" width="45" height="45">
<path d="M51.1952 20.5135H33.112C29.4524 20.5135 26.3595 21.825 24.1834 24.139C22.0098 26.4503 20.7861 29.7238 20.7861 33.5896V50.9455C20.7861 54.8011 22.01 58.0692 24.1836 60.3777C26.3596 62.6888 29.4525 64.0003 33.112 64.0003H51.1952C54.8548 64.0003 57.9427 62.6888 60.1136 60.3773C62.2819 58.0686 63.5003 54.8005 63.5003 50.9455V33.5896C63.5003 29.7244 62.2821 26.451 60.1138 24.1395C57.9429 21.8251 54.8549 20.5135 51.1952 20.5135Z" fill="#D5F5FF" stroke="url(#paint1_linear)" stroke-linecap="round" stroke-linejoin="round"/>
</mask>
<g mask="url(#mask0)">
<g filter="url(#filter0_f)">
<path d="M39.5411 12.713L23.6524 12.713C17.4398 12.713 13.2208 17.1443 13.1603 23.7354L13.0208 38.947C12.9605 45.5194 17.0981 49.9507 23.3107 49.9507H39.1994C45.4119 49.9507 49.6126 45.5194 49.6729 38.947L49.8125 23.7354C49.873 17.1443 45.7536 12.713 39.5411 12.713" fill="#55D4FD"/>
</g>
</g>
<g filter="url(#filter1_d)">
<mask id="path-4-inside-1" fill="white">
<path fill-rule="evenodd" clip-rule="evenodd" d="M48.7946 50.1373C49.047 50.2882 49.3223 50.3604 49.5955 50.3604C50.1274 50.3604 50.6467 50.0821 50.9408 49.5829C51.0903 49.3273 51.1613 49.0464 51.1613 48.7691C51.1615 48.2257 50.8889 47.6959 50.3985 47.3963L42.9734 42.8863L42.9734 33.0704C42.9734 32.1909 42.2726 31.4772 41.4091 31.4772C40.5456 31.4772 39.8448 32.1909 39.8448 33.0704V43.7913V43.792C39.8448 44.3528 40.1348 44.8732 40.6061 45.1621L48.7946 50.1373Z"/>
</mask>
<path fill-rule="evenodd" clip-rule="evenodd" d="M48.7946 50.1373C49.047 50.2882 49.3223 50.3604 49.5955 50.3604C50.1274 50.3604 50.6467 50.0821 50.9408 49.5829C51.0903 49.3273 51.1613 49.0464 51.1613 48.7691C51.1615 48.2257 50.8889 47.6959 50.3985 47.3963L42.9734 42.8863L42.9734 33.0704C42.9734 32.1909 42.2726 31.4772 41.4091 31.4772C40.5456 31.4772 39.8448 32.1909 39.8448 33.0704V43.7913V43.792C39.8448 44.3528 40.1348 44.8732 40.6061 45.1621L48.7946 50.1373Z" fill="url(#paint2_linear)"/>
<path d="M48.7946 50.1373L48.5869 50.4792L48.5894 50.4807L48.7946 50.1373ZM50.9408 49.5829L51.2855 49.7859L51.2861 49.7848L50.9408 49.5829ZM51.1613 48.7691L50.7613 48.7689L50.7613 48.7691L51.1613 48.7691ZM50.3985 47.3963L50.6071 47.055L50.6062 47.0544L50.3985 47.3963ZM42.9734 42.8863L42.5734 42.8863L42.5734 43.1114L42.7658 43.2282L42.9734 42.8863ZM42.9734 33.0704L43.3734 33.0704V33.0704H42.9734ZM40.6061 45.1621L40.3971 45.5032L40.3984 45.504L40.6061 45.1621ZM49.5955 49.9604C49.3937 49.9604 49.1894 49.9073 48.9998 49.794L48.5894 50.4807C48.9046 50.669 49.2509 50.7604 49.5955 50.7604V49.9604ZM50.5962 49.3799C50.3752 49.7549 49.9882 49.9604 49.5955 49.9604V50.7604C50.2666 50.7604 50.9182 50.4093 51.2855 49.7859L50.5962 49.3799ZM50.7613 48.7691C50.7613 48.9778 50.708 49.1886 50.5955 49.381L51.2861 49.7848C51.4726 49.4659 51.5613 49.115 51.5613 48.769L50.7613 48.7691ZM51.5613 48.7692C51.5616 48.0942 51.2229 47.4313 50.6071 47.055L50.19 47.7376C50.5549 47.9606 50.7615 48.3572 50.7613 48.7689L51.5613 48.7692ZM50.6062 47.0544L43.1811 42.5445L42.7658 43.2282L50.1909 47.7382L50.6062 47.0544ZM42.5734 33.0704L42.5734 42.8863L43.3734 42.8863L43.3734 33.0704L42.5734 33.0704ZM41.4091 31.8772C42.0448 31.8772 42.5734 32.4049 42.5734 33.0704H43.3734C43.3734 31.977 42.5004 31.0772 41.4091 31.0772V31.8772ZM40.2448 33.0704C40.2448 32.4049 40.7734 31.8772 41.4091 31.8772V31.0772C40.3178 31.0772 39.4448 31.977 39.4448 33.0704H40.2448ZM40.2448 43.7913V33.0704H39.4448V43.7913H40.2448ZM40.2448 43.792V43.7913H39.4448V43.792H40.2448ZM40.8152 44.8211C40.464 44.6059 40.2448 44.2155 40.2448 43.792H39.4448C39.4448 44.4901 39.8055 45.1406 40.3971 45.5032L40.8152 44.8211ZM49.0023 49.7955L40.8138 44.8203L40.3984 45.504L48.5869 50.4792L49.0023 49.7955Z" fill="url(#paint3_linear)" mask="url(#path-4-inside-1)"/>
</g>
<defs>
<filter id="filter0_f" x="1.02008" y="0.713013" width="60.793" height="61.2377" filterUnits="userSpaceOnUse" color-interpolation-filters="sRGB">
<feFlood flood-opacity="0" result="BackgroundImageFix"/>
<feBlend mode="normal" in="SourceGraphic" in2="BackgroundImageFix" result="shape"/>
<feGaussianBlur stdDeviation="6" result="effect1_foregroundBlur"/>
</filter>
<filter id="filter1_d" x="37.8448" y="29.4772" width="21.3165" height="28.8832" filterUnits="userSpaceOnUse" color-interpolation-filters="sRGB">
<feFlood flood-opacity="0" result="BackgroundImageFix"/>
<feColorMatrix in="SourceAlpha" type="matrix" values="0 0 0 0 0 0 0 0 0 0 0 0 0 0 0 0 0 0 127 0" result="hardAlpha"/>
<feOffset dx="3" dy="3"/>
<feGaussianBlur stdDeviation="2.5"/>
<feColorMatrix type="matrix" values="0 0 0 0 0.31816 0 0 0 0 0.749204 0 0 0 0 0.991667 0 0 0 0.5 0"/>
<feBlend mode="normal" in2="BackgroundImageFix" result="effect1_dropShadow"/>
<feBlend mode="normal" in="SourceGraphic" in2="effect1_dropShadow" result="shape"/>
</filter>
<linearGradient id="paint0_linear" x1="27.9263" y1="25.9633" x2="55.1289" y2="59.0418" gradientUnits="userSpaceOnUse">
<stop stop-color="white" stop-opacity="0.25"/>
<stop offset="1" stop-color="white" stop-opacity="0"/>
</linearGradient>
<linearGradient id="paint1_linear" x1="27.9263" y1="25.9633" x2="55.1289" y2="59.0418" gradientUnits="userSpaceOnUse">
<stop stop-color="white" stop-opacity="0.25"/>
<stop offset="1" stop-color="white" stop-opacity="0"/>
</linearGradient>
<linearGradient id="paint2_linear" x1="50.359" y1="34.8871" x2="37.7449" y2="35.1336" gradientUnits="userSpaceOnUse">
<stop stop-color="white"/>
<stop offset="1" stop-color="white" stop-opacity="0.65"/>
</linearGradient>
<linearGradient id="paint3_linear" x1="41.6462" y1="33.6771" x2="53.4405" y2="42.4312" gradientUnits="userSpaceOnUse">
<stop stop-color="white" stop-opacity="0.37"/>
<stop offset="1" stop-color="white"/>
</linearGradient>
</defs>
</svg>
