<svg width="25" height="24" viewBox="0 0 25 24" fill="none" xmlns="http://www.w3.org/2000/svg">
<g clip-path="url(#clip0)">
<path d="M12.0724 1.59404C2.80239 1.59104 -1.84061 12.797 4.71239 19.352C6.16716 20.8072 8.02079 21.7983 10.0388 22.1999C12.0569 22.6015 14.1487 22.3957 16.0498 21.6084C17.9508 20.8211 19.5757 19.4877 20.719 17.7769C21.8622 16.0661 22.4724 14.0547 22.4724 11.997C22.4724 6.25304 17.8174 1.59604 12.0724 1.59404ZM6.18139 6.78304C6.68239 4.18504 10.0744 3.48904 11.5574 5.68004C13.0404 7.87004 11.1354 10.762 8.53739 10.262C8.1542 10.1884 7.78926 10.04 7.46344 9.82532C7.13762 9.61062 6.85731 9.33381 6.63851 9.01072C6.41971 8.68764 6.26673 8.3246 6.18829 7.94237C6.10986 7.56013 6.10751 7.16618 6.18139 6.78304ZM10.5034 15.771C9.99939 18.368 6.60639 19.059 5.12639 16.867C3.64639 14.675 5.55339 11.787 8.15139 12.288C8.53463 12.3621 8.89952 12.5109 9.22519 12.7261C9.55086 12.9413 9.83092 13.2185 10.0494 13.542C10.2678 13.8655 10.4203 14.2289 10.4982 14.6113C10.5761 14.9938 10.5779 15.3879 10.5034 15.771ZM11.7634 13.366C10.6114 13.143 10.3014 11.639 11.2724 10.979C12.2424 10.319 13.5284 11.159 13.3124 12.313C13.2804 12.4841 13.2148 12.6471 13.1196 12.7927C13.0243 12.9383 12.9012 13.0636 12.7574 13.1615C12.6135 13.2593 12.4517 13.3278 12.2813 13.3629C12.1109 13.398 11.9352 13.3991 11.7644 13.366H11.7634ZM17.9614 17.204C17.4604 19.802 14.0684 20.497 12.5854 18.307C11.1014 16.116 13.0064 13.225 15.6054 13.724C15.9887 13.7976 16.3537 13.9461 16.6796 14.1608C17.0055 14.3756 17.2859 14.6525 17.5047 14.9757C17.7235 15.2989 17.8765 15.6621 17.9548 16.0444C18.0332 16.4268 18.0354 16.8208 17.9614 17.204ZM15.9944 11.702C13.3964 11.201 12.7014 7.80604 14.8924 6.32204C17.0824 4.83904 19.9734 6.74404 19.4744 9.34204C19.4012 9.72569 19.2531 10.0912 19.0386 10.4175C18.824 10.7438 18.5472 11.0247 18.2239 11.2439C17.9007 11.4631 17.5374 11.6164 17.1548 11.695C16.7722 11.7736 16.3779 11.776 15.9944 11.702ZM13.6614 23.264L15.9254 23.874C16.8774 24.1266 17.8907 23.9909 18.7426 23.4966C19.5945 23.0023 20.2153 22.1899 20.4684 21.238L21.1084 18.836C19.3065 21.2362 16.6297 22.8276 13.6604 23.264H13.6614ZM21.3044 3.59904L18.9414 2.97004C20.1356 3.88859 21.1354 5.03518 21.8828 6.34327C22.6302 7.65135 23.1104 9.09488 23.2954 10.59L23.9454 8.13104C24.1941 7.17977 24.0556 6.16869 23.5602 5.31938C23.0648 4.47006 22.2529 3.85178 21.3024 3.60004L21.3044 3.59904ZM0.743391 13.809L0.202391 15.849C-0.050211 16.801 0.0855648 17.8144 0.579869 18.6663C1.07417 19.5182 1.88655 20.1389 2.83839 20.392L4.94539 20.954C2.69593 19.1855 1.19528 16.6344 0.742391 13.809H0.743391ZM10.4284 0.702039L8.22139 0.126039C7.74968 0.000382543 7.25783 -0.0310739 6.77395 0.0334676C6.29008 0.098009 5.82366 0.257283 5.40138 0.502184C4.97909 0.747085 4.60922 1.07281 4.31289 1.46074C4.01656 1.84868 3.79959 2.29121 3.67439 2.76304L3.12339 4.84504C4.94111 2.58268 7.55475 1.10056 10.4294 0.702039H10.4284Z" fill="#999BB3"/>
</g>
<defs>
<clipPath id="clip0">
<rect width="24" height="24" fill="white" transform="translate(0.0714111)"/>
</clipPath>
</defs>
</svg>
