<svg width="25" height="24" viewBox="0 0 25 24" fill="none" xmlns="http://www.w3.org/2000/svg">
<path d="M21.0184 8.30496C21.0083 7.54758 20.8666 6.79773 20.5994 6.08896C20.3678 5.49111 20.014 4.94816 19.5606 4.49479C19.1072 4.04142 18.5643 3.68761 17.9664 3.45596C17.2668 3.19331 16.5276 3.0513 15.7804 3.03596C14.8184 2.99296 14.5134 2.98096 12.0714 2.98096C9.62942 2.98096 9.31642 2.98096 8.36142 3.03596C7.61458 3.05141 6.87577 3.19343 6.17642 3.45596C5.57848 3.68745 5.03544 4.0412 4.58205 4.49459C4.12867 4.94798 3.77491 5.49102 3.54342 6.08896C3.28025 6.78809 3.13854 7.52707 3.12442 8.27396C3.08142 9.23696 3.06842 9.54196 3.06842 11.984C3.06842 14.426 3.06842 14.738 3.12442 15.694C3.13942 16.442 3.28042 17.18 3.54342 17.881C3.7753 18.4787 4.12932 19.0215 4.58286 19.4747C5.0364 19.9279 5.57948 20.2815 6.17742 20.513C6.87485 20.7862 7.61379 20.9383 8.36242 20.963C9.32542 21.006 9.63042 21.019 12.0724 21.019C14.5144 21.019 14.8274 21.019 15.7824 20.963C16.5296 20.9482 17.2688 20.8066 17.9684 20.544C18.5661 20.312 19.1089 19.9581 19.5623 19.5048C20.0156 19.0515 20.3695 18.5086 20.6014 17.911C20.8644 17.211 21.0054 16.473 21.0204 15.724C21.0634 14.762 21.0764 14.457 21.0764 12.014C21.0744 9.57196 21.0744 9.26196 21.0184 8.30496ZM12.0654 16.602C9.51142 16.602 7.44242 14.533 7.44242 11.979C7.44242 9.42496 9.51142 7.35596 12.0654 7.35596C13.2915 7.35596 14.4674 7.84302 15.3344 8.71C16.2014 9.57698 16.6884 10.7529 16.6884 11.979C16.6884 13.2051 16.2014 14.3809 15.3344 15.2479C14.4674 16.1149 13.2915 16.602 12.0654 16.602ZM16.8724 8.26296C16.2754 8.26296 15.7944 7.78096 15.7944 7.18496C15.7944 7.04346 15.8223 6.90334 15.8764 6.77262C15.9306 6.64189 16.01 6.5231 16.11 6.42305C16.2101 6.32299 16.3289 6.24363 16.4596 6.18948C16.5903 6.13533 16.7304 6.10746 16.8719 6.10746C17.0134 6.10746 17.1535 6.13533 17.2843 6.18948C17.415 6.24363 17.5338 6.32299 17.6338 6.42305C17.7339 6.5231 17.8133 6.64189 17.8674 6.77262C17.9216 6.90334 17.9494 7.04346 17.9494 7.18496C17.9494 7.78096 17.4674 8.26296 16.8724 8.26296Z" fill="#999BB3"/>
<path d="M12.0654 14.982C13.7239 14.982 15.0684 13.6375 15.0684 11.979C15.0684 10.3204 13.7239 8.97595 12.0654 8.97595C10.4069 8.97595 9.06241 10.3204 9.06241 11.979C9.06241 13.6375 10.4069 14.982 12.0654 14.982Z" fill="#999BB3"/>
</svg>
