<svg width="25" height="24" viewBox="0 0 25 24" fill="none" xmlns="http://www.w3.org/2000/svg">
<path fill-rule="evenodd" clip-rule="evenodd" d="M1.07141 2.838C1.07141 2.35053 1.26506 1.88303 1.60975 1.53834C1.95444 1.19365 2.42194 1 2.90941 1H21.2314C21.473 0.999608 21.7123 1.04687 21.9356 1.13907C22.1588 1.23127 22.3617 1.36661 22.5327 1.53734C22.7036 1.70807 22.8391 1.91083 22.9316 2.13401C23.024 2.3572 23.0715 2.59643 23.0714 2.838V21.16C23.0717 21.4016 23.0243 21.6409 22.932 21.8642C22.8397 22.0875 22.7042 22.2904 22.5334 22.4613C22.3626 22.6322 22.1598 22.7678 21.9366 22.8602C21.7133 22.9526 21.474 23.0001 21.2324 23H2.90941C2.66796 23 2.42887 22.9524 2.20581 22.86C1.98275 22.7676 1.78008 22.6321 1.6094 22.4613C1.43871 22.2905 1.30334 22.0878 1.21103 21.8647C1.11872 21.6416 1.07128 21.4025 1.07141 21.161V2.838ZM9.77941 9.388H12.7584V10.884C13.1884 10.024 14.2884 9.25 15.9414 9.25C19.1104 9.25 19.8614 10.963 19.8614 14.106V19.928H16.6544V14.822C16.6544 13.032 16.2244 12.022 15.1324 12.022C13.6174 12.022 12.9874 13.111 12.9874 14.822V19.928H9.77941V9.388ZM4.27941 19.791H7.48741V9.25H4.27941V19.79V19.791ZM7.94641 5.812C7.95246 6.08668 7.90358 6.35979 7.80265 6.61532C7.70172 6.87084 7.55076 7.10364 7.35864 7.30003C7.16652 7.49643 6.93711 7.65248 6.68387 7.75901C6.43062 7.86554 6.15865 7.92042 5.88391 7.92042C5.60917 7.92042 5.3372 7.86554 5.08396 7.75901C4.83071 7.65248 4.6013 7.49643 4.40918 7.30003C4.21706 7.10364 4.0661 6.87084 3.96517 6.61532C3.86424 6.35979 3.81536 6.08668 3.82141 5.812C3.83328 5.27286 4.0558 4.75979 4.4413 4.38269C4.8268 4.00558 5.34464 3.79442 5.88391 3.79442C6.42319 3.79442 6.94103 4.00558 7.32653 4.38269C7.71203 4.75979 7.93454 5.27286 7.94641 5.812Z" fill="#999BB3"/>
</svg>
