<svg width="25" height="24" viewBox="0 0 25 24" fill="none" xmlns="http://www.w3.org/2000/svg">
<path d="M23.7144 4.93695C22.8794 5.30695 21.9824 5.55696 21.0394 5.66996C22.0124 5.08775 22.7404 4.17142 23.0874 3.09195C22.1733 3.63494 21.1728 4.01715 20.1294 4.22196C19.4278 3.47282 18.4985 2.97628 17.4857 2.80943C16.473 2.64258 15.4335 2.81475 14.5287 3.29921C13.6238 3.78367 12.9042 4.55332 12.4816 5.48866C12.059 6.424 11.957 7.4727 12.1914 8.47195C10.3391 8.37895 8.52705 7.8975 6.87285 7.05886C5.21864 6.22022 3.75926 5.04312 2.58942 3.60396C2.18942 4.29396 1.95942 5.09396 1.95942 5.94596C1.95898 6.71295 2.14786 7.4682 2.5093 8.14469C2.87075 8.82118 3.39358 9.39799 4.03142 9.82396C3.2917 9.80042 2.5683 9.60054 1.92142 9.24095V9.30095C1.92135 10.3767 2.29346 11.4193 2.97461 12.252C3.65576 13.0846 4.60399 13.6559 5.65842 13.869C4.97221 14.0547 4.25276 14.082 3.55442 13.949C3.85192 14.8746 4.43142 15.684 5.21179 16.2639C5.99216 16.8438 6.93434 17.1651 7.90642 17.183C6.25626 18.4784 4.21831 19.181 2.12042 19.178C1.7488 19.1781 1.3775 19.1564 1.00842 19.113C3.1379 20.4821 5.61676 21.2088 8.14842 21.206C16.7184 21.206 21.4034 14.108 21.4034 7.95195C21.4034 7.75196 21.3984 7.54995 21.3894 7.34995C22.3007 6.69093 23.0873 5.87485 23.7124 4.93995L23.7144 4.93695Z" fill="#999BB3"/>
</svg>
