<svg width="25" height="24" viewBox="0 0 25 24" fill="none" xmlns="http://www.w3.org/2000/svg">
<g clip-path="url(#clip0)">
<path d="M23.5714 6.50695C23.4355 6.02219 23.1708 5.5833 22.8054 5.23695C22.4297 4.87996 21.9692 4.62459 21.4674 4.49495C19.5894 3.99995 12.0654 3.99995 12.0654 3.99995C8.92875 3.96427 5.79285 4.12123 2.67542 4.46995C2.17361 4.60917 1.71398 4.87024 1.33742 5.22995C0.967418 5.58595 0.699418 6.02495 0.559418 6.50595C0.223111 8.3177 0.05971 10.1573 0.071418 12C0.059418 13.841 0.222418 15.68 0.559418 17.494C0.696418 17.973 0.963418 18.41 1.33442 18.763C1.70542 19.116 2.16742 19.371 2.67542 19.506C4.57842 20 12.0654 20 12.0654 20C15.2061 20.0357 18.346 19.8787 21.4674 19.53C21.9692 19.4003 22.4297 19.145 22.8054 18.788C23.1754 18.435 23.4384 17.996 23.5704 17.518C23.9155 15.7069 24.0833 13.8665 24.0714 12.023C24.0974 10.1716 23.9298 8.32252 23.5714 6.50595V6.50695ZM9.67342 15.424V8.57695L15.9334 12.001L9.67342 15.424Z" fill="#999BB3"/>
</g>
<defs>
<clipPath id="clip0">
<rect width="24" height="24" fill="white" transform="translate(0.0714111)"/>
</clipPath>
</defs>
</svg>
