<svg width="65" height="24" viewBox="0 0 65 24" fill="none" xmlns="http://www.w3.org/2000/svg">
<path d="M0.625 22.0019C0.624921 21.7393 0.676551 21.4794 0.77736 21.2369C0.87817 20.9943 1.02633 20.774 1.21267 20.5883C1.39901 20.4027 1.61981 20.2555 1.86329 20.1551C2.10677 20.0547 2.36804 20.003 2.63156 20.0031C3.16437 20.0031 3.67547 19.7923 4.05222 19.417C4.42897 19.0417 4.64048 18.5327 4.64048 18.0019V6.50209C4.64016 6.23941 4.69156 5.97924 4.79225 5.73646C4.89295 5.49369 5.04121 5.27306 5.22757 5.08721C5.41392 4.90135 5.63517 4.75391 5.87877 4.65331C6.12237 4.55272 6.38334 4.50094 6.64704 4.50094C6.91088 4.50086 7.17213 4.55257 7.4159 4.65311C7.65967 4.75365 7.88113 4.90105 8.0677 5.08689C8.25426 5.27273 8.40208 5.49336 8.50301 5.73619C8.60394 5.97901 8.65604 6.23927 8.65596 6.50209V14.0027C8.65572 14.2652 8.70757 14.5252 8.80832 14.7678C8.90907 15.0104 9.05667 15.2309 9.24304 15.4165C9.42942 15.6022 9.6507 15.7494 9.89425 15.8497C10.1378 15.9501 10.399 16.0016 10.6625 16.0014C10.9263 16.0017 11.1876 15.9503 11.4314 15.85C11.6751 15.7497 11.8965 15.6025 12.0832 15.4169C12.2698 15.2312 12.418 15.0108 12.5191 14.7681C12.6201 14.5255 12.6719 14.2654 12.672 14.0027V6.00105C12.6719 5.73823 12.724 5.47798 12.825 5.23515C12.9259 4.99232 13.0737 4.77169 13.2603 4.58585C13.4469 4.40001 13.6683 4.25261 13.9121 4.15207C14.1559 4.05153 14.4171 3.99982 14.6809 3.9999C15.2134 4.00038 15.7236 4.21144 16.0998 4.5867C16.4761 4.96195 16.6877 5.47068 16.6875 6.00105V14.0015C16.6872 14.264 16.7391 14.5241 16.8399 14.7667C16.9406 15.0094 17.0882 15.2298 17.2746 15.4155C17.461 15.6011 17.6822 15.7484 17.9258 15.8487C18.1694 15.949 18.4305 16.0005 18.6941 16.0002C18.9578 16.0005 19.2186 15.949 19.4623 15.8487C19.7061 15.7484 19.9276 15.6013 20.1141 15.4156C20.3007 15.23 20.449 15.0096 20.55 14.7669C20.651 14.5242 20.703 14.2641 20.703 14.0015V6.00105C20.703 5.73821 20.7549 5.47794 20.8559 5.23511C20.9569 4.99228 21.1052 4.77164 21.2918 4.58581C21.4784 4.39998 21.6998 4.25259 21.9436 4.15206C22.1874 4.05152 22.4486 3.99982 22.7125 3.9999C23.2449 4.00038 23.7551 4.21144 24.1314 4.5867C24.5076 4.96195 24.7192 5.47068 24.7191 6.00105V14.0015C24.7191 15.5929 24.0845 17.1191 22.9549 18.2444C21.8252 19.3697 20.2929 20.0019 18.6952 20.0019C17.2127 20.0019 15.7827 19.4541 14.6821 18.4646C13.5795 19.4543 12.1479 20.002 10.6637 20.0019C9.90189 20.0017 9.14686 19.8569 8.43948 19.5753C8.09356 20.8456 7.33771 21.9672 6.2882 22.7669C5.23869 23.5666 3.95409 23.9999 2.63274 24C2.36917 24.0002 2.10805 23.9487 1.86447 23.8484C1.62089 23.7481 1.39972 23.601 1.21326 23.4154C1.0268 23.2298 0.878869 23.0095 0.777948 22.7669C0.677028 22.5244 0.625 22.2644 0.625 22.0019ZM49.3161 20.0031C47.9848 20.0015 46.7084 19.474 45.7671 18.5363C44.8257 17.5986 44.2963 16.3272 44.2947 15.0011V4.99898C44.2969 3.67349 44.8269 2.40301 45.7683 1.4662C46.7096 0.529393 47.9854 0.00275302 49.3161 0.00180153H59.3565C60.6869 0.00291308 61.9623 0.529699 62.9032 1.46656C63.844 2.40342 64.3734 3.67382 64.375 4.99898V15.0005C64.374 16.3263 63.8452 17.5976 62.9043 18.5353C61.9635 19.4731 60.6875 20.0008 59.3565 20.0025L49.3161 20.0031ZM56.5941 15.5028C56.5947 15.967 56.7802 16.4121 57.11 16.7402C57.4398 17.0682 57.8869 17.2525 58.353 17.2525C58.8185 17.252 59.2647 17.0674 59.5936 16.7393C59.9225 16.4112 60.1073 15.9665 60.1072 15.5028C60.1073 15.0391 59.9225 14.5943 59.5936 14.2662C59.2647 13.9381 58.8185 13.7535 58.353 13.753C57.8871 13.753 57.4403 13.9371 57.1105 14.2649C56.7808 14.5928 56.595 15.0375 56.5941 15.5016V15.5028ZM48.5631 15.5028C48.5637 15.967 48.7492 16.4121 49.079 16.7402C49.4088 17.0682 49.8559 17.2525 50.322 17.2525C50.7872 17.2514 51.2334 17.0666 51.5621 16.7386C51.8908 16.4106 52.0753 15.9662 52.0756 15.5028C52.0753 15.0393 51.8908 14.5949 51.5621 14.2669C51.2334 13.9389 50.7872 13.7541 50.322 13.753C49.8561 13.753 49.4094 13.9371 49.0796 14.2649C48.7498 14.5928 48.5641 15.0375 48.5631 15.5016V15.5028ZM56.5941 10.0022C56.5947 10.4664 56.7802 10.9115 57.11 11.2395C57.4398 11.5676 57.8869 11.7519 58.353 11.7519C58.8185 11.7514 59.2647 11.5668 59.5936 11.2387C59.9225 10.9106 60.1073 10.4658 60.1072 10.0022C60.1073 9.53846 59.9225 9.09368 59.5936 8.76558C59.2647 8.43747 58.8185 8.2529 58.353 8.25242C57.8871 8.25242 57.4403 8.43652 57.1105 8.76433C56.7808 9.09214 56.595 9.53688 56.5941 10.001V10.0022ZM48.5631 10.0022C48.5637 10.4664 48.7492 10.9115 49.079 11.2395C49.4088 11.5676 49.8559 11.7519 50.322 11.7519C50.7872 11.7508 51.2334 11.566 51.5621 11.238C51.8908 10.91 52.0753 10.4656 52.0756 10.0022C52.0753 9.53871 51.8908 9.0943 51.5621 8.76631C51.2334 8.43833 50.7872 8.25353 50.322 8.25242C49.8561 8.25242 49.4094 8.43652 49.0796 8.76433C48.7498 9.09214 48.5641 9.53688 48.5631 10.001V10.0022ZM56.5941 4.50154C56.5947 4.96582 56.7802 5.41086 57.11 5.73893C57.4398 6.067 57.8869 6.25127 58.353 6.25127C58.8185 6.25079 59.2647 6.06622 59.5936 5.73811C59.9225 5.41001 60.1073 4.96523 60.1072 4.50154C60.1073 4.03785 59.9225 3.59307 59.5936 3.26496C59.2647 2.93686 58.8185 2.75228 58.353 2.75181C57.887 2.75181 57.4403 2.93599 57.1105 3.26393C56.7808 3.59187 56.5949 4.03736 56.5941 4.50154ZM48.5631 4.50154C48.5637 4.96582 48.7492 5.41086 49.079 5.73893C49.4088 6.067 49.8559 6.25127 50.322 6.25127C50.7872 6.25016 51.2334 6.06536 51.5621 5.73738C51.8908 5.40939 52.0753 4.96498 52.0756 4.50154C52.0753 4.0381 51.8908 3.59369 51.5621 3.2657C51.2334 2.93772 50.7872 2.75292 50.322 2.75181C49.856 2.75181 49.4094 2.93599 49.0796 3.26393C48.7498 3.59187 48.5639 4.03736 48.5631 4.50154ZM28.2339 14.002V2.00115C28.2338 1.47068 28.4452 0.961857 28.8216 0.586586C29.198 0.211315 29.7085 0.000318287 30.2411 8.99664e-08C30.7739 8.99669e-08 31.285 0.210835 31.6617 0.586123C32.0385 0.961412 32.25 1.47041 32.25 2.00115V14.002C32.25 14.2647 32.302 14.5248 32.4029 14.7675C32.5039 15.0101 32.6523 15.2306 32.8388 15.4162C33.0254 15.6019 33.2463 15.749 33.49 15.8493C33.7338 15.9496 33.9952 16.0011 34.2589 16.0008C34.5224 16.0009 34.7837 15.9492 35.0272 15.8488C35.2707 15.7484 35.4915 15.6012 35.6778 15.4156C35.8641 15.2299 36.0123 15.0096 36.1131 14.767C36.2139 14.5245 36.2655 14.2646 36.2655 14.002V12.0009C36.2655 11.7384 36.3176 11.4785 36.4184 11.236C36.5193 10.9935 36.6668 10.7732 36.8531 10.5876C37.0395 10.402 37.2609 10.2547 37.5043 10.1543C37.7478 10.0538 38.0085 10.0022 38.272 10.0022C38.8046 10.0018 39.3153 10.2122 39.6921 10.587C40.0689 10.9619 40.2811 11.4704 40.2815 12.0009V14.002C40.2815 15.5935 39.647 17.1197 38.5173 18.245C37.3877 19.3703 35.8553 20.0025 34.2577 20.0025C33.4666 20.0025 32.6832 19.8473 31.9523 19.5457C31.2214 19.2441 30.5575 18.8021 29.9981 18.2448C29.4388 17.6875 28.9949 17.026 28.6922 16.2979C28.3895 15.5698 28.2338 14.7901 28.2339 14.002ZM36.2655 7.00073C36.2652 6.73818 36.3171 6.47816 36.4178 6.23556C36.5186 5.99295 36.6662 5.77252 36.8526 5.58687C37.0389 5.40122 37.2602 5.254 37.5038 5.15364C37.7473 5.05328 38.0085 5.00174 38.272 5.00198C38.5358 5.00166 38.7971 5.05312 39.0409 5.15342C39.2846 5.25372 39.5061 5.40089 39.6927 5.58651C39.8793 5.77214 40.0275 5.99258 40.1286 6.23524C40.2296 6.4779 40.2815 6.73802 40.2815 7.00073C40.2815 7.26357 40.2296 7.52384 40.1286 7.76667C40.0276 8.0095 39.8793 8.23013 39.6927 8.41597C39.5061 8.6018 39.2847 8.74919 39.0409 8.84972C38.7971 8.95025 38.5359 9.00196 38.272 9.00188C38.0084 9.0018 37.7473 8.94996 37.5038 8.84934C37.2602 8.74872 37.0389 8.60127 36.8526 8.41543C36.6662 8.22959 36.5186 8.009 36.4178 7.76626C36.3171 7.52352 36.2652 7.26339 36.2655 7.00073ZM36.2655 2.00115C36.2652 1.73849 36.3171 1.47836 36.4178 1.23562C36.5186 0.992879 36.6662 0.772286 36.8526 0.586446C37.0389 0.400607 37.2602 0.253161 37.5038 0.152536C37.7473 0.0519115 38.0084 7.88129e-05 38.272 8.99664e-08C38.5359 -7.87242e-05 38.7971 0.0516265 39.0409 0.152158C39.2847 0.25269 39.5061 0.400081 39.6927 0.585913C39.8793 0.771745 40.0276 0.992376 40.1286 1.23521C40.2296 1.47804 40.2815 1.73831 40.2815 2.00115C40.2815 2.26386 40.2296 2.52398 40.1286 2.76664C40.0275 3.0093 39.8793 3.22974 39.6927 3.41537C39.5061 3.60099 39.2846 3.74816 39.0409 3.84846C38.7971 3.94875 38.5358 4.00022 38.272 3.9999C38.0085 4.00014 37.7473 3.9486 37.5038 3.84824C37.2602 3.74788 37.0389 3.60066 36.8526 3.41501C36.6662 3.22936 36.5186 3.00893 36.4178 2.76632C36.3171 2.52371 36.2652 2.2637 36.2655 2.00115Z" fill="#212345"/>
</svg>
