<svg width="73" height="72" viewBox="0 0 73 72" fill="none" xmlns="http://www.w3.org/2000/svg">
<g filter="url(#filter0_b)">
<mask id="path-1-outside-1" maskUnits="userSpaceOnUse" x="8.5" y="21" width="60" height="40" fill="black">
<rect fill="white" x="8.5" y="21" width="60" height="40"/>
<path fill-rule="evenodd" clip-rule="evenodd" d="M67.3302 40.3091C64.3029 34.5745 60.0873 29.9915 55.1361 26.8594C50.1849 23.7042 44.498 22 38.5 22H38.4717C26.5039 22 15.7244 28.84 9.66976 40.3091C9.44341 40.7467 9.44341 41.2533 9.66976 41.6679C15.7244 53.137 26.5039 60 38.4717 60H38.5C50.4961 60 61.2756 53.137 67.3302 41.6679C67.5566 41.2533 67.5566 40.7467 67.3302 40.3091"/>
</mask>
<path fill-rule="evenodd" clip-rule="evenodd" d="M67.3302 40.3091C64.3029 34.5745 60.0873 29.9915 55.1361 26.8594C50.1849 23.7042 44.498 22 38.5 22H38.4717C26.5039 22 15.7244 28.84 9.66976 40.3091C9.44341 40.7467 9.44341 41.2533 9.66976 41.6679C15.7244 53.137 26.5039 60 38.4717 60H38.5C50.4961 60 61.2756 53.137 67.3302 41.6679C67.5566 41.2533 67.5566 40.7467 67.3302 40.3091" fill="#ECE3FF"/>
<path d="M66.4459 40.7759C66.7037 41.2643 67.3087 41.4513 67.7971 41.1934C68.2855 40.9356 68.4724 40.3306 68.2146 39.8422L66.4459 40.7759ZM55.1361 26.8594L54.5987 27.7027L54.6015 27.7045L55.1361 26.8594ZM9.66976 40.3091L8.78539 39.8422L8.78155 39.8497L9.66976 40.3091ZM9.66976 41.6679L10.5542 41.201L10.5475 41.1887L9.66976 41.6679ZM67.3302 41.6679L66.4525 41.1886L66.4459 41.201L67.3302 41.6679ZM68.2185 39.8497C67.9647 39.3591 67.3614 39.1671 66.8708 39.4209C66.3803 39.6746 66.1883 40.278 66.442 40.7685L68.2185 39.8497ZM68.2146 39.8422C65.1109 33.963 60.7786 29.2456 55.6707 26.0143L54.6015 27.7045C59.396 30.7375 63.495 35.186 66.4459 40.7759L68.2146 39.8422ZM55.6735 26.0161C50.5644 22.7603 44.6916 21 38.5 21V23C44.3045 23 49.8053 24.6482 54.5987 27.7027L55.6735 26.0161ZM38.5 21H38.4717V23H38.5V21ZM38.4717 21C26.0972 21 14.9958 28.0782 8.78542 39.8422L10.5541 40.7759C16.453 29.6018 26.9106 23 38.4717 23V21ZM8.78155 39.8497C8.41037 40.5672 8.39843 41.4262 8.79206 42.1471L10.5475 41.1887C10.4884 41.0805 10.4765 40.9261 10.558 40.7685L8.78155 39.8497ZM8.78542 42.1347C14.9951 53.8976 26.096 61 38.4717 61V59C26.9118 59 16.4536 52.3763 10.5541 41.201L8.78542 42.1347ZM38.4717 61H38.5V59H38.4717V61ZM38.5 61C50.9035 61 62.0046 53.8981 68.2146 42.1347L66.4459 41.201C60.5466 52.3759 50.0887 59 38.5 59V61ZM68.2079 42.1471C68.6016 41.4262 68.5896 40.5672 68.2185 39.8497L66.442 40.7685C66.5235 40.9261 66.5116 41.0805 66.4526 41.1887L68.2079 42.1471Z" fill="url(#paint0_linear)" mask="url(#path-1-outside-1)"/>
</g>
<mask id="mask0" mask-type="alpha" maskUnits="userSpaceOnUse" x="8" y="21" width="61" height="40">
<mask id="path-3-outside-2" mask-type="luminance" maskUnits="userSpaceOnUse" x="8.5" y="21" width="60" height="40" fill="black">
<rect fill="white" x="8.5" y="21" width="60" height="40"/>
<path fill-rule="evenodd" clip-rule="evenodd" d="M67.3302 40.3091C64.3029 34.5745 60.0873 29.9915 55.1361 26.8594C50.1849 23.7042 44.498 22 38.5 22H38.4717C26.5039 22 15.7244 28.84 9.66976 40.3091C9.44341 40.7467 9.44341 41.2533 9.66976 41.6679C15.7244 53.137 26.5039 60 38.4717 60H38.5C50.4961 60 61.2756 53.137 67.3302 41.6679C67.5566 41.2533 67.5566 40.7467 67.3302 40.3091"/>
</mask>
<path fill-rule="evenodd" clip-rule="evenodd" d="M67.3302 40.3091C64.3029 34.5745 60.0873 29.9915 55.1361 26.8594C50.1849 23.7042 44.498 22 38.5 22H38.4717C26.5039 22 15.7244 28.84 9.66976 40.3091C9.44341 40.7467 9.44341 41.2533 9.66976 41.6679C15.7244 53.137 26.5039 60 38.4717 60H38.5C50.4961 60 61.2756 53.137 67.3302 41.6679C67.5566 41.2533 67.5566 40.7467 67.3302 40.3091" fill="#ECE3FF"/>
<path d="M66.4459 40.7759C66.7037 41.2643 67.3087 41.4513 67.7971 41.1934C68.2855 40.9356 68.4724 40.3306 68.2146 39.8422L66.4459 40.7759ZM55.1361 26.8594L54.5987 27.7027L54.6015 27.7045L55.1361 26.8594ZM9.66976 40.3091L8.78539 39.8422L8.78155 39.8497L9.66976 40.3091ZM9.66976 41.6679L10.5542 41.201L10.5475 41.1887L9.66976 41.6679ZM67.3302 41.6679L66.4525 41.1886L66.4459 41.201L67.3302 41.6679ZM68.2185 39.8497C67.9647 39.3591 67.3614 39.1671 66.8708 39.4209C66.3803 39.6746 66.1883 40.278 66.442 40.7685L68.2185 39.8497ZM68.2146 39.8422C65.1109 33.963 60.7786 29.2456 55.6707 26.0143L54.6015 27.7045C59.396 30.7375 63.495 35.186 66.4459 40.7759L68.2146 39.8422ZM55.6735 26.0161C50.5644 22.7603 44.6916 21 38.5 21V23C44.3045 23 49.8053 24.6482 54.5987 27.7027L55.6735 26.0161ZM38.5 21H38.4717V23H38.5V21ZM38.4717 21C26.0972 21 14.9958 28.0782 8.78542 39.8422L10.5541 40.7759C16.453 29.6018 26.9106 23 38.4717 23V21ZM8.78155 39.8497C8.41037 40.5672 8.39843 41.4262 8.79206 42.1471L10.5475 41.1887C10.4884 41.0805 10.4765 40.9261 10.558 40.7685L8.78155 39.8497ZM8.78542 42.1347C14.9951 53.8976 26.096 61 38.4717 61V59C26.9118 59 16.4536 52.3763 10.5541 41.201L8.78542 42.1347ZM38.4717 61H38.5V59H38.4717V61ZM38.5 61C50.9035 61 62.0046 53.8981 68.2146 42.1347L66.4459 41.201C60.5466 52.3759 50.0887 59 38.5 59V61ZM68.2079 42.1471C68.6016 41.4262 68.5896 40.5672 68.2185 39.8497L66.442 40.7685C66.5235 40.9261 66.5116 41.0805 66.4526 41.1887L68.2079 42.1471Z" fill="url(#paint1_linear)" mask="url(#path-3-outside-2)"/>
</mask>
<g mask="url(#mask0)">
<g filter="url(#filter1_f)">
<path d="M25.5 7C15.012 7 6.5 15.7379 6.5 26.5C6.5 37.266 15.012 46 25.5 46C36.007 46 44.5 37.266 44.5 26.5C44.5 15.7379 36.007 7 25.5 7Z" fill="url(#paint2_linear)"/>
</g>
</g>
<g filter="url(#filter2_d)">
<path d="M46.5 40.517C46.5 45.1844 42.6844 49 38.017 49C33.3156 49 29.5 45.1844 29.5 40.517C29.5 39.9379 29.5681 39.3928 29.6703 38.8477H29.8407C33.6222 38.8477 36.6884 35.8497 36.8246 32.1022C37.1994 32.0341 37.6082 32 38.017 32C42.6844 32 46.5 35.8156 46.5 40.517Z" fill="url(#paint3_linear)"/>
</g>
<defs>
<filter id="filter0_b" x="-7.5" y="5" width="92" height="72" filterUnits="userSpaceOnUse" color-interpolation-filters="sRGB">
<feFlood flood-opacity="0" result="BackgroundImageFix"/>
<feGaussianBlur in="BackgroundImage" stdDeviation="8"/>
<feComposite in2="SourceAlpha" operator="in" result="effect1_backgroundBlur"/>
<feBlend mode="normal" in="SourceGraphic" in2="effect1_backgroundBlur" result="shape"/>
</filter>
<filter id="filter1_f" x="-5.5" y="-5" width="62" height="63" filterUnits="userSpaceOnUse" color-interpolation-filters="sRGB">
<feFlood flood-opacity="0" result="BackgroundImageFix"/>
<feBlend mode="normal" in="SourceGraphic" in2="BackgroundImageFix" result="shape"/>
<feGaussianBlur stdDeviation="6" result="effect1_foregroundBlur"/>
</filter>
<filter id="filter2_d" x="24.5" y="27" width="33" height="33" filterUnits="userSpaceOnUse" color-interpolation-filters="sRGB">
<feFlood flood-opacity="0" result="BackgroundImageFix"/>
<feColorMatrix in="SourceAlpha" type="matrix" values="0 0 0 0 0 0 0 0 0 0 0 0 0 0 0 0 0 0 127 0" result="hardAlpha"/>
<feOffset dx="3" dy="3"/>
<feGaussianBlur stdDeviation="4"/>
<feColorMatrix type="matrix" values="0 0 0 0 0.46464 0 0 0 0 0.295573 0 0 0 0 0.945833 0 0 0 0.4 0"/>
<feBlend mode="normal" in2="BackgroundImageFix" result="effect1_dropShadow"/>
<feBlend mode="normal" in="SourceGraphic" in2="effect1_dropShadow" result="shape"/>
</filter>
<linearGradient id="paint0_linear" x1="18.7327" y1="26.427" x2="39.2311" y2="65.1769" gradientUnits="userSpaceOnUse">
<stop stop-color="white" stop-opacity="0.25"/>
<stop offset="1" stop-color="white" stop-opacity="0"/>
</linearGradient>
<linearGradient id="paint1_linear" x1="18.7327" y1="26.427" x2="39.2311" y2="65.1769" gradientUnits="userSpaceOnUse">
<stop stop-color="white" stop-opacity="0.25"/>
<stop offset="1" stop-color="white" stop-opacity="0"/>
</linearGradient>
<linearGradient id="paint2_linear" x1="28.2975" y1="29.1116" x2="-5.41903" y2="45.085" gradientUnits="userSpaceOnUse">
<stop stop-color="#BC94FF"/>
<stop offset="1" stop-color="#9F66FF"/>
</linearGradient>
<linearGradient id="paint3_linear" x1="45.2947" y1="35.0699" x2="26.3583" y2="35.6873" gradientUnits="userSpaceOnUse">
<stop stop-color="white"/>
<stop offset="1" stop-color="white" stop-opacity="0.2"/>
</linearGradient>
</defs>
</svg>
