<svg width="73" height="72" viewBox="0 0 73 72" fill="none" xmlns="http://www.w3.org/2000/svg">
<g clip-path="url(#clip0)">
<path d="M49.8486 15.093C49.8404 15.0845 49.8319 15.0762 49.8232 15.0682L49.1669 14.4688C48.8239 14.1006 48.449 13.7916 48.0589 13.5047C48.0106 13.4357 47.9525 13.3687 47.8864 13.3055C47.8312 13.2526 47.7646 13.2131 47.6917 13.1901L47.6495 13.1767C46.5381 12.352 45.3237 11.7084 44.0059 11.2456L43.9912 11.2407L43.7624 11.1683C43.1693 10.9805 42.5637 10.8335 41.938 10.732L41.7236 10.6641C41.7024 10.6574 41.6809 10.6522 41.6591 10.6483C40.9749 10.5282 40.2708 10.4783 39.5646 10.5017C30.602 10.6598 24.8657 18.7344 24.7371 27.2171L24.7371 27.2323C24.804 31.5885 25.8175 35.8438 27.6941 39.6739L27.694 39.6739L27.699 39.6835C30.4542 45.0126 33.7454 49.9904 37.5366 54.5578L37.5369 54.5581L37.9651 55.0731C38.0881 55.2211 38.2852 55.2853 38.4718 55.2383L39.0974 55.0805L39.0974 55.0806L39.1055 55.0784C44.8842 53.5184 50.4856 51.3572 55.8412 48.6206L55.8412 48.6207L55.8482 48.6169C59.6645 46.5898 63.0181 43.694 65.6371 40.1888L65.6459 40.1766C70.5316 33.2099 70.6782 23.3521 63.5492 18.1448C62.3943 17.2846 61.0959 16.6567 59.7391 16.2269C56.8596 15.2921 53.7513 15.3477 50.845 16.347C50.7713 16.2582 50.6973 16.174 50.6304 16.0979C50.605 16.069 50.5806 16.0412 50.5577 16.0148C50.5083 15.9559 50.4461 15.8686 50.3627 15.7514C50.3349 15.7124 50.3047 15.6701 50.2719 15.6244C50.1519 15.4573 50.0027 15.2553 49.8486 15.093Z" fill="#FFE1DB" stroke="url(#paint0_linear)" stroke-linecap="round" stroke-linejoin="round"/>
<g filter="url(#filter0_d)">
<path d="M62.1215 31.9937C61.7093 32.9919 60.5468 33.5058 59.483 33.1985C58.9335 32.9682 58.4719 32.5566 58.2469 32.0296C58.0219 31.5026 58.0202 30.9096 58.2513 30.3688L58.2759 30.2935C58.8322 28.5956 58.2302 26.7134 56.7716 25.6081C55.8094 24.904 55.6092 23.6073 56.3037 22.7012C57.024 21.8033 58.3579 21.6331 59.3008 22.3097C62.2332 24.5518 63.4082 28.326 62.2162 31.7047L62.1215 31.9937Z" fill="url(#paint1_linear)"/>
</g>
<mask id="mask0" mask-type="alpha" maskUnits="userSpaceOnUse" x="24" y="9" width="46" height="47">
<path d="M49.8518 15.0936L49.8397 15.0808L49.8267 15.069L49.1703 14.4695C48.8273 14.1014 48.4524 13.7923 48.0622 13.5053C48.014 13.4365 47.956 13.3695 47.8899 13.3062L47.8066 13.2265L47.6963 13.1916L47.6539 13.1782C46.5428 12.3536 45.3284 11.71 44.0105 11.2472L44.0032 11.2446L43.9958 11.2423L43.767 11.1698C43.174 10.982 42.5684 10.835 41.9426 10.7335L41.7282 10.6657L41.6964 10.6556L41.6636 10.6498C40.9792 10.5297 40.2749 10.4798 39.5684 10.5032C30.5999 10.6614 24.8641 18.7414 24.7355 27.2212L24.7354 27.2288L24.7355 27.2363C24.8024 31.5917 25.8157 35.8461 27.6918 39.6752L27.6917 39.6752L27.6966 39.6847C30.4516 45.0133 33.7425 49.9906 37.5334 54.5576L37.5337 54.5579L37.9619 55.0729L38.1623 55.314L38.469 55.2366L39.0946 55.0789L39.0946 55.079L39.1028 55.0768C44.882 53.5166 50.4839 51.3552 55.8399 48.6184L55.8399 48.6184L55.847 48.6147C59.6644 46.5869 63.0187 43.6904 65.6381 40.1848L65.6427 40.1787L65.647 40.1725C70.5344 33.2033 70.6773 23.3496 63.5531 18.1459C62.3986 17.2861 61.1005 16.6582 59.7436 16.2284C56.8647 15.2938 53.7562 15.3489 50.8488 16.3482C50.7749 16.2591 50.7007 16.1747 50.6336 16.0983C50.6081 16.0694 50.5837 16.0416 50.5607 16.0151C50.5111 15.9559 50.4487 15.8684 50.3652 15.751C50.3374 15.7121 50.3073 15.6698 50.2746 15.6243C50.1546 15.4571 50.0056 15.2555 49.8518 15.0936Z" fill="#C4C4C4" stroke="black"/>
</mask>
<g mask="url(#mask0)">
<g filter="url(#filter1_f)">
<path d="M29.7577 17.1657C28.6138 17.0367 27.4658 17.1196 26.3561 17.3619C23.9072 17.8778 21.7423 19.2175 20.1712 21.1605C19.9818 21.0718 19.7609 21.0051 19.5585 20.9381C19.3551 20.8676 18.9714 20.6705 18.6716 20.5853L17.9267 20.4275C17.5254 20.3079 17.1218 20.2452 16.7012 20.2033C16.6575 20.177 16.5952 20.151 16.5163 20.1325L16.4126 20.1551C15.2827 20.0231 14.1604 20.0608 13.0439 20.2688L12.8505 20.3111C12.3581 20.4186 11.876 20.5596 11.4004 20.7408L11.1893 20.7869C10.6794 20.9717 10.1851 21.2116 9.7202 21.5015C3.70941 25.1151 3.19596 32.8595 6.77867 38.7483C8.7195 41.7336 11.2722 44.2687 14.2367 46.1636C18.5114 48.773 23.0071 50.9197 27.6724 52.577L28.2022 52.7647L28.5738 52.399C31.9405 48.969 34.9186 45.1903 37.4715 41.1088C39.2358 38.1814 40.3029 34.837 40.5955 31.364C40.9537 24.6146 36.7894 17.8917 29.7577 17.1657Z" fill="url(#paint2_linear)"/>
</g>
</g>
</g>
<defs>
<filter id="filter0_d" x="48.8912" y="18.8964" width="16.7854" height="21.3908" filterUnits="userSpaceOnUse" color-interpolation-filters="sRGB">
<feFlood flood-opacity="0" result="BackgroundImageFix"/>
<feColorMatrix in="SourceAlpha" type="matrix" values="0 0 0 0 0 0 0 0 0 0 0 0 0 0 0 0 0 0 127 0" result="hardAlpha"/>
<feOffset dx="-2" dy="2"/>
<feGaussianBlur stdDeviation="2.5"/>
<feColorMatrix type="matrix" values="0 0 0 0 0.870833 0 0 0 0 0.181859 0 0 0 0 0.137882 0 0 0 0.12 0"/>
<feBlend mode="normal" in2="BackgroundImageFix" result="effect1_dropShadow"/>
<feBlend mode="normal" in="SourceGraphic" in2="effect1_dropShadow" result="shape"/>
</filter>
<filter id="filter1_f" x="-7.46582" y="5.10522" width="60.0827" height="59.6595" filterUnits="userSpaceOnUse" color-interpolation-filters="sRGB">
<feFlood flood-opacity="0" result="BackgroundImageFix"/>
<feBlend mode="normal" in="SourceGraphic" in2="BackgroundImageFix" result="shape"/>
<feGaussianBlur stdDeviation="6" result="effect1_foregroundBlur"/>
</filter>
<linearGradient id="paint0_linear" x1="35.8513" y1="14.4039" x2="51.0982" y2="55.1514" gradientUnits="userSpaceOnUse">
<stop stop-color="white" stop-opacity="0.25"/>
<stop offset="1" stop-color="white" stop-opacity="0"/>
</linearGradient>
<linearGradient id="paint1_linear" x1="63.6028" y1="25.5344" x2="54.4811" y2="22.8133" gradientUnits="userSpaceOnUse">
<stop stop-color="white"/>
<stop offset="1" stop-color="white" stop-opacity="0.2"/>
</linearGradient>
<linearGradient id="paint2_linear" x1="27.0304" y1="37.5152" x2="0.724879" y2="59.869" gradientUnits="userSpaceOnUse">
<stop stop-color="#FF9797"/>
<stop offset="1" stop-color="#FF2323"/>
</linearGradient>
<clipPath id="clip0">
<rect width="72" height="72" fill="white" transform="translate(0.5)"/>
</clipPath>
</defs>
</svg>
