<svg width="21" height="20" viewBox="0 0 21 20" fill="none" xmlns="http://www.w3.org/2000/svg">
<path d="M1 7.83329C1 9.49015 2.34315 10.8333 4 10.8333H4.2602C5.06245 10.8333 5.78707 11.3127 6.10086 12.051L8.81929 18.4473C9.00465 18.8835 9.43269 19.1666 9.90659 19.1666V19.1666C11.3205 19.1666 12.4179 17.9331 12.2534 16.5288L11.9775 14.1745C11.873 13.283 12.5697 12.5 13.4673 12.5H16.4557C18.3656 12.5 19.7893 10.7389 19.3891 8.87137L18.1748 3.20471C17.8784 1.82149 16.656 0.833294 15.2414 0.833294H4C2.34315 0.833294 1 2.17644 1 3.83329V7.83329Z" stroke="#B8B9CC" stroke-width="1.5"/>
<path d="M6 11.6666V0.833293" stroke="#B8B9CC" stroke-width="1.5"/>
</svg>
