<svg width="21" height="20" viewBox="0 0 21 20" fill="none" xmlns="http://www.w3.org/2000/svg">
<path d="M1 12.1667C1 10.5099 2.34315 9.16671 4 9.16671H4.2602C5.06245 9.16671 5.78707 8.68733 6.10086 7.94899L8.81929 1.55269C9.00465 1.11655 9.43269 0.833374 9.90659 0.833374V0.833374C11.3205 0.833374 12.4179 2.06689 12.2534 3.47123L11.9775 5.82545C11.873 6.71697 12.5697 7.50004 13.4673 7.50004H16.4557C18.3656 7.50004 19.7893 9.26109 19.3891 11.1286L18.1748 16.7953C17.8784 18.1785 16.656 19.1667 15.2414 19.1667H4C2.34315 19.1667 1 17.8236 1 16.1667V12.1667Z" stroke="#B8B9CC" stroke-width="1.5"/>
<path d="M6 8.33337V19.1667" stroke="#B8B9CC" stroke-width="1.5"/>
</svg>
