<svg width="19" height="20" viewBox="0 0 19 20" fill="none" xmlns="http://www.w3.org/2000/svg">
<path fill-rule="evenodd" clip-rule="evenodd" d="M5 2.5C5 3.88071 3.88071 5 2.5 5C1.11929 5 0 3.88071 0 2.5C0 1.11929 1.11929 0 2.5 0C3.88071 0 5 1.11929 5 2.5ZM6.51762 19.9989V6.33762H10.3569V8.20579H10.411C10.9448 7.13328 12.25 6 14.1972 6C18.2529 6 19 8.82813 19 12.5082V20H14.9984V13.3556C14.9984 11.7722 14.9729 9.73408 12.9175 9.73408C10.8333 9.73408 10.5171 11.4604 10.5171 13.2431V19.9989H6.51762ZM4.00586 6.33762H0V19.9989H4.00586V6.33762Z" fill="#B8B9CC"/>
</svg>
