<svg width="20" height="17" viewBox="0 0 20 17" fill="none" xmlns="http://www.w3.org/2000/svg">
<path d="M19.991 0.761081C20.01 0.648771 19.9988 0.533533 19.9585 0.426769C19.9182 0.320005 19.8501 0.225416 19.7611 0.152362C19.6721 0.0793071 19.5651 0.0303189 19.4509 0.0102445C19.3366 -0.00982996 19.219 -0.000294831 19.1096 0.0379062L0.442753 6.57656C0.319709 6.61959 0.212266 6.69713 0.133772 6.79955C0.055278 6.90197 0.00919141 7.02474 0.00123726 7.15263C-0.00671688 7.28051 0.0238119 7.40787 0.0890315 7.51889C0.154251 7.6299 0.251287 7.71967 0.368086 7.77706L5.70148 10.3925C5.80659 10.4441 5.92373 10.4675 6.04105 10.4604C6.15836 10.4533 6.27167 10.4159 6.36949 10.352L10.7962 7.45666L8.14684 10.7077C8.08919 10.7784 8.04715 10.8602 8.0234 10.9477C7.99965 11.0352 7.9947 11.1267 8.00886 11.2162C8.02303 11.3057 8.056 11.3913 8.10569 11.4677C8.15538 11.544 8.2207 11.6094 8.29751 11.6597L16.2976 16.8906C16.3902 16.951 16.4968 16.9878 16.6076 16.9974C16.7184 17.0071 16.83 16.9894 16.932 16.946C17.0341 16.9026 17.1234 16.8348 17.1919 16.7488C17.2605 16.6629 17.306 16.5615 17.3243 16.4539L19.991 0.761081Z" fill="#B8B9CC"/>
</svg>
